<svg width="368" height="247" viewBox="0 0 368 247" fill="none" xmlns="http://www.w3.org/2000/svg">
<path d="M368 131.5C368 181.365 336.395 223.851 292.127 240.017C285.393 242.482 278.441 244.306 271.365 245.467C251.897 248.66 231.937 246.847 213.363 240.199C168.815 224.166 136.979 181.536 137 131.476C137 67.7126 188.713 16.0001 252.5 16.0001C276.607 15.9651 300.116 23.507 319.704 37.5601C348.946 58.5111 368 92.7796 368 131.5Z" fill="white"/>
<path d="M292 240.133C285.246 242.556 278.273 244.351 271.176 245.492C251.65 248.632 231.63 246.85 213 240.312L218.35 219.263L218.673 218L229.59 218.041L284.438 218.234L285.14 220.268L292 240.133Z" fill="#2F2E41"/>
<path d="M101 0H0V114H101V0Z" fill="#E6E6E6"/>
<path d="M99 3H2V112H99V3Z" fill="white"/>
<path d="M50 108C52.7614 108 55 105.538 55 102.5C55 99.4624 52.7614 97 50 97C47.2386 97 45 99.4624 45 102.5C45 105.538 47.2386 108 50 108Z" fill="#E6E6E6"/>
<path d="M49 42H18V45H49V42Z" fill="#E6E6E6"/>
<path d="M65 51H18V54H65V51Z" fill="#0054A9"/>
<path d="M61 60H18V64H61V60Z" fill="#E6E6E6"/>
<path d="M83 70H18V73H83V70Z" fill="#0054A9"/>
<path d="M72 79H19V82H72V79Z" fill="#E6E6E6"/>
<path d="M142.74 185.405C143.122 185.797 143.472 186.219 143.788 186.666L192.852 185.465L198.576 175.006L215.49 181.581L207.156 201.082C206.482 202.657 205.316 203.972 203.833 204.828C202.349 205.685 200.627 206.036 198.926 205.831L143.491 199.134C142.184 200.79 140.403 202.008 138.386 202.627C136.37 203.245 134.212 203.235 132.201 202.598C130.19 201.961 128.421 200.726 127.129 199.059C125.836 197.392 125.082 195.37 124.967 193.264C124.851 191.157 125.38 189.066 126.482 187.267C127.584 185.468 129.208 184.048 131.137 183.195C133.067 182.341 135.21 182.096 137.282 182.49C139.355 182.885 141.258 183.901 142.739 185.403L142.74 185.405Z" fill="#9F616A"/>
<path d="M208.778 125.681L231.74 118.155L238.484 108.907L271.302 110.849L276.12 121.642L293.62 129.911L290.93 179.856L286.33 226.598C262.672 214.347 218.519 223.687 218.133 223.839L208.778 125.681Z" fill="#0054A9"/>
<path d="M213.688 193.284L190.332 183.94L190.431 183.524C190.532 183.104 200.472 141.566 201.792 134.89C203.167 127.936 208.19 126.013 208.404 125.935L208.559 125.878L217.802 128.691L221.862 160.587L213.688 193.284Z" fill="#0054A9"/>
<path d="M264.116 224.543C264.663 224.53 265.211 224.56 265.754 224.634L298.233 187.839L294.455 176.532L310.776 168.6L319.41 187.97C320.108 189.535 320.279 191.284 319.898 192.954C319.517 194.624 318.604 196.126 317.297 197.233L274.697 233.328C275.021 235.413 274.704 237.547 273.786 239.446C272.868 241.346 271.394 242.921 269.559 243.962C267.725 245.003 265.617 245.461 263.515 245.275C261.414 245.088 259.419 244.267 257.796 242.919C256.173 241.572 254.999 239.762 254.43 237.731C253.86 235.7 253.923 233.543 254.609 231.548C255.295 229.554 256.572 227.815 258.27 226.563C259.968 225.312 262.007 224.608 264.116 224.543Z" fill="#9F616A"/>
<path d="M295.641 191.42L282.093 159.551L287.377 137.352L293.071 130.159C293.488 129.981 293.937 129.891 294.391 129.895C294.844 129.899 295.292 129.998 295.706 130.184C297.807 131.029 299.593 133.619 301.02 137.882L313.718 174.049L295.641 191.42Z" fill="#0054A9"/>
<path d="M225.348 97.0974V73.071C225.334 68.843 226.153 64.6537 227.758 60.7422C229.363 56.8307 231.723 53.2736 234.702 50.2741C237.682 47.2746 241.223 44.8913 245.124 43.2604C249.025 41.6295 253.209 40.7829 257.437 40.7689C261.665 40.7548 265.854 41.5737 269.765 43.1788C273.677 44.7838 277.234 47.1435 280.233 50.1233C283.233 53.103 285.616 56.6443 287.247 60.5451C288.878 64.4459 289.725 68.6297 289.739 72.8577C289.739 72.9288 289.739 72.9999 289.739 73.071V97.0974C289.737 98.244 289.281 99.3433 288.471 100.154C287.66 100.965 286.561 101.421 285.414 101.422H229.673C228.526 101.421 227.427 100.965 226.616 100.154C225.805 99.3433 225.349 98.244 225.348 97.0974Z" fill="#2F2E41"/>
<path d="M250.927 100.862C263.963 100.862 274.531 90.2943 274.531 77.258C274.531 64.2216 263.963 53.6535 250.927 53.6535C237.89 53.6535 227.322 64.2216 227.322 77.258C227.322 90.2943 237.89 100.862 250.927 100.862Z" fill="#9F616A"/>
<path d="M217.731 74.9931C217.739 68.2409 220.425 61.7674 225.199 56.9928C229.974 52.2182 236.447 49.5326 243.2 49.525H248.005C254.757 49.5326 261.231 52.2183 266.005 56.9928C270.78 61.7674 273.466 68.2409 273.473 74.9931V75.4736H263.318L259.854 65.7734L259.161 75.4736H253.913L252.166 70.58L251.816 75.4736H217.731V74.9931Z" fill="#2F2E41"/>
<path d="M248.604 104.124C248.127 103.479 247.842 102.712 247.782 101.911C247.722 101.111 247.89 100.31 248.265 99.6005C253.357 89.915 260.487 72.0179 251.024 60.9807L250.345 60.1885H277.819V101.437L252.861 105.841C252.608 105.886 252.352 105.908 252.096 105.908C251.415 105.908 250.743 105.747 250.136 105.437C249.529 105.127 249.005 104.677 248.606 104.125L248.604 104.124Z" fill="#2F2E41"/>
<path d="M50.1036 9.42548C47.8255 9.42536 45.5986 10.1008 43.7044 11.3663C41.8102 12.6318 40.3338 14.4306 39.4619 16.5352C38.5901 18.6398 38.3619 20.9557 38.8062 23.19C39.2505 25.4243 40.3474 27.4766 41.9581 29.0875C43.5688 30.6985 45.6211 31.7955 47.8553 32.2401C50.0896 32.6846 52.4055 32.4567 54.5102 31.585C56.6149 30.7133 58.4138 29.2371 59.6795 27.3431C60.9453 25.449 61.6209 23.2221 61.621 20.9441V20.9435C61.621 19.4309 61.3231 17.9332 60.7443 16.5357C60.1654 15.1383 59.317 13.8686 58.2475 12.799C57.1779 11.7295 55.9082 10.8811 54.5107 10.3022C53.1133 9.7234 51.6156 9.42547 50.103 9.42548H50.1036ZM50.1036 12.8806C50.7869 12.8806 51.4549 13.0832 52.0231 13.4629C52.5913 13.8425 53.0342 14.3821 53.2957 15.0134C53.5572 15.6448 53.6256 16.3395 53.4923 17.0097C53.359 17.6799 53.0299 18.2956 52.5467 18.7788C52.0635 19.262 51.4479 19.5911 50.7777 19.7244C50.1074 19.8577 49.4127 19.7893 48.7814 19.5278C48.1501 19.2663 47.6104 18.8234 47.2308 18.2552C46.8511 17.687 46.6485 17.019 46.6485 16.3357C46.6485 15.4193 47.0125 14.5405 47.6605 13.8926C48.3084 13.2446 49.1872 12.8806 50.1036 12.8806ZM50.1036 29.515C48.7385 29.5087 47.3957 29.1696 46.1914 28.5269C44.9871 27.8842 43.9578 26.9574 43.1928 25.8269C43.2483 23.5233 47.8 22.2553 50.1036 22.2553C52.4072 22.2553 56.9589 23.5233 57.0144 25.8269C56.2485 26.9565 55.219 27.8827 54.0149 28.5253C52.8109 29.1679 51.4684 29.5076 50.1036 29.515Z" fill="#0054A9"/>
<path d="M49.9655 104.285C54.7327 95.5499 66.1528 90.0182 75.4948 95.0043C79.6998 97.2483 83.0425 101.218 84.1036 105.91C85.3349 111.36 82.7402 116.557 80.0618 121.135C78.6081 123.621 77.015 126.055 75.8118 128.677C74.566 131.392 73.6755 134.529 74.6135 137.482C75.4579 140.143 77.5751 142.078 79.8937 143.5C82.4526 145.01 85.1744 146.226 88.007 147.124C93.8379 149.063 99.9883 149.858 106.121 149.467C109.168 149.26 112.191 148.771 115.148 148.008C118.295 147.205 121.382 146.189 124.534 145.404C129.796 144.098 135.796 143.448 140.785 146.073C145.633 148.624 147.802 153.959 148.473 159.15C149.712 168.735 145.911 178.681 139.049 185.393C135.757 188.613 131.613 191.273 127.101 192.362C123.164 193.312 118.108 193.251 114.975 190.308C111.478 187.023 112.301 181.756 115.078 178.291C118.622 173.869 124.627 172.807 129.986 172.7C136.082 172.577 142.172 173.485 148.264 172.921C151.237 172.689 154.155 171.986 156.907 170.836C159.327 169.772 161.534 168.279 163.421 166.429C167.182 162.775 169.719 157.908 170.98 152.847C172.499 146.761 172.168 140.365 170.989 134.252C170.361 131.1 169.552 127.987 168.566 124.928C168.159 123.637 166.12 124.189 166.53 125.489C170.161 137 172.185 150.311 165.17 161C162.267 165.532 157.745 168.787 152.525 170.101C146.453 171.61 140.083 170.864 133.91 170.64C128.041 170.426 121.596 170.657 116.565 174.075C112.438 176.878 109.551 182.21 110.799 187.244C112.002 192.099 116.668 194.561 121.334 194.94C126.231 195.339 131.049 193.696 135.161 191.127C143.715 185.782 149.402 176.383 150.593 166.417C151.213 161.224 150.582 155.631 148.227 150.918C146.986 148.366 145.054 146.214 142.651 144.705C140.255 143.236 137.488 142.513 134.708 142.258C128.394 141.676 122.327 143.844 116.337 145.502C113.277 146.39 110.14 146.988 106.969 147.29C103.89 147.545 100.794 147.495 97.7255 147.14C94.6807 146.781 91.68 146.115 88.7691 145.152C85.9166 144.27 83.1855 143.036 80.6392 141.477C78.3928 140.041 76.45 137.984 76.3395 135.18C76.2196 132.14 77.7525 129.297 79.2104 126.734C82.0908 121.672 85.6488 116.72 86.3999 110.794C87.0578 105.609 84.9715 100.5 81.3688 96.8023C79.5633 94.9255 77.3896 93.4417 74.9839 92.4438C72.5783 91.4459 69.9925 90.9555 67.3884 91.0032C62.0432 91.1562 56.9252 93.4804 52.9936 97.0499C51.0436 98.8214 49.4027 100.906 48.1384 103.217C47.4872 104.41 49.3093 105.476 49.9612 104.282L49.9655 104.285Z" fill="#0054A9"/>
</svg>
