<svg width="99" height="100" viewBox="0 0 99 100" fill="none" xmlns="http://www.w3.org/2000/svg">
<rect x="52.4531" y="53.1084" width="0.98349" height="0.98349" fill="#00CCFF"/>
<rect x="52.4531" y="62.0928" width="0.98349" height="0.98349" fill="#00CCFF"/>
<rect x="52.4531" y="71.0771" width="0.98349" height="0.98349" fill="#00CCFF"/>
<rect x="52.4531" y="80.0613" width="0.98349" height="0.98349" fill="#00CCFF"/>
<rect x="52.4531" y="89.0457" width="0.98349" height="0.98349" fill="#00CCFF"/>
<rect x="52.4531" y="98.03" width="0.98349" height="0.98349" fill="#00CCFF"/>
<rect x="88.3896" y="53.1084" width="0.98349" height="0.98349" fill="#00CCFF"/>
<rect x="88.3896" y="62.0928" width="0.98349" height="0.98349" fill="#00CCFF"/>
<rect x="88.3896" y="71.0771" width="0.98349" height="0.98349" fill="#00CCFF"/>
<rect x="88.3896" y="80.0613" width="0.98349" height="0.98349" fill="#00CCFF"/>
<rect x="88.3896" y="89.0457" width="0.98349" height="0.98349" fill="#00CCFF"/>
<rect x="88.3896" y="98.03" width="0.98349" height="0.98349" fill="#00CCFF"/>
<rect x="70.4209" y="53.1084" width="0.98349" height="0.98349" fill="#00CCFF"/>
<rect x="70.4209" y="62.0928" width="0.98349" height="0.98349" fill="#00CCFF"/>
<rect x="70.4209" y="71.0771" width="0.98349" height="0.98349" fill="#00CCFF"/>
<rect x="70.4209" y="80.0613" width="0.98349" height="0.98349" fill="#00CCFF"/>
<rect x="70.4209" y="89.0457" width="0.98349" height="0.98349" fill="#00CCFF"/>
<rect x="70.4209" y="98.03" width="0.98349" height="0.98349" fill="#00CCFF"/>
<rect x="61.4375" y="53.1084" width="0.98349" height="0.98349" fill="#00CCFF"/>
<rect x="61.4375" y="62.0928" width="0.98349" height="0.98349" fill="#00CCFF"/>
<rect x="61.4375" y="71.0771" width="0.98349" height="0.98349" fill="#00CCFF"/>
<rect x="61.4375" y="80.0613" width="0.98349" height="0.98349" fill="#00CCFF"/>
<rect x="61.4375" y="89.0457" width="0.98349" height="0.98349" fill="#00CCFF"/>
<rect x="61.4375" y="98.03" width="0.98349" height="0.98349" fill="#00CCFF"/>
<rect x="97.375" y="53.1084" width="0.98349" height="0.98349" fill="#00CCFF"/>
<rect x="97.375" y="62.0928" width="0.98349" height="0.98349" fill="#00CCFF"/>
<rect x="97.375" y="71.0771" width="0.98349" height="0.98349" fill="#00CCFF"/>
<rect x="97.375" y="80.0613" width="0.98349" height="0.98349" fill="#00CCFF"/>
<rect x="97.375" y="89.0457" width="0.98349" height="0.98349" fill="#00CCFF"/>
<rect x="97.375" y="98.03" width="0.98349" height="0.98349" fill="#00CCFF"/>
<rect x="79.4053" y="53.1084" width="0.98349" height="0.98349" fill="#00CCFF"/>
<rect x="79.4053" y="62.0928" width="0.98349" height="0.98349" fill="#00CCFF"/>
<rect x="79.4053" y="71.0771" width="0.98349" height="0.98349" fill="#00CCFF"/>
<rect x="79.4053" y="80.0613" width="0.98349" height="0.98349" fill="#00CCFF"/>
<rect x="79.4053" y="89.0457" width="0.98349" height="0.98349" fill="#00CCFF"/>
<rect x="79.4053" y="98.03" width="0.98349" height="0.98349" fill="#00CCFF"/>
<rect y="53.1084" width="0.98349" height="0.98349" fill="#00CCFF"/>
<rect y="62.0928" width="0.98349" height="0.98349" fill="#00CCFF"/>
<rect y="71.0771" width="0.98349" height="0.98349" fill="#00CCFF"/>
<rect y="80.0613" width="0.98349" height="0.98349" fill="#00CCFF"/>
<rect y="89.0457" width="0.98349" height="0.98349" fill="#00CCFF"/>
<rect y="98.03" width="0.98349" height="0.98349" fill="#00CCFF"/>
<rect x="35.9365" y="53.1084" width="0.98349" height="0.98349" fill="#00CCFF"/>
<rect x="35.9365" y="62.0928" width="0.98349" height="0.98349" fill="#00CCFF"/>
<rect x="35.9365" y="71.0771" width="0.98349" height="0.98349" fill="#00CCFF"/>
<rect x="35.9365" y="80.0613" width="0.98349" height="0.98349" fill="#00CCFF"/>
<rect x="35.9365" y="89.0457" width="0.98349" height="0.98349" fill="#00CCFF"/>
<rect x="35.9365" y="98.03" width="0.98349" height="0.98349" fill="#00CCFF"/>
<rect x="17.9688" y="53.1084" width="0.98349" height="0.98349" fill="#00CCFF"/>
<rect x="17.9688" y="62.0928" width="0.98349" height="0.98349" fill="#00CCFF"/>
<rect x="17.9688" y="71.0771" width="0.98349" height="0.98349" fill="#00CCFF"/>
<rect x="17.9688" y="80.0613" width="0.98349" height="0.98349" fill="#00CCFF"/>
<rect x="17.9688" y="89.0457" width="0.98349" height="0.98349" fill="#00CCFF"/>
<rect x="17.9688" y="98.03" width="0.98349" height="0.98349" fill="#00CCFF"/>
<rect x="8.98438" y="53.1084" width="0.98349" height="0.98349" fill="#00CCFF"/>
<rect x="8.98438" y="62.0928" width="0.98349" height="0.98349" fill="#00CCFF"/>
<rect x="8.98438" y="71.0771" width="0.98349" height="0.98349" fill="#00CCFF"/>
<rect x="8.98438" y="80.0613" width="0.98349" height="0.98349" fill="#00CCFF"/>
<rect x="8.98438" y="89.0457" width="0.98349" height="0.98349" fill="#00CCFF"/>
<rect x="8.98438" y="98.03" width="0.98349" height="0.98349" fill="#00CCFF"/>
<rect x="44.9219" y="53.1084" width="0.98349" height="0.98349" fill="#00CCFF"/>
<rect x="44.9219" y="62.0928" width="0.98349" height="0.98349" fill="#00CCFF"/>
<rect x="44.9219" y="71.0771" width="0.98349" height="0.98349" fill="#00CCFF"/>
<rect x="44.9219" y="80.0613" width="0.98349" height="0.98349" fill="#00CCFF"/>
<rect x="44.9219" y="89.0457" width="0.98349" height="0.98349" fill="#00CCFF"/>
<rect x="44.9219" y="98.03" width="0.98349" height="0.98349" fill="#00CCFF"/>
<rect x="26.9531" y="53.1084" width="0.98349" height="0.98349" fill="#00CCFF"/>
<rect x="26.9531" y="62.0928" width="0.98349" height="0.98349" fill="#00CCFF"/>
<rect x="26.9531" y="71.0771" width="0.98349" height="0.98349" fill="#00CCFF"/>
<rect x="26.9531" y="80.0613" width="0.98349" height="0.98349" fill="#00CCFF"/>
<rect x="26.9531" y="89.0457" width="0.98349" height="0.98349" fill="#00CCFF"/>
<rect x="26.9531" y="98.03" width="0.98349" height="0.98349" fill="#00CCFF"/>
<rect x="52.4531" width="0.98349" height="0.98349" fill="#00CCFF"/>
<rect x="52.4531" y="8.98431" width="0.98349" height="0.98349" fill="#00CCFF"/>
<rect x="52.4531" y="17.9686" width="0.98349" height="0.98349" fill="#00CCFF"/>
<rect x="52.4531" y="26.9529" width="0.98349" height="0.98349" fill="#00CCFF"/>
<rect x="52.4531" y="35.9372" width="0.98349" height="0.98349" fill="#00CCFF"/>
<rect x="52.4531" y="44.9216" width="0.98349" height="0.98349" fill="#00CCFF"/>
<rect x="88.3896" width="0.98349" height="0.98349" fill="#00CCFF"/>
<rect x="88.3896" y="8.98431" width="0.98349" height="0.98349" fill="#00CCFF"/>
<rect x="88.3896" y="17.9686" width="0.98349" height="0.98349" fill="#00CCFF"/>
<rect x="88.3896" y="26.9529" width="0.98349" height="0.98349" fill="#00CCFF"/>
<rect x="88.3896" y="35.9372" width="0.98349" height="0.98349" fill="#00CCFF"/>
<rect x="88.3896" y="44.9216" width="0.98349" height="0.98349" fill="#00CCFF"/>
<rect x="70.4209" width="0.98349" height="0.98349" fill="#00CCFF"/>
<rect x="70.4209" y="8.98431" width="0.98349" height="0.98349" fill="#00CCFF"/>
<rect x="70.4209" y="17.9686" width="0.98349" height="0.98349" fill="#00CCFF"/>
<rect x="70.4209" y="26.9529" width="0.98349" height="0.98349" fill="#00CCFF"/>
<rect x="70.4209" y="35.9372" width="0.98349" height="0.98349" fill="#00CCFF"/>
<rect x="70.4209" y="44.9216" width="0.98349" height="0.98349" fill="#00CCFF"/>
<rect x="61.4375" width="0.98349" height="0.98349" fill="#00CCFF"/>
<rect x="61.4375" y="8.98431" width="0.98349" height="0.98349" fill="#00CCFF"/>
<rect x="61.4375" y="17.9686" width="0.98349" height="0.98349" fill="#00CCFF"/>
<rect x="61.4375" y="26.9529" width="0.98349" height="0.98349" fill="#00CCFF"/>
<rect x="61.4375" y="35.9372" width="0.98349" height="0.98349" fill="#00CCFF"/>
<rect x="61.4375" y="44.9216" width="0.98349" height="0.98349" fill="#00CCFF"/>
<rect x="97.375" width="0.98349" height="0.98349" fill="#00CCFF"/>
<rect x="97.375" y="8.98431" width="0.98349" height="0.98349" fill="#00CCFF"/>
<rect x="97.375" y="17.9686" width="0.98349" height="0.98349" fill="#00CCFF"/>
<rect x="97.375" y="26.9529" width="0.98349" height="0.98349" fill="#00CCFF"/>
<rect x="97.375" y="35.9372" width="0.98349" height="0.98349" fill="#00CCFF"/>
<rect x="97.375" y="44.9216" width="0.98349" height="0.98349" fill="#00CCFF"/>
<rect x="79.4053" width="0.98349" height="0.98349" fill="#00CCFF"/>
<rect x="79.4053" y="8.98431" width="0.98349" height="0.98349" fill="#00CCFF"/>
<rect x="79.4053" y="17.9686" width="0.98349" height="0.98349" fill="#00CCFF"/>
<rect x="79.4053" y="26.9529" width="0.98349" height="0.98349" fill="#00CCFF"/>
<rect x="79.4053" y="35.9372" width="0.98349" height="0.98349" fill="#00CCFF"/>
<rect x="79.4053" y="44.9216" width="0.98349" height="0.98349" fill="#00CCFF"/>
<rect width="0.98349" height="0.98349" fill="#00CCFF"/>
<rect y="8.98431" width="0.98349" height="0.98349" fill="#00CCFF"/>
<rect y="17.9686" width="0.98349" height="0.98349" fill="#00CCFF"/>
<rect y="26.9529" width="0.98349" height="0.98349" fill="#00CCFF"/>
<rect y="35.9372" width="0.98349" height="0.98349" fill="#00CCFF"/>
<rect y="44.9216" width="0.98349" height="0.98349" fill="#00CCFF"/>
<rect x="35.9365" width="0.98349" height="0.98349" fill="#00CCFF"/>
<rect x="35.9365" y="8.98431" width="0.98349" height="0.98349" fill="#00CCFF"/>
<rect x="35.9365" y="17.9686" width="0.98349" height="0.98349" fill="#00CCFF"/>
<rect x="35.9365" y="26.9529" width="0.98349" height="0.98349" fill="#00CCFF"/>
<rect x="35.9365" y="35.9372" width="0.98349" height="0.98349" fill="#00CCFF"/>
<rect x="35.9365" y="44.9216" width="0.98349" height="0.98349" fill="#00CCFF"/>
<rect x="17.9688" width="0.98349" height="0.98349" fill="#00CCFF"/>
<rect x="17.9688" y="8.98431" width="0.98349" height="0.98349" fill="#00CCFF"/>
<rect x="17.9688" y="17.9686" width="0.98349" height="0.98349" fill="#00CCFF"/>
<rect x="17.9688" y="26.9529" width="0.98349" height="0.98349" fill="#00CCFF"/>
<rect x="17.9688" y="35.9372" width="0.98349" height="0.98349" fill="#00CCFF"/>
<rect x="17.9688" y="44.9216" width="0.98349" height="0.98349" fill="#00CCFF"/>
<rect x="8.98438" width="0.98349" height="0.98349" fill="#00CCFF"/>
<rect x="8.98438" y="8.98431" width="0.98349" height="0.98349" fill="#00CCFF"/>
<rect x="8.98438" y="17.9686" width="0.98349" height="0.98349" fill="#00CCFF"/>
<rect x="8.98438" y="26.9529" width="0.98349" height="0.98349" fill="#00CCFF"/>
<rect x="8.98438" y="35.9372" width="0.98349" height="0.98349" fill="#00CCFF"/>
<rect x="8.98438" y="44.9216" width="0.98349" height="0.98349" fill="#00CCFF"/>
<rect x="44.9219" width="0.98349" height="0.98349" fill="#00CCFF"/>
<rect x="44.9219" y="8.98431" width="0.98349" height="0.98349" fill="#00CCFF"/>
<rect x="44.9219" y="17.9686" width="0.98349" height="0.98349" fill="#00CCFF"/>
<rect x="44.9219" y="26.9529" width="0.98349" height="0.98349" fill="#00CCFF"/>
<rect x="44.9219" y="35.9372" width="0.98349" height="0.98349" fill="#00CCFF"/>
<rect x="44.9219" y="44.9216" width="0.98349" height="0.98349" fill="#00CCFF"/>
<rect x="26.9531" width="0.98349" height="0.98349" fill="#00CCFF"/>
<rect x="26.9531" y="8.98431" width="0.98349" height="0.98349" fill="#00CCFF"/>
<rect x="26.9531" y="17.9686" width="0.98349" height="0.98349" fill="#00CCFF"/>
<rect x="26.9531" y="26.9529" width="0.98349" height="0.98349" fill="#00CCFF"/>
<rect x="26.9531" y="35.9372" width="0.98349" height="0.98349" fill="#00CCFF"/>
<rect x="26.9531" y="44.9216" width="0.98349" height="0.98349" fill="#00CCFF"/>
</svg>
