<svg width="276" height="240" viewBox="0 0 276 240" fill="none" xmlns="http://www.w3.org/2000/svg">
<path d="M276 187.661C275.941 189.159 274.471 220.069 254.313 236.959C253.47 237.665 252.594 238.345 251.685 239L251 238.31H251.398C251.868 238.31 252.319 238.118 252.651 237.775C252.984 237.433 253.171 236.968 253.171 236.484V175.556C253.592 173.219 253.99 170.922 254.353 168.686C256.318 156.532 257.228 146.265 255.755 142C256.393 143.648 269.204 177.346 262.247 211.681C269.137 201.962 275.677 191.76 276 187.661Z" fill="white"/>
<path d="M249.993 4H3.00648C2.20941 4.00097 1.44527 4.31952 0.881652 4.88575C0.318036 5.45199 0.000969829 6.21969 0 7.02047V236.98C0.000293344 237.781 0.317134 238.549 0.880896 239.115C1.44466 239.681 2.2092 240 3.00648 240H249.993C250.709 240.001 251.402 239.744 251.946 239.276C252.49 238.809 252.85 238.161 252.96 237.451C252.987 237.295 253.001 237.137 253 236.98V7.02048C252.999 6.2197 252.682 5.45199 252.118 4.88575C251.555 4.31952 250.791 4.00097 249.993 4ZM251.797 236.98C251.797 237.46 251.607 237.921 251.269 238.261C250.931 238.601 250.472 238.792 249.993 238.792H3.00648C2.52807 238.792 2.06927 238.601 1.73098 238.261C1.39269 237.921 1.20263 237.46 1.20259 236.98V7.02048C1.2033 6.54005 1.39359 6.07951 1.73173 5.73979C2.06988 5.40008 2.52828 5.20891 3.00648 5.20819H249.993C250.472 5.20891 250.93 5.40008 251.268 5.73979C251.606 6.07951 251.797 6.54005 251.797 7.02048V236.98Z" fill="#E6E6E6"/>
<path d="M134.921 26C134.413 26 134 26.8799 134 27.9615V109.038C134 110.12 134.413 111 134.921 111H223.078C223.587 111 224 110.12 224 109.038V27.9615C224 26.8799 223.587 26 223.078 26H134.921Z" fill="#E6E6E6"/>
<path d="M31.4203 26.0002C31.0414 26.0069 30.6802 26.1678 30.4145 26.4483C30.1489 26.7289 30 27.1065 30 27.4999C30 27.8933 30.1489 28.271 30.4145 28.5515C30.6802 28.8321 31.0414 28.993 31.4203 28.9997H99.5254C99.7156 29.0038 99.9047 28.9688 100.082 28.8968C100.259 28.8248 100.421 28.7172 100.558 28.5802C100.695 28.4431 100.804 28.2793 100.88 28.0982C100.956 27.9171 100.997 27.7222 101 27.5247C101.003 27.3272 100.968 27.131 100.898 26.9474C100.828 26.7638 100.724 26.5963 100.591 26.4547C100.459 26.313 100.3 26.2 100.126 26.122C99.9509 26.044 99.763 26.0026 99.5728 26.0002C99.557 25.9999 99.5412 25.9999 99.5254 26.0002H31.4203Z" fill="#E6E6E6"/>
<path d="M31.4203 40.0002C31.0414 40.0069 30.6802 40.1678 30.4145 40.4483C30.1489 40.7289 30 41.1065 30 41.4999C30 41.8933 30.1489 42.271 30.4145 42.5515C30.6802 42.8321 31.0414 42.993 31.4203 42.9997H99.5254C99.7156 43.0038 99.9047 42.9688 100.082 42.8968C100.259 42.8248 100.421 42.7172 100.558 42.5802C100.695 42.4431 100.804 42.2793 100.88 42.0982C100.956 41.9171 100.997 41.7222 101 41.5247C101.003 41.3272 100.968 41.131 100.898 40.9474C100.828 40.7638 100.724 40.5963 100.591 40.4547C100.459 40.313 100.3 40.2 100.126 40.122C99.9509 40.044 99.763 40.0026 99.5728 40.0002C99.557 39.9999 99.5412 39.9999 99.5254 40.0002H31.4203Z" fill="#E6E6E6"/>
<path d="M31.4203 53.0002C31.0414 53.0069 30.6802 53.1678 30.4145 53.4483C30.1489 53.7289 30 54.1065 30 54.4999C30 54.8933 30.1489 55.271 30.4145 55.5515C30.6802 55.8321 31.0414 55.993 31.4203 55.9997H99.5254C99.7156 56.0038 99.9047 55.9688 100.082 55.8968C100.259 55.8248 100.421 55.7172 100.558 55.5802C100.695 55.4431 100.804 55.2793 100.88 55.0982C100.956 54.9171 100.997 54.7222 101 54.5247C101.003 54.3272 100.968 54.131 100.898 53.9474C100.828 53.7638 100.724 53.5963 100.591 53.4547C100.459 53.313 100.3 53.2 100.126 53.122C99.9509 53.044 99.763 53.0026 99.5728 53.0002C99.557 52.9999 99.5412 52.9999 99.5254 53.0002H31.4203Z" fill="#E6E6E6"/>
<path d="M31.4206 67.0002C31.0417 67.0068 30.6804 67.1678 30.4146 67.4483C30.1489 67.7289 30 68.1066 30 68.5C30 68.8935 30.1489 69.2712 30.4146 69.5517C30.6804 69.8323 31.0417 69.9932 31.4206 69.9999H99.5369C99.9192 70.0048 100.288 69.8524 100.562 69.5759C100.836 69.2994 100.994 68.9213 101 68.5246C101.006 68.1278 100.861 67.7446 100.595 67.4589C100.33 67.1732 99.9666 67.0083 99.5844 67.0002C99.5686 66.9999 99.5527 66.9999 99.5369 67.0002H31.4206Z" fill="#E6E6E6"/>
<path d="M31.4206 80.0003C31.0417 80.0091 30.6804 80.2237 30.4146 80.5978C30.1489 80.9718 30 81.4754 30 82.0001C30 82.5247 30.1489 83.0283 30.4146 83.4023C30.6804 83.7764 31.0417 83.991 31.4206 83.9998H99.5369C99.9192 84.0065 100.288 83.8032 100.562 83.4345C100.836 83.0658 100.994 82.5618 101 82.0328C101.006 81.5037 100.861 80.9928 100.595 80.6119C100.33 80.231 99.9666 80.011 99.5844 80.0003C99.5686 79.9999 99.5527 79.9999 99.5369 80.0003H31.4206Z" fill="#E6E6E6"/>
<path d="M31.4203 94.0002C31.0414 94.0069 30.6802 94.1678 30.4145 94.4483C30.1489 94.7289 30 95.1065 30 95.4999C30 95.8933 30.1489 96.271 30.4145 96.5515C30.6802 96.8321 31.0414 96.993 31.4203 96.9997H99.5254C99.7156 97.0038 99.9047 96.9688 100.082 96.8968C100.259 96.8248 100.421 96.7172 100.558 96.5802C100.695 96.4431 100.804 96.2793 100.88 96.0982C100.956 95.9171 100.997 95.7222 101 95.5247C101.003 95.3272 100.968 95.131 100.898 94.9474C100.828 94.7638 100.724 94.5963 100.591 94.4547C100.459 94.313 100.3 94.2 100.126 94.122C99.9509 94.044 99.763 94.0026 99.5728 94.0002C99.557 93.9999 99.5412 93.9999 99.5254 94.0002H31.4203Z" fill="#E6E6E6"/>
<path d="M31.4203 108C31.0414 108.007 30.6802 108.168 30.4145 108.448C30.1489 108.729 30 109.107 30 109.5C30 109.893 30.1489 110.271 30.4145 110.552C30.6802 110.832 31.0414 110.993 31.4203 111H99.5254C99.7156 111.004 99.9047 110.969 100.082 110.897C100.259 110.825 100.421 110.717 100.558 110.58C100.695 110.443 100.804 110.279 100.88 110.098C100.956 109.917 100.997 109.722 101 109.525C101.003 109.327 100.968 109.131 100.898 108.947C100.828 108.764 100.724 108.596 100.591 108.455C100.459 108.313 100.3 108.2 100.126 108.122C99.9509 108.044 99.763 108.003 99.5728 108C99.557 108 99.5412 108 99.5254 108H31.4203Z" fill="#E6E6E6"/>
<path d="M31.7713 137C30.7768 137.009 29.9839 137.464 30.0002 138.016C30.0162 138.556 30.7999 138.991 31.7713 139H222.17C223.164 139.009 223.983 138.569 224 138.016C224.016 137.464 223.223 137.009 222.229 137C222.209 137 222.189 137 222.17 137H31.7713Z" fill="#E6E6E6"/>
<path d="M31.7713 150C30.7768 150.014 29.9839 150.696 30.0002 151.525C30.0162 152.334 30.7999 152.987 31.7713 153H222.17C223.164 153.013 223.983 152.353 224 151.525C224.016 150.696 223.223 150.014 222.229 150C222.209 150 222.189 150 222.17 150H31.7713Z" fill="#E6E6E6"/>
<path d="M31.7713 162C30.7768 162.014 29.9839 162.696 30.0002 163.525C30.0162 164.334 30.7999 164.987 31.7713 165H222.17C223.164 165.013 223.983 164.353 224 163.525C224.016 162.696 223.223 162.014 222.229 162C222.209 162 222.189 162 222.17 162H31.7713Z" fill="#E6E6E6"/>
<path d="M31.7713 175C30.7768 175.014 29.9839 175.696 30.0002 176.525C30.0162 177.334 30.7999 177.987 31.7713 178H222.17C223.164 178.013 223.983 177.353 224 176.525C224.016 175.696 223.223 175.014 222.229 175C222.209 175 222.189 175 222.17 175H31.7713Z" fill="#E6E6E6"/>
<path d="M31.7713 189C30.7768 189.014 29.9839 189.696 30.0002 190.525C30.0162 191.334 30.7999 191.987 31.7713 192H222.17C223.164 192.013 223.983 191.353 224 190.525C224.016 189.696 223.223 189.014 222.229 189C222.209 189 222.189 189 222.17 189H31.7713Z" fill="#E6E6E6"/>
<path d="M31.7713 201C30.7768 201.014 29.9839 201.696 30.0002 202.525C30.0162 203.334 30.7999 203.987 31.7713 204H222.17C223.164 204.013 223.983 203.353 224 202.525C224.016 201.696 223.223 201.014 222.229 201C222.209 201 222.189 201 222.17 201H31.7713Z" fill="#E6E6E6"/>
<path d="M31.7713 214C30.7768 214.014 29.9839 214.696 30.0002 215.525C30.0162 216.334 30.7999 216.987 31.7713 217H222.17C223.164 217.013 223.983 216.353 224 215.525C224.016 214.696 223.223 214.014 222.229 214C222.209 214 222.189 214 222.17 214H31.7713Z" fill="#E6E6E6"/>
<path d="M82.2938 58C82.173 58.0008 82.0532 57.9771 81.9424 57.9302C81.7894 57.8673 81.6588 57.7621 81.5669 57.6277C81.4749 57.4932 81.4257 57.3354 81.4254 57.174L81 1.17391C80.998 0.953234 81.0862 0.740801 81.2452 0.583225C81.4041 0.425649 81.6209 0.335796 81.8479 0.333384L116.71 3.1886e-05C116.937 -0.00189736 117.155 0.0837889 117.318 0.238295C117.48 0.392802 117.572 0.603508 117.575 0.824181L118 56.8242C118.002 56.9853 117.955 57.1435 117.866 57.2794C117.777 57.4153 117.649 57.5233 117.499 57.59C117.348 57.6568 117.18 57.6797 117.016 57.6557C116.852 57.6317 116.699 57.5621 116.575 57.4551H116.575L99.7622 42.951C99.7094 42.905 99.6408 42.8799 99.5699 42.8805C99.4989 42.8812 99.4309 42.9077 99.379 42.9547L82.8626 57.7775C82.7082 57.9181 82.5053 57.9974 82.2938 58Z" fill="white"/>
<path d="M105.256 19.6421L100.157 19.7644L100.034 14.6647C100.03 14.4411 99.9808 14.2205 99.8907 14.0157C99.8006 13.8109 99.671 13.6259 99.5093 13.4713C99.3475 13.3167 99.1569 13.1955 98.9482 13.1147C98.7396 13.034 98.5171 12.9951 98.2934 13.0005C98.0697 13.0059 97.8493 13.0553 97.6448 13.146C97.4403 13.2367 97.2557 13.3669 97.1016 13.5291C96.9475 13.6913 96.8269 13.8823 96.7467 14.0911C96.6665 14.3 96.6284 14.5227 96.6344 14.7463L96.7568 19.846L91.6571 19.9684C91.2067 19.9798 90.7793 20.1696 90.4687 20.4959C90.1581 20.8223 89.9897 21.2586 90.0005 21.709C90.0113 22.1594 90.2004 22.5871 90.5263 22.8982C90.8522 23.2093 91.2882 23.3783 91.7387 23.3681L96.8383 23.2458L96.9607 28.3455C96.9729 28.7954 97.1629 29.2222 97.4892 29.5322C97.8154 29.8423 98.2513 30.0103 98.7013 29.9995C99.1513 29.9887 99.5786 29.8 99.8896 29.4746C100.201 29.1493 100.37 28.7139 100.361 28.2639L100.238 23.1642L105.338 23.0419C105.561 23.0368 105.782 22.9878 105.986 22.8976C106.191 22.8073 106.375 22.6777 106.53 22.516C106.684 22.3543 106.805 22.1638 106.885 21.9553C106.966 21.7469 107.005 21.5246 107 21.3011C106.994 21.0777 106.945 20.8575 106.854 20.6531C106.764 20.4488 106.634 20.2643 106.472 20.1102C106.31 19.9561 106.119 19.8354 105.911 19.7551C105.702 19.6748 105.48 19.6364 105.256 19.6421Z" fill="#0054A9"/>
</svg>
