<svg width="305" height="255" viewBox="0 0 305 255" fill="none" xmlns="http://www.w3.org/2000/svg">
<g opacity="0.7">
<path opacity="0.7" d="M192.719 114.429C192.746 106.397 190.822 98.4783 187.115 91.3529C185.354 88.0068 183.749 85.9266 182.499 84.6508C182.028 84.1511 181.413 83.811 180.739 83.678C180.065 83.5451 179.367 83.6258 178.741 83.909C178.241 84.0855 177.79 84.3768 177.423 84.7596C175.751 86.4903 174.241 88.7782 172.923 91.2144C169.022 98.5063 166.997 106.654 167.032 114.924V119.889H163.847V62.1973C163.847 50.1051 161.14 38.1745 155.839 27.5824C153.327 22.5682 151.036 19.4528 149.272 17.5375C148.845 17.0506 148.319 16.6604 147.729 16.3932C147.139 16.1259 146.498 15.9877 145.851 15.9877C145.203 15.9877 144.562 16.1259 143.972 16.3932C143.382 16.6604 142.856 17.0506 142.429 17.5375C140.042 20.1319 137.889 23.5605 136.007 27.2066C130.432 38.0163 127.6 50.2831 127.6 62.7346V119.889H124.848V114.687C124.882 106.417 122.857 98.269 118.956 90.9771C117.638 88.5441 116.128 86.2563 114.456 84.5222C113.975 84.0155 113.346 83.6747 112.658 83.5491C111.971 83.4235 111.262 83.5195 110.632 83.8233L110.748 83.886C110.344 84.0644 109.979 84.3197 109.673 84.6376C108.437 85.9134 106.831 87.9936 105.058 91.3397C101.35 98.4652 99.4269 106.384 99.4534 114.416V200.67H109.277L108.206 207.761V228.962H116.237V207.761L115.165 200.67H124.848V122.121H127.6V200.317H135.446L134.319 207.758V228.962H142.353V207.761L141.225 200.321H151.798L150.67 207.761V228.962H158.704V207.761L157.577 200.321H163.84V122.121H167.025V200.789H169.606V200.67H178.141L177.07 207.761V228.962H185.104V207.761L184.032 200.67H192.719V114.429Z" fill="url(#paint0_linear_1212_230)"/>
</g>
<path d="M117.836 203.627H110.23L111.589 194.393H116.478L117.836 203.627Z" fill="#0054A9"/>
<g opacity="0.1">
<path opacity="0.1" d="M111.21 198.059H116.857L116.478 195.478H111.589L111.21 198.059Z" fill="black"/>
</g>
<path d="M183.03 203.627H175.425L176.783 194.393H181.672L183.03 203.627Z" fill="#0054A9"/>
<g opacity="0.1">
<path opacity="0.1" d="M176.404 198.059H182.051L181.672 195.478H176.783L176.404 198.059Z" fill="black"/>
</g>
<path d="M142.558 203.627H134.949L136.307 194.393H141.2L142.558 203.627Z" fill="#0054A9"/>
<g opacity="0.1">
<path opacity="0.1" d="M135.929 198.059H141.579L141.2 195.478H136.308L135.929 198.059Z" fill="black"/>
</g>
<path d="M158.038 203.627H150.433L151.791 194.393H156.68L158.038 203.627Z" fill="#0054A9"/>
<g opacity="0.1">
<path opacity="0.1" d="M151.411 198.059H157.062L156.679 195.478H151.79L151.411 198.059Z" fill="black"/>
</g>
<path d="M172.164 118.059H117.835V120.232H172.164V118.059Z" fill="#0054A9"/>
<path d="M180.564 83.7311C180.277 83.4141 179.927 83.1609 179.536 82.9875C179.145 82.8142 178.722 82.7246 178.295 82.7246C177.867 82.7246 177.444 82.8142 177.053 82.9875C176.662 83.1609 176.312 83.4141 176.025 83.7311C174.442 85.4157 173.015 87.6442 171.766 90.0145C168.068 97.1426 166.155 105.061 166.191 113.091V196.724H190.233V112.745C190.264 104.935 188.444 97.2294 184.922 90.2584C183.254 87.0013 181.735 84.9739 180.564 83.7311Z" fill="#E0E0E0"/>
<path d="M111.621 83.7311C111.908 83.4141 112.259 83.1609 112.65 82.9875C113.041 82.8142 113.463 82.7246 113.891 82.7246C114.319 82.7246 114.742 82.8142 115.133 82.9875C115.523 83.1609 115.874 83.4141 116.161 83.7311C117.743 85.4157 119.171 87.6442 120.42 90.0145C124.117 97.1426 126.03 105.061 125.995 113.091V196.724H101.946V112.745C101.915 104.935 103.735 97.2294 107.257 90.2584C108.921 87.0013 110.441 84.9739 111.621 83.7311Z" fill="#E0E0E0"/>
<path d="M102.081 114.528L107.784 114.555V121.59H102.081V114.528Z" fill="#0054A9"/>
<path d="M120.282 114.528L125.985 114.555V121.59H120.282V114.528Z" fill="#0054A9"/>
<path d="M166.188 114.528L171.895 114.555V121.59H166.188V114.528Z" fill="#0054A9"/>
<path d="M184.388 114.528L190.094 114.555V121.59H184.388V114.528Z" fill="#0054A9"/>
<g opacity="0.1">
<path opacity="0.1" d="M120.411 89.9059C119.165 87.5356 117.734 85.307 116.152 83.6224C115.705 83.1286 115.108 82.7945 114.453 82.6713C113.799 82.5481 113.121 82.6425 112.525 82.94C112.869 83.1114 113.179 83.3425 113.442 83.6224C115.024 85.307 116.452 87.5356 117.701 89.9059C121.398 97.034 123.311 104.953 123.276 112.982V196.609H125.992V112.992C126.027 104.959 124.112 97.0363 120.411 89.9059Z" fill="#0054A9"/>
</g>
<g opacity="0.1">
<path opacity="0.1" d="M173.928 90.1365C175.174 87.7662 176.605 85.5376 178.187 83.853C178.484 83.5342 178.841 83.2785 179.239 83.1014C178.651 82.844 177.998 82.7782 177.37 82.9131C176.743 83.048 176.174 83.3768 175.745 83.853C174.162 85.5376 172.735 87.7662 171.485 90.1365C167.788 97.2646 165.875 105.183 165.911 113.213V196.839H168.357V113.226C168.318 105.192 170.23 97.2688 173.928 90.1365Z" fill="black"/>
</g>
<path d="M117.836 203.627H110.23V224.271H117.836V203.627Z" fill="url(#paint1_linear_1212_230)"/>
<path d="M142.555 203.627H134.949V224.271H142.555V203.627Z" fill="url(#paint2_linear_1212_230)"/>
<path d="M158.038 203.627H150.433V224.271H158.038V203.627Z" fill="url(#paint3_linear_1212_230)"/>
<path d="M183.03 203.627H175.425V224.271H183.03V203.627Z" fill="url(#paint4_linear_1212_230)"/>
<path d="M149.104 18.1606C148.707 17.6883 148.211 17.3087 147.651 17.0482C147.092 16.7878 146.482 16.6528 145.865 16.6528C145.248 16.6528 144.638 16.7878 144.079 17.0482C143.519 17.3087 143.023 17.6883 142.626 18.1606C140.368 20.6858 138.34 24.0253 136.547 27.5791C131.272 38.1086 128.589 50.059 128.589 62.1775V196.381H162.904V61.6369C162.904 49.8612 160.342 38.2306 155.321 27.9417C152.945 23.0594 150.775 20.0265 149.104 18.1606Z" fill="#EEEEEE"/>
<path d="M150.835 33.0681H140.184C138.181 33.0681 136.558 34.6917 136.558 36.6944V37.6472C136.558 39.6499 138.181 41.2735 140.184 41.2735H150.835C152.838 41.2735 154.462 39.6499 154.462 37.6472V36.6944C154.462 34.6917 152.838 33.0681 150.835 33.0681Z" fill="#0054A9"/>
<g opacity="0.7">
<path opacity="0.7" d="M225.687 222.016C224.561 215.227 220.917 209.111 215.484 204.888C210.05 200.665 203.224 198.645 196.367 199.23C189.51 199.815 183.125 202.962 178.485 208.045C173.845 213.128 171.291 219.772 171.331 226.654C171.331 226.789 171.331 226.921 171.331 227.056C170.319 227.21 169.317 227.424 168.331 227.699C167.069 222.67 164.273 218.158 160.333 214.788C156.392 211.417 151.501 209.356 146.337 208.888C141.172 208.421 135.991 209.57 131.509 212.178C127.027 214.786 123.467 218.723 121.321 223.443C119.11 222.59 116.787 222.059 114.424 221.867C114.048 219.728 113.416 217.642 112.542 215.653C112.132 209.378 109.371 203.489 104.811 199.16C100.25 194.83 94.225 192.38 87.9373 192.296C81.6497 192.213 75.5618 194.504 70.8882 198.711C66.2146 202.918 63.299 208.732 62.723 214.994C61.4286 217.735 60.6018 220.673 60.2769 223.687C54.5544 226.068 49.9195 230.489 47.2707 236.092C44.6218 241.696 44.1475 248.083 45.9398 254.016H246.238C247.282 250.556 247.563 246.91 247.063 243.33C246.562 239.75 245.291 236.321 243.338 233.279C241.385 230.238 238.795 227.656 235.748 225.711C232.701 223.767 229.268 222.506 225.687 222.016Z" fill="url(#paint5_linear_1212_230)"/>
</g>
<path d="M89.9031 241.532C103.163 241.532 113.913 230.783 113.913 217.523C113.913 204.262 103.163 193.513 89.9031 193.513C76.643 193.513 65.8936 204.262 65.8936 217.523C65.8936 230.783 76.643 241.532 89.9031 241.532Z" fill="url(#paint6_linear_1212_230)"/>
<path d="M89.784 252.817C104.304 252.817 116.075 241.046 116.075 226.526C116.075 212.006 104.304 200.235 89.784 200.235C75.264 200.235 63.4932 212.006 63.4932 226.526C63.4932 241.046 75.264 252.817 89.784 252.817Z" fill="url(#paint7_linear_1212_230)"/>
<path d="M196.629 252.817C211.149 252.817 222.92 241.046 222.92 226.526C222.92 212.006 211.149 200.235 196.629 200.235C182.109 200.235 170.338 212.006 170.338 226.526C170.338 241.046 182.109 252.817 196.629 252.817Z" fill="url(#paint8_linear_1212_230)"/>
<path d="M195.307 252.817C208.568 252.817 219.317 242.067 219.317 228.807C219.317 215.547 208.568 204.797 195.307 204.797C182.047 204.797 171.298 215.547 171.298 228.807C171.298 242.067 182.047 252.817 195.307 252.817Z" fill="url(#paint9_linear_1212_230)"/>
<path d="M168.175 233.37C168.179 237.166 167.281 240.91 165.554 244.291C163.828 247.673 161.323 250.596 158.245 252.82H130.082C126.749 250.411 124.09 247.186 122.36 243.454C120.63 239.723 119.888 235.609 120.204 231.509C120.52 227.408 121.883 223.457 124.164 220.034C126.444 216.611 129.566 213.832 133.229 211.961C136.892 210.091 140.974 209.192 145.083 209.352C149.193 209.511 153.193 210.723 156.7 212.872C160.207 215.02 163.104 218.034 165.113 221.623C167.121 225.212 168.175 229.257 168.172 233.37H168.175Z" fill="url(#paint10_linear_1212_230)"/>
<path d="M197.951 250.657C197.951 251.376 197.919 252.087 197.855 252.79C197.858 252.8 197.858 252.81 197.855 252.82H150.028C149.962 252.108 149.929 251.386 149.929 250.661C149.925 244.915 151.983 239.359 155.729 235.003C159.475 230.647 164.66 227.781 170.342 226.925C171.529 226.746 172.728 226.656 173.928 226.654C174.542 226.654 175.151 226.677 175.755 226.72C180.058 227.049 184.193 228.531 187.726 231.011C191.259 233.49 194.059 236.875 195.831 240.81C195.93 241.028 196.026 241.249 196.115 241.469C197.327 244.381 197.951 247.503 197.951 250.657Z" fill="url(#paint11_linear_1212_230)"/>
<path d="M243.329 245.854C243.332 248.213 242.985 250.559 242.301 252.817H196.345C195.234 249.125 195.023 245.22 195.729 241.43C195.768 241.222 195.808 241.011 195.854 240.807C197.011 235.439 199.972 230.63 204.244 227.18C208.516 223.73 213.842 221.848 219.333 221.848C220.088 221.848 220.83 221.881 221.565 221.953C221.894 221.98 222.224 222.019 222.554 222.062C228.308 222.845 233.584 225.687 237.404 230.061C241.224 234.436 243.329 240.046 243.329 245.854Z" fill="url(#paint12_linear_1212_230)"/>
<path d="M95.8405 252.82C95.9196 252.569 95.9889 252.319 96.0581 252.065C97.1511 247.977 97.1451 243.673 96.0407 239.588C94.9363 235.504 92.7727 231.783 89.7688 228.803C86.7649 225.823 83.0271 223.689 78.9337 222.617C74.8403 221.545 70.5364 221.573 66.4574 222.698C65.5023 222.96 64.5652 223.284 63.652 223.668C58.1533 225.955 53.6999 230.203 51.1551 235.587C48.6103 240.972 48.1554 247.109 49.8785 252.81H95.8405V252.82Z" fill="url(#paint13_linear_1212_230)"/>
<g opacity="0.7">
<path opacity="0.7" d="M234.205 203.439C236.638 203.439 238.609 201.467 238.609 199.035C238.609 196.603 236.638 194.631 234.205 194.631C231.773 194.631 229.801 196.603 229.801 199.035C229.801 201.467 231.773 203.439 234.205 203.439Z" fill="url(#paint14_linear_1212_230)"/>
</g>
<path d="M234.203 203.116C236.457 203.116 238.285 201.289 238.285 199.035C238.285 196.781 236.457 194.954 234.203 194.954C231.949 194.954 230.122 196.781 230.122 199.035C230.122 201.289 231.949 203.116 234.203 203.116Z" fill="url(#paint15_linear_1212_230)"/>
<g opacity="0.7">
<path opacity="0.7" d="M254.374 246.335C257.026 246.335 259.177 244.185 259.177 241.532C259.177 238.879 257.026 236.729 254.374 236.729C251.721 236.729 249.57 238.879 249.57 241.532C249.57 244.185 251.721 246.335 254.374 246.335Z" fill="url(#paint16_linear_1212_230)"/>
</g>
<path d="M254.373 246.095C256.893 246.095 258.936 244.052 258.936 241.532C258.936 239.012 256.893 236.969 254.373 236.969C251.853 236.969 249.811 239.012 249.811 241.532C249.811 244.052 251.853 246.095 254.373 246.095Z" fill="url(#paint17_linear_1212_230)"/>
<g opacity="0.7">
<path opacity="0.7" d="M48.8463 219.438C51.7612 219.438 54.1242 217.075 54.1242 214.16C54.1242 211.245 51.7612 208.882 48.8463 208.882C45.9314 208.882 43.5684 211.245 43.5684 214.16C43.5684 217.075 45.9314 219.438 48.8463 219.438Z" fill="url(#paint18_linear_1212_230)"/>
</g>
<path d="M48.8472 219.201C51.6311 219.201 53.8878 216.944 53.8878 214.16C53.8878 211.376 51.6311 209.119 48.8472 209.119C46.0634 209.119 43.8066 211.376 43.8066 214.16C43.8066 216.944 46.0634 219.201 48.8472 219.201Z" fill="url(#paint19_linear_1212_230)"/>
<g opacity="0.4">
<path opacity="0.4" d="M247.685 5.9168C246.515 4.37087 245.049 3.07316 243.373 2.09927C241.45 0.994143 239.298 0.345616 237.085 0.203729C234.871 0.0618427 232.655 0.430392 230.606 1.28093C228.558 2.13148 226.732 3.44128 225.27 5.10926C223.808 6.77725 222.749 8.75883 222.174 10.9011C221.599 13.0433 221.525 15.289 221.955 17.4648C222.386 19.6406 223.311 21.6884 224.659 23.45C226.006 25.2117 227.741 26.6403 229.728 27.6254C231.715 28.6105 233.902 29.1259 236.12 29.1318C236.427 29.1318 236.733 29.1318 237.037 29.1022C239.646 28.9376 242.162 28.0692 244.318 26.5893C246.474 25.1094 248.188 23.0733 249.28 20.6972C250.371 18.3211 250.798 15.6937 250.516 13.0942C250.234 10.4947 249.254 8.02011 247.678 5.93328L247.685 5.9168Z" fill="url(#paint20_linear_1212_230)"/>
</g>
<path opacity="0.2" d="M249.811 14.6364C249.811 18.1159 248.486 21.4648 246.105 24.0019C243.724 26.5391 240.466 28.074 236.994 28.2945C236.707 28.3143 236.417 28.3242 236.127 28.3242C234.028 28.3229 231.958 27.8391 230.077 26.9102C228.195 25.9813 226.552 24.6321 225.275 22.9669C223.999 21.3018 223.122 19.3653 222.713 17.3072C222.304 15.2491 222.373 13.1245 222.917 11.0976C223.46 9.07079 224.462 7.19599 225.845 5.61819C227.228 4.0404 228.956 2.80187 230.895 1.99835C232.833 1.19484 234.93 0.847867 237.024 0.984265C239.118 1.12066 241.153 1.73677 242.97 2.78497C244.556 3.70569 245.942 4.93282 247.048 6.3948C248.845 8.76637 249.815 11.6612 249.811 14.6364Z" fill="#0054A9"/>
<path opacity="0.05" d="M227.842 20.7583C228.239 20.7583 228.56 20.4365 228.56 20.0396C228.56 19.6427 228.239 19.3209 227.842 19.3209C227.445 19.3209 227.123 19.6427 227.123 20.0396C227.123 20.4365 227.445 20.7583 227.842 20.7583Z" fill="#F55F44"/>
<path opacity="0.05" d="M242.489 18.1178C243.948 18.1178 245.13 16.9355 245.13 15.4772C245.13 14.0188 243.948 12.8365 242.489 12.8365C241.031 12.8365 239.849 14.0188 239.849 15.4772C239.849 16.9355 241.031 18.1178 242.489 18.1178Z" fill="#F55F44"/>
<path opacity="0.05" d="M247.315 22.5188C246.138 24.1939 244.599 25.5828 242.812 26.5826C241.025 27.5824 239.037 28.1675 236.993 28.2946C236.977 28.1066 236.967 27.9154 236.967 27.7242C236.967 26.523 237.301 25.3456 237.932 24.3231C238.562 23.3007 239.464 22.4735 240.537 21.9337C241.61 21.3939 242.812 21.1628 244.009 21.2661C245.206 21.3694 246.35 21.8031 247.315 22.5188Z" fill="#F55F44"/>
<path opacity="0.25" d="M238.286 115.481C239.214 115.481 239.967 114.729 239.967 113.8C239.967 112.871 239.214 112.119 238.286 112.119C237.357 112.119 236.604 112.871 236.604 113.8C236.604 114.729 237.357 115.481 238.286 115.481Z" fill="#535461"/>
<path opacity="0.25" d="M14.1129 159.656C15.0415 159.656 15.7942 158.904 15.7942 157.975C15.7942 157.047 15.0415 156.294 14.1129 156.294C13.1844 156.294 12.4316 157.047 12.4316 157.975C12.4316 158.904 13.1844 159.656 14.1129 159.656Z" fill="#535461"/>
<path opacity="0.25" d="M303.23 169.217C304.159 169.217 304.911 168.464 304.911 167.535C304.911 166.607 304.159 165.854 303.23 165.854C302.302 165.854 301.549 166.607 301.549 167.535C301.549 168.464 302.302 169.217 303.23 169.217Z" fill="#535461"/>
<path opacity="0.25" d="M95.1842 89.5496C96.1128 89.5496 96.8655 88.7969 96.8655 87.8683C96.8655 86.9398 96.1128 86.187 95.1842 86.187C94.2557 86.187 93.5029 86.9398 93.5029 87.8683C93.5029 88.7969 94.2557 89.5496 95.1842 89.5496Z" fill="#535461"/>
<path opacity="0.25" d="M89.6627 50.8931C90.5913 50.8931 91.344 50.1404 91.344 49.2118C91.344 48.2833 90.5913 47.5305 89.6627 47.5305C88.7342 47.5305 87.9814 48.2833 87.9814 49.2118C87.9814 50.1404 88.7342 50.8931 89.6627 50.8931Z" fill="#535461"/>
<path opacity="0.25" d="M42.1207 127.484C43.0493 127.484 43.802 126.732 43.802 125.803C43.802 124.874 43.0493 124.122 42.1207 124.122C41.1922 124.122 40.4395 124.874 40.4395 125.803C40.4395 126.732 41.1922 127.484 42.1207 127.484Z" fill="#535461"/>
<path opacity="0.25" d="M279.945 127.778H278.448V126.284H277.838V127.778H276.342V128.391H277.838V129.884H278.448V128.391H279.945V127.778Z" fill="#535461"/>
<path opacity="0.25" d="M305 76.0202H303.503V74.5269H302.893V76.0202H301.396V76.6334H302.893V78.1268H303.503V76.6334H305V76.0202Z" fill="#535461"/>
<path opacity="0.25" d="M198.31 47.1053H196.814V45.6086H196.204V47.1053H194.707V47.7152H196.204V49.2119H196.814V47.7152H198.31V47.1053Z" fill="#535461"/>
<path opacity="0.25" d="M263.618 119.374H262.121V117.881H261.511V119.374H260.018V119.988H261.511V121.481H262.121V119.988H263.618V119.374Z" fill="#535461"/>
<path opacity="0.25" d="M208.872 169.075H207.379V167.582H206.769V169.075H205.272V169.688H206.769V171.182H207.379V169.688H208.872V169.075Z" fill="#535461"/>
<path opacity="0.25" d="M55.6902 66.5522H54.1935V65.0588H53.5836V66.5522H52.0869V67.1621H53.5836V68.6588H54.1935V67.1621H55.6902V66.5522Z" fill="#535461"/>
<path opacity="0.25" d="M3.60324 86.0025H2.10656V84.5092H1.49668V86.0025H0V86.6124H1.49668V88.1091H2.10656V86.6124H3.60324V86.0025Z" fill="#535461"/>
<path opacity="0.25" d="M76.3363 147.228H74.8396V145.731H74.2297V147.228H72.7363V147.838H74.2297V149.335H74.8396V147.838H76.3363V147.228Z" fill="#535461"/>
<path d="M254.373 246.095C256.893 246.095 258.936 244.052 258.936 241.532C258.936 239.012 256.893 236.969 254.373 236.969C251.853 236.969 249.811 239.012 249.811 241.532C249.811 244.052 251.853 246.095 254.373 246.095Z" fill="url(#paint21_linear_1212_230)"/>
<g opacity="0.4">
<path opacity="0.4" d="M88.6669 114.987C88.1099 114.25 87.4117 113.631 86.6131 113.167C85.6972 112.634 84.6707 112.319 83.6134 112.247C82.5561 112.175 81.4964 112.347 80.5165 112.751C79.5366 113.154 78.663 113.779 77.9634 114.575C77.2638 115.371 76.757 116.317 76.4825 117.341C76.208 118.364 76.173 119.437 76.3804 120.477C76.5877 121.516 77.0318 122.494 77.6782 123.333C78.3245 124.173 79.1557 124.853 80.1072 125.32C81.0588 125.786 82.105 126.027 83.1648 126.024C83.3099 126.024 83.4582 126.024 83.6 126.024C84.8422 125.944 86.0398 125.53 87.0657 124.825C88.0916 124.12 88.9076 123.151 89.4271 122.019C89.9466 120.888 90.1502 119.637 90.0163 118.4C89.8825 117.162 89.4162 115.984 88.6669 114.99V114.987Z" fill="url(#paint22_linear_1212_230)"/>
</g>
<path opacity="0.2" d="M89.6788 119.14C89.6787 120.798 89.0474 122.393 87.9132 123.601C86.7791 124.809 85.2272 125.54 83.5734 125.645C83.4382 125.645 83.2997 125.645 83.1613 125.645C82.1621 125.644 81.1765 125.413 80.2807 124.97C79.3849 124.528 78.6029 123.885 77.9951 123.092C77.3872 122.299 76.9699 121.377 76.7752 120.397C76.5806 119.417 76.6139 118.405 76.8726 117.44C77.1313 116.475 77.6084 115.582 78.267 114.831C78.9257 114.079 79.7483 113.49 80.6713 113.107C81.5943 112.724 82.5929 112.559 83.59 112.623C84.587 112.688 85.5559 112.981 86.4217 113.48C87.1762 113.918 87.8362 114.502 88.3634 115.198C89.2226 116.332 89.6848 117.717 89.6788 119.14Z" fill="#0054A9"/>
<path opacity="0.1" d="M81.5562 115.006C81.2137 115.151 80.883 115.321 80.5672 115.517C80.3603 115.63 80.1821 115.789 80.0464 115.982C79.9836 116.081 79.9502 116.195 79.9502 116.312C79.9502 116.429 79.9836 116.543 80.0464 116.642C80.1422 116.736 80.2572 116.808 80.3835 116.853C80.5098 116.899 80.6444 116.917 80.7782 116.905C81.0172 116.954 81.2648 116.939 81.4962 116.863C81.7277 116.786 81.9348 116.649 82.0969 116.467L82.6573 115.959C82.8518 115.781 83.0661 115.54 82.987 115.3C82.9428 115.209 82.8759 115.131 82.7927 115.073C82.7096 115.015 82.613 114.98 82.5123 114.97C82.0307 114.876 81.5314 114.964 81.1112 115.217" fill="#F55F44"/>
<path opacity="0.1" d="M79.2159 122.055C79.4052 122.055 79.5588 121.901 79.5588 121.712C79.5588 121.523 79.4052 121.369 79.2159 121.369C79.0265 121.369 78.873 121.523 78.873 121.712C78.873 121.901 79.0265 122.055 79.2159 122.055Z" fill="#F55F44"/>
<path opacity="0.1" d="M86.191 120.799C86.8865 120.799 87.4503 120.235 87.4503 119.539C87.4503 118.844 86.8865 118.28 86.191 118.28C85.4955 118.28 84.9316 118.844 84.9316 119.539C84.9316 120.235 85.4955 120.799 86.191 120.799Z" fill="#F55F44"/>
<path opacity="0.1" d="M88.3639 115.227C88.3598 115.556 88.2613 115.876 88.0804 116.15C87.8995 116.424 87.6436 116.64 87.3433 116.773C87.0429 116.906 86.7108 116.95 86.3863 116.899C86.0618 116.849 85.7586 116.706 85.5128 116.488C85.267 116.271 85.089 115.987 84.9999 115.671C84.9108 115.355 84.9143 115.02 85.0101 114.706C85.1059 114.391 85.2899 114.111 85.5402 113.899C85.7906 113.686 86.0967 113.55 86.4222 113.506C87.177 113.946 87.8371 114.531 88.3639 115.227Z" fill="#F55F44"/>
<path opacity="0.1" d="M88.4915 122.895C87.9311 123.694 87.1984 124.355 86.3475 124.832C85.4967 125.308 84.5495 125.587 83.5762 125.648C83.5762 125.559 83.5762 125.467 83.5762 125.375C83.5743 124.8 83.7329 124.236 84.034 123.746C84.3352 123.257 84.7669 122.861 85.2808 122.603C85.7946 122.346 86.3701 122.236 86.9426 122.288C87.515 122.34 88.0617 122.55 88.5212 122.895H88.4915Z" fill="#F55F44"/>
<g opacity="0.1">
<path opacity="0.1" d="M162.719 66.7665H128.764V68.0851H162.719V66.7665Z" fill="black"/>
</g>
<defs>
<linearGradient id="paint0_linear_1212_230" x1="146.088" y1="228.962" x2="146.088" y2="15.9979" gradientUnits="userSpaceOnUse">
<stop stop-color="#808080" stop-opacity="0.25"/>
<stop offset="0.54" stop-color="#808080" stop-opacity="0.12"/>
<stop offset="1" stop-color="#808080" stop-opacity="0.1"/>
</linearGradient>
<linearGradient id="paint1_linear_1212_230" x1="114.032" y1="203.627" x2="114.032" y2="224.274" gradientUnits="userSpaceOnUse">
<stop stop-color="#E0E0E0"/>
<stop offset="0.31" stop-color="#FCCC63"/>
<stop offset="0.77" stop-color="#F55F44"/>
</linearGradient>
<linearGradient id="paint2_linear_1212_230" x1="3335.98" y1="12944.9" x2="3335.98" y2="14237.8" gradientUnits="userSpaceOnUse">
<stop stop-color="#E0E0E0"/>
<stop offset="0.31" stop-color="#FCCC63"/>
<stop offset="0.77" stop-color="#F55F44"/>
</linearGradient>
<linearGradient id="paint3_linear_1212_230" x1="3708.69" y1="12944.9" x2="3708.69" y2="14237.8" gradientUnits="userSpaceOnUse">
<stop stop-color="#E0E0E0"/>
<stop offset="0.31" stop-color="#FCCC63"/>
<stop offset="0.77" stop-color="#F55F44"/>
</linearGradient>
<linearGradient id="paint4_linear_1212_230" x1="4310.25" y1="12944.9" x2="4310.25" y2="14237.8" gradientUnits="userSpaceOnUse">
<stop stop-color="#E0E0E0"/>
<stop offset="0.31" stop-color="#FCCC63"/>
<stop offset="0.77" stop-color="#F55F44"/>
</linearGradient>
<linearGradient id="paint5_linear_1212_230" x1="117567" y1="51733.5" x2="117567" y2="40175.4" gradientUnits="userSpaceOnUse">
<stop stop-color="#808080" stop-opacity="0.25"/>
<stop offset="0.54" stop-color="#808080" stop-opacity="0.12"/>
<stop offset="1" stop-color="#808080" stop-opacity="0.1"/>
</linearGradient>
<linearGradient id="paint6_linear_1212_230" x1="89.9031" y1="193.513" x2="89.9031" y2="241.532" gradientUnits="userSpaceOnUse">
<stop stop-color="#F2F2F2"/>
<stop offset="0.31" stop-color="#E6E6E6"/>
<stop offset="0.77" stop-color="#CCCCCC"/>
</linearGradient>
<linearGradient id="paint7_linear_1212_230" x1="14384.1" y1="32112.6" x2="14384.1" y2="40499.3" gradientUnits="userSpaceOnUse">
<stop stop-color="#F2F2F2"/>
<stop offset="0.31" stop-color="#E6E6E6"/>
<stop offset="0.77" stop-color="#CCCCCC"/>
</linearGradient>
<linearGradient id="paint8_linear_1212_230" x1="31532.7" y1="32112.6" x2="31532.7" y2="40499.3" gradientUnits="userSpaceOnUse">
<stop stop-color="#F2F2F2"/>
<stop offset="0.31" stop-color="#E6E6E6"/>
<stop offset="0.77" stop-color="#CCCCCC"/>
</linearGradient>
<linearGradient id="paint9_linear_1212_230" x1="28619.7" y1="30012.6" x2="28619.7" y2="37007.1" gradientUnits="userSpaceOnUse">
<stop stop-color="#F2F2F2"/>
<stop offset="0.31" stop-color="#E6E6E6"/>
<stop offset="0.77" stop-color="#CCCCCC"/>
</linearGradient>
<linearGradient id="paint10_linear_1212_230" x1="27730.9" y1="30629.8" x2="27730.9" y2="36362.7" gradientUnits="userSpaceOnUse">
<stop stop-color="#F2F2F2"/>
<stop offset="0.31" stop-color="#E6E6E6"/>
<stop offset="0.77" stop-color="#CCCCCC"/>
</linearGradient>
<linearGradient id="paint11_linear_1212_230" x1="32086.3" y1="19902.6" x2="32086.3" y2="21979.9" gradientUnits="userSpaceOnUse">
<stop stop-color="#F2F2F2"/>
<stop offset="0.31" stop-color="#E6E6E6"/>
<stop offset="0.77" stop-color="#CCCCCC"/>
</linearGradient>
<linearGradient id="paint12_linear_1212_230" x1="38731.6" y1="23058.5" x2="38731.6" y2="25968.4" gradientUnits="userSpaceOnUse">
<stop stop-color="#F2F2F2"/>
<stop offset="0.31" stop-color="#E6E6E6"/>
<stop offset="0.77" stop-color="#CCCCCC"/>
</linearGradient>
<linearGradient id="paint13_linear_1212_230" x1="17260.7" y1="23071.9" x2="17260.7" y2="25983.4" gradientUnits="userSpaceOnUse">
<stop stop-color="#F2F2F2"/>
<stop offset="0.31" stop-color="#E6E6E6"/>
<stop offset="0.77" stop-color="#CCCCCC"/>
</linearGradient>
<linearGradient id="paint14_linear_1212_230" x1="6487.73" y1="5626.32" x2="6487.73" y2="5390.96" gradientUnits="userSpaceOnUse">
<stop stop-color="#808080" stop-opacity="0.25"/>
<stop offset="0.54" stop-color="#808080" stop-opacity="0.12"/>
<stop offset="1" stop-color="#808080" stop-opacity="0.1"/>
</linearGradient>
<linearGradient id="paint15_linear_1212_230" x1="6029.02" y1="5018.11" x2="6029.02" y2="5220.21" gradientUnits="userSpaceOnUse">
<stop stop-color="#F2F2F2"/>
<stop offset="0.31" stop-color="#E6E6E6"/>
<stop offset="0.77" stop-color="#CCCCCC"/>
</linearGradient>
<linearGradient id="paint16_linear_1212_230" x1="7662.01" y1="7410.35" x2="7662.01" y2="7130.52" gradientUnits="userSpaceOnUse">
<stop stop-color="#808080" stop-opacity="0.25"/>
<stop offset="0.54" stop-color="#808080" stop-opacity="0.12"/>
<stop offset="1" stop-color="#808080" stop-opacity="0.1"/>
</linearGradient>
<linearGradient id="paint17_linear_1212_230" x1="254.373" y1="236.969" x2="254.373" y2="246.095" gradientUnits="userSpaceOnUse">
<stop stop-color="#F2F2F2"/>
<stop offset="0.31" stop-color="#E0E0E0"/>
<stop offset="0.77" stop-color="#B3B3B3"/>
</linearGradient>
<linearGradient id="paint18_linear_1212_230" x1="1607.63" y1="7230.23" x2="1607.63" y2="6892.23" gradientUnits="userSpaceOnUse">
<stop stop-color="#808080" stop-opacity="0.25"/>
<stop offset="0.54" stop-color="#808080" stop-opacity="0.12"/>
<stop offset="1" stop-color="#808080" stop-opacity="0.1"/>
</linearGradient>
<linearGradient id="paint19_linear_1212_230" x1="1537.53" y1="6599.18" x2="1537.53" y2="6907.56" gradientUnits="userSpaceOnUse">
<stop stop-color="#F2F2F2"/>
<stop offset="0.31" stop-color="#E6E6E6"/>
<stop offset="0.77" stop-color="#CCCCCC"/>
</linearGradient>
<linearGradient id="paint20_linear_1212_230" x1="24910.8" y1="4424.63" x2="24910.8" y2="1880.98" gradientUnits="userSpaceOnUse">
<stop stop-color="#808080" stop-opacity="0.25"/>
<stop offset="0.54" stop-color="#808080" stop-opacity="0.12"/>
<stop offset="1" stop-color="#808080" stop-opacity="0.1"/>
</linearGradient>
<linearGradient id="paint21_linear_1212_230" x1="7290.86" y1="6791.92" x2="7290.86" y2="7044.51" gradientUnits="userSpaceOnUse">
<stop stop-color="#F2F2F2"/>
<stop offset="0.31" stop-color="#E6E6E6"/>
<stop offset="0.77" stop-color="#CCCCCC"/>
</linearGradient>
<linearGradient id="paint22_linear_1212_230" x1="5457.3" y1="6274.9" x2="5457.3" y2="5697.79" gradientUnits="userSpaceOnUse">
<stop stop-color="#808080" stop-opacity="0.25"/>
<stop offset="0.54" stop-color="#808080" stop-opacity="0.12"/>
<stop offset="1" stop-color="#808080" stop-opacity="0.1"/>
</linearGradient>
</defs>
</svg>
