<svg width="364" height="233" viewBox="0 0 364 233" fill="none" xmlns="http://www.w3.org/2000/svg">
<path d="M54.7998 63.6209C55.4069 57.082 57.0839 50.6872 59.7636 44.6918C60.5105 43.0233 61.3325 41.3916 62.2297 39.7966C62.2747 39.7132 62.2856 39.6156 62.2599 39.5243C62.2343 39.4331 62.1743 39.3554 62.0925 39.3075C62.0107 39.2597 61.9135 39.2455 61.8214 39.268C61.7293 39.2904 61.6496 39.3478 61.599 39.4279C58.3361 45.2372 56.0503 51.5434 54.8328 58.0941C54.4942 59.9235 54.2396 61.7657 54.0692 63.6209C54.0259 64.0888 54.7567 64.0859 54.7998 63.6209Z" fill="#E6E6E6"/>
<path d="M63.9987 40.9682C66.554 40.9682 68.6254 38.8967 68.6254 36.3415C68.6254 33.7863 66.554 31.7148 63.9987 31.7148C61.4435 31.7148 59.3721 33.7863 59.3721 36.3415C59.3721 38.8967 61.4435 40.9682 63.9987 40.9682Z" fill="#E6E6E6"/>
<path d="M55.272 63.7436C55.6659 59.5015 56.7538 55.3529 58.4923 51.4634C58.9768 50.381 59.5101 49.3224 60.0922 48.2877C60.1214 48.2336 60.1284 48.1702 60.1118 48.1111C60.0952 48.0519 60.0562 48.0014 60.0031 47.9704C59.95 47.9394 59.887 47.9302 59.8272 47.9447C59.7675 47.9593 59.7158 47.9965 59.683 48.0485C57.5662 51.8173 56.0833 55.9084 55.2935 60.1582C55.0737 61.3449 54.9086 62.5401 54.7981 63.7436C54.77 64.0472 55.2441 64.0453 55.272 63.7436Z" fill="#E6E6E6"/>
<path d="M61.2408 49.048C62.8985 49.048 64.2423 47.7042 64.2423 46.0465C64.2423 44.3888 62.8985 43.0449 61.2408 43.0449C59.5831 43.0449 58.2393 44.3888 58.2393 46.0465C58.2393 47.7042 59.5831 49.048 61.2408 49.048Z" fill="#E6E6E6"/>
<path d="M54.6747 63.4603C52.3761 59.8732 50.6823 55.933 49.6608 51.7969C49.3771 50.6454 49.1465 49.4828 48.969 48.3089C48.9587 48.2483 48.9253 48.194 48.8758 48.1575C48.8263 48.1211 48.7646 48.1053 48.7036 48.1134C48.6427 48.1216 48.5873 48.1532 48.5492 48.2014C48.511 48.2496 48.4931 48.3108 48.4992 48.372C49.1482 52.6455 50.4952 56.7833 52.4863 60.62C53.0431 61.6909 53.6479 62.7348 54.301 63.7518C54.4656 64.0084 54.8382 63.7153 54.6747 63.4603Z" fill="#E6E6E6"/>
<path d="M48.4947 48.8373C50.1524 48.8373 51.4962 47.4935 51.4962 45.8358C51.4962 44.1781 50.1524 42.8342 48.4947 42.8342C46.837 42.8342 45.4932 44.1781 45.4932 45.8358C45.4932 47.4935 46.837 48.8373 48.4947 48.8373Z" fill="#E6E6E6"/>
<path d="M45.46 66.1159V60.2186C45.4606 59.6323 45.6938 59.0701 46.1084 58.6555C46.523 58.2409 47.0851 58.0077 47.6715 58.0071H61.4319C62.0183 58.0077 62.5804 58.2409 62.995 58.6555C63.4096 59.0701 63.6428 59.6323 63.6434 60.2186V66.1159C63.6428 66.7023 63.4096 67.2644 62.995 67.679C62.5804 68.0936 62.0183 68.3268 61.4319 68.3274H47.6715C47.0851 68.3268 46.523 68.0936 46.1084 67.679C45.6938 67.2644 45.4606 66.7023 45.46 66.1159Z" fill="#F2F2F2"/>
<path d="M60.9409 28.5204H55.0435C54.4572 28.5198 53.8951 28.2866 53.4805 27.872C53.0659 27.4574 52.8327 26.8953 52.832 26.3089V2.22811C52.8327 1.64178 53.0659 1.07966 53.4805 0.665066C53.8951 0.250471 54.4572 0.0172623 55.0435 0.0166016H60.9409C61.5272 0.0172623 62.0893 0.250471 62.5039 0.665066C62.9185 1.07966 63.1517 1.64178 63.1524 2.22811V26.3089C63.1517 26.8953 62.9185 27.4574 62.5039 27.872C62.0893 28.2866 61.5272 28.5198 60.9409 28.5204Z" fill="#F2F2F2"/>
<path d="M62.9061 19.9202H53.0771V21.8859H62.9061V19.9202Z" fill="#CCCCCC"/>
<path d="M75.684 28.5204H69.7867C69.2004 28.5198 68.6383 28.2866 68.2237 27.872C67.8091 27.4574 67.5759 26.8953 67.5752 26.3089V2.22811C67.5759 1.64178 67.8091 1.07966 68.2237 0.665066C68.6383 0.250471 69.2004 0.0172623 69.7867 0.0166016H75.684C76.2704 0.0172623 76.8325 0.250471 77.2471 0.665066C77.6617 1.07966 77.8949 1.64178 77.8956 2.22811V26.3089C77.8949 26.8953 77.6617 27.4574 77.2471 27.872C76.8325 28.2866 76.2704 28.5198 75.684 28.5204Z" fill="#F2F2F2"/>
<path d="M77.6502 19.9202H67.8213V21.8859H77.6502V19.9202Z" fill="#CCCCCC"/>
<path d="M90.4272 28.5204H84.5299C83.9435 28.5198 83.3814 28.2866 82.9668 27.872C82.5522 27.4574 82.319 26.8953 82.3184 26.3089V2.22811C82.319 1.64178 82.5522 1.07966 82.9668 0.665066C83.3814 0.250471 83.9435 0.0172623 84.5299 0.0166016H90.4272C91.0135 0.0172623 91.5757 0.250471 91.9903 0.665066C92.4049 1.07966 92.6381 1.64178 92.6387 2.22811V26.3089C92.6381 26.8953 92.4049 27.4574 91.9903 27.872C91.5757 28.2866 91.0135 28.5198 90.4272 28.5204Z" fill="#F2F2F2"/>
<path d="M92.3934 19.9202H82.5645V21.8859H92.3934V19.9202Z" fill="#CCCCCC"/>
<path d="M98.2905 68.3276H92.3931C91.8068 68.3269 91.2447 68.0937 90.8301 67.6791C90.4155 67.2645 90.1823 66.7024 90.1816 66.1161V42.0352C90.1823 41.4489 90.4155 40.8868 90.8301 40.4722C91.2447 40.0576 91.8068 39.8244 92.3931 39.8237H98.2905C98.8768 39.8244 99.4389 40.0576 99.8535 40.4722C100.268 40.8868 100.501 41.4489 100.502 42.0352V66.1161C100.501 66.7024 100.268 67.2645 99.8535 67.6791C99.4389 68.0937 98.8768 68.3269 98.2905 68.3276Z" fill="#F2F2F2"/>
<path d="M100.257 44.4924H90.4277V46.4582H100.257V44.4924Z" fill="#CCCCCC"/>
<path d="M100.257 59.7273H90.4277V61.6931H100.257V59.7273Z" fill="#CCCCCC"/>
<path d="M113.034 68.3276H107.136C106.55 68.3269 105.988 68.0937 105.573 67.6791C105.159 67.2645 104.925 66.7024 104.925 66.1161V42.0352C104.925 41.4489 105.159 40.8868 105.573 40.4722C105.988 40.0576 106.55 39.8244 107.136 39.8237H113.034C113.62 39.8244 114.182 40.0576 114.597 40.4722C115.011 40.8868 115.245 41.4489 115.245 42.0352V66.1161C115.245 66.7024 115.011 67.2645 114.597 67.6791C114.182 68.0937 113.62 68.3269 113.034 68.3276Z" fill="#F2F2F2"/>
<path d="M115 44.4924H105.171V46.4582H115V44.4924Z" fill="#CCCCCC"/>
<path d="M115 59.7273H105.171V61.6931H115V59.7273Z" fill="#CCCCCC"/>
<path d="M127.777 68.3276H121.879C121.293 68.3269 120.731 68.0937 120.316 67.6791C119.902 67.2645 119.669 66.7024 119.668 66.1161V42.0352C119.669 41.4489 119.902 40.8868 120.316 40.4722C120.731 40.0576 121.293 39.8244 121.879 39.8237H127.777C128.363 39.8244 128.925 40.0576 129.34 40.4722C129.754 40.8868 129.988 41.4489 129.988 42.0352V66.1161C129.988 66.7024 129.754 67.2645 129.34 67.6791C128.925 68.0937 128.363 68.3269 127.777 68.3276Z" fill="#F2F2F2"/>
<path d="M129.743 44.4924H119.914V46.4582H129.743V44.4924Z" fill="#CCCCCC"/>
<path d="M129.743 59.7273H119.914V61.6931H129.743V59.7273Z" fill="#CCCCCC"/>
<path d="M59.4663 108.135H53.5689C52.9826 108.134 52.4205 107.901 52.0059 107.486C51.5913 107.072 51.3581 106.51 51.3574 105.923V81.8424C51.3581 81.256 51.5913 80.6939 52.0059 80.2793C52.4205 79.8647 52.9826 79.6315 53.5689 79.6309H59.4663C60.0526 79.6315 60.6147 79.8647 61.0293 80.2793C61.4439 80.6939 61.6771 81.256 61.6778 81.8424V105.923C61.6771 106.51 61.4439 107.072 61.0293 107.486C60.6147 107.901 60.0526 108.134 59.4663 108.135Z" fill="#F2F2F2"/>
<path d="M61.4324 84.2996H51.6035V86.2653H61.4324V84.2996Z" fill="#CCCCCC"/>
<path d="M61.4324 99.5344H51.6035V101.5H61.4324V99.5344Z" fill="#CCCCCC"/>
<path d="M74.2104 108.135H68.3131C67.7267 108.134 67.1646 107.901 66.75 107.486C66.3354 107.072 66.1022 106.51 66.1016 105.923V81.8424C66.1022 81.256 66.3354 80.6939 66.75 80.2793C67.1646 79.8647 67.7267 79.6315 68.3131 79.6309H74.2104C74.7967 79.6315 75.3589 79.8647 75.7735 80.2793C76.1881 80.6939 76.4213 81.256 76.4219 81.8424V105.923C76.4213 106.51 76.1881 107.072 75.7735 107.486C75.3589 107.901 74.7967 108.134 74.2104 108.135Z" fill="#F2F2F2"/>
<path d="M76.1756 84.2996H66.3467V86.2653H76.1756V84.2996Z" fill="#CCCCCC"/>
<path d="M76.1756 99.5344H66.3467V101.5H76.1756V99.5344Z" fill="#CCCCCC"/>
<path d="M88.9536 108.135H83.0562C82.4699 108.134 81.9078 107.901 81.4932 107.486C81.0786 107.072 80.8454 106.51 80.8447 105.923V81.8424C80.8454 81.256 81.0786 80.6939 81.4932 80.2793C81.9078 79.8647 82.4699 79.6315 83.0562 79.6309H88.9536C89.5399 79.6315 90.102 79.8647 90.5166 80.2793C90.9312 80.6939 91.1644 81.256 91.1651 81.8424V105.923C91.1644 106.51 90.9312 107.072 90.5166 107.486C90.102 107.901 89.5399 108.134 88.9536 108.135Z" fill="#F2F2F2"/>
<path d="M90.9188 84.2996H81.0898V86.2653H90.9188V84.2996Z" fill="#CCCCCC"/>
<path d="M90.9188 99.5344H81.0898V101.5H90.9188V99.5344Z" fill="#CCCCCC"/>
<path d="M105.17 28.5204H99.273C98.6867 28.5198 98.1246 28.2866 97.71 27.872C97.2954 27.4574 97.0622 26.8953 97.0615 26.3089V2.22811C97.0622 1.64178 97.2954 1.07966 97.71 0.665066C98.1246 0.250471 98.6867 0.0172623 99.273 0.0166016H105.17C105.757 0.0172623 106.319 0.250471 106.733 0.665066C107.148 1.07966 107.381 1.64178 107.382 2.22811V26.3089C107.381 26.8953 107.148 27.4574 106.733 27.872C106.319 28.2866 105.757 28.5198 105.17 28.5204Z" fill="#F2F2F2"/>
<path d="M107.137 19.9202H97.3076V21.8859H107.137V19.9202Z" fill="#CCCCCC"/>
<path d="M119.914 28.5204H114.016C113.43 28.5198 112.868 28.2866 112.453 27.872C112.039 27.4574 111.805 26.8953 111.805 26.3089V2.22811C111.805 1.64178 112.039 1.07966 112.453 0.665066C112.868 0.250471 113.43 0.0172623 114.016 0.0166016H119.914C120.5 0.0172623 121.062 0.250471 121.477 0.665066C121.891 1.07966 122.124 1.64178 122.125 2.22811V26.3089C122.124 26.8953 121.891 27.4574 121.477 27.872C121.062 28.2866 120.5 28.5198 119.914 28.5204Z" fill="#F2F2F2"/>
<path d="M121.88 19.9202H112.051V21.8859H121.88V19.9202Z" fill="#CCCCCC"/>
<path d="M134.658 28.5204H128.76C128.174 28.5198 127.612 28.2866 127.197 27.872C126.783 27.4574 126.549 26.8953 126.549 26.3089V2.22811C126.549 1.64178 126.783 1.07966 127.197 0.665066C127.612 0.250471 128.174 0.0172623 128.76 0.0166016H134.658C135.244 0.0172623 135.806 0.250471 136.221 0.665066C136.635 1.07966 136.869 1.64178 136.869 2.22811V26.3089C136.869 26.8953 136.635 27.4574 136.221 27.872C135.806 28.2866 135.244 28.5198 134.658 28.5204Z" fill="#F2F2F2"/>
<path d="M136.623 19.9202H126.794V21.8859H136.623V19.9202Z" fill="#CCCCCC"/>
<path d="M149.401 28.5204H143.503C142.917 28.5198 142.355 28.2866 141.94 27.872C141.526 27.4574 141.293 26.8953 141.292 26.3089V2.22811C141.293 1.64178 141.526 1.07966 141.94 0.665066C142.355 0.250471 142.917 0.0172623 143.503 0.0166016H149.401C149.987 0.0172623 150.549 0.250471 150.964 0.665066C151.378 1.07966 151.612 1.64178 151.612 2.22811V26.3089C151.612 26.8953 151.378 27.4574 150.964 27.872C150.549 28.2866 149.987 28.5198 149.401 28.5204Z" fill="#F2F2F2"/>
<path d="M151.366 19.9202H141.537V21.8859H151.366V19.9202Z" fill="#CCCCCC"/>
<path d="M171.487 29.2577H31.425C31.2947 29.2577 31.1697 29.2059 31.0775 29.1137C30.9854 29.0216 30.9336 28.8966 30.9336 28.7662C30.9336 28.6359 30.9854 28.5109 31.0775 28.4187C31.1697 28.3265 31.2947 28.2748 31.425 28.2748H171.487C171.617 28.2748 171.742 28.3265 171.835 28.4187C171.927 28.5109 171.979 28.6359 171.979 28.7662C171.979 28.8966 171.927 29.0216 171.835 29.1137C171.742 29.2059 171.617 29.2577 171.487 29.2577Z" fill="#CCCCCC"/>
<path d="M171.487 69.0647H31.425C31.2947 69.0647 31.1697 69.0129 31.0775 68.9207C30.9854 68.8286 30.9336 68.7036 30.9336 68.5732C30.9336 68.4429 30.9854 68.3179 31.0775 68.2257C31.1697 68.1336 31.2947 68.0818 31.425 68.0818H171.487C171.617 68.0818 171.742 68.1336 171.835 68.2257C171.927 68.3179 171.979 68.4429 171.979 68.5732C171.979 68.7036 171.927 68.8286 171.835 68.9207C171.742 69.0129 171.617 69.0647 171.487 69.0647Z" fill="#CCCCCC"/>
<path d="M171.487 108.872H31.425C31.2947 108.872 31.1697 108.82 31.0775 108.728C30.9854 108.636 30.9336 108.511 30.9336 108.38C30.9336 108.25 30.9854 108.125 31.0775 108.033C31.1697 107.941 31.2947 107.889 31.425 107.889H171.487C171.617 107.889 171.742 107.941 171.835 108.033C171.927 108.125 171.979 108.25 171.979 108.38C171.979 108.511 171.927 108.636 171.835 108.728C171.742 108.82 171.617 108.872 171.487 108.872Z" fill="#CCCCCC"/>
<path d="M163.193 186.02C163.193 182.22 148.891 179.14 131.249 179.14C113.607 179.14 99.3047 182.22 99.3047 186.02C99.3047 188.455 105.185 190.593 114.048 191.816V229.513C114.048 230.36 114.385 231.173 114.984 231.772C115.583 232.371 116.395 232.707 117.242 232.707C118.09 232.707 118.902 232.371 119.501 231.772C120.1 231.173 120.437 230.36 120.437 229.513V192.495C123.814 192.757 127.453 192.9 131.249 192.9C135.044 192.9 138.683 192.757 142.06 192.495V229.513C142.06 230.36 142.397 231.173 142.996 231.772C143.595 232.371 144.408 232.707 145.255 232.707C146.102 232.707 146.915 232.371 147.514 231.772C148.113 231.173 148.449 230.36 148.449 229.513V191.816C157.313 190.593 163.193 188.455 163.193 186.02Z" fill="#CCCCCC"/>
<path d="M157.046 226.527H163.071L165.937 203.287H157.045L157.046 226.527Z" fill="#A0616A"/>
<path d="M174.69 232.121L155.755 232.122L155.754 224.806L167.374 224.805C169.314 224.805 171.175 225.576 172.547 226.948C173.919 228.32 174.69 230.18 174.69 232.121L174.69 232.121Z" fill="#2F2E41"/>
<path d="M166.452 223.164L172.2 221.36L167.977 198.329L159.493 200.991L166.452 223.164Z" fill="#A0616A"/>
<path d="M184.961 223.219L166.894 228.889L164.703 221.908L175.79 218.429C177.641 217.848 179.648 218.026 181.367 218.925C183.087 219.823 184.38 221.368 184.961 223.219Z" fill="#2F2E41"/>
<path d="M162.42 212.468L151.398 183.536C148.926 184.117 128.189 188.705 121.244 181.311C118.864 178.776 118.399 175.104 119.864 170.397L123.917 165.303L124.043 165.31C125.576 165.391 161.607 167.41 164.077 178.279C166.16 187.441 169.963 204.524 171.079 209.542C171.192 210.062 171.115 210.605 170.861 211.073C170.607 211.54 170.193 211.901 169.696 212.089L165.263 213.751C165.016 213.844 164.755 213.892 164.491 213.892C164.042 213.892 163.604 213.756 163.234 213.502C162.865 213.247 162.581 212.887 162.42 212.468Z" fill="#2F2E41"/>
<path d="M156.031 215.908L145.009 186.976C142.536 187.557 121.8 192.145 114.854 184.751C112.474 182.216 112.01 178.544 113.474 173.837L117.528 168.743L117.654 168.75C119.186 168.831 155.217 170.85 157.687 181.718C159.77 190.881 163.573 207.964 164.689 212.982C164.802 213.502 164.725 214.045 164.471 214.513C164.217 214.98 163.804 215.341 163.306 215.529L158.874 217.191C158.627 217.284 158.365 217.332 158.101 217.332C157.653 217.332 157.214 217.196 156.845 216.942C156.475 216.687 156.191 216.327 156.031 215.908Z" fill="#2F2E41"/>
<path d="M170.926 146.554C170.763 146.772 170.618 147.002 170.491 147.243L146.253 149.796L142.764 145.013L134.856 149.335L141.709 160.943L171.436 153.364C172.186 154.095 173.14 154.581 174.173 154.756C175.206 154.931 176.267 154.788 177.217 154.345C178.166 153.903 178.958 153.181 179.487 152.278C180.017 151.374 180.258 150.33 180.18 149.286C180.102 148.241 179.708 147.245 179.05 146.43C178.392 145.615 177.501 145.02 176.497 144.724C175.492 144.427 174.421 144.443 173.426 144.77C172.431 145.097 171.559 145.719 170.926 146.554V146.554Z" fill="#A0616A"/>
<path d="M113.32 175.364C112.988 175.125 112.729 174.799 112.571 174.422C112.413 174.045 112.363 173.631 112.426 173.227C113.793 164.213 112.22 151.299 110.659 142.053C110.34 140.177 110.464 138.253 111.022 136.434C111.58 134.614 112.557 132.951 113.873 131.577C115.19 130.203 116.81 129.156 118.604 128.521C120.398 127.886 122.315 127.679 124.203 127.919C125.846 128.136 127.473 128.456 129.075 128.879C131.736 129.549 134.09 131.105 135.749 133.29C137.409 135.475 138.276 138.16 138.207 140.904C137.973 149.825 139.785 160.957 140.575 165.329C140.629 165.629 140.62 165.937 140.55 166.234C140.479 166.531 140.348 166.81 140.165 167.054C139.985 167.296 139.757 167.497 139.495 167.645C139.233 167.793 138.943 167.885 138.644 167.914C129.892 168.807 120.454 173.075 115.608 175.54C115.296 175.701 114.951 175.785 114.6 175.786C114.14 175.785 113.691 175.637 113.32 175.364Z" fill="#0054A9"/>
<path d="M136.943 152.113C136.673 152.007 136.426 151.848 136.217 151.646C136.009 151.444 135.842 151.202 135.727 150.935L130.847 139.66C130.551 138.979 130.393 138.246 130.381 137.503C130.368 136.761 130.503 136.023 130.776 135.333C131.049 134.642 131.455 134.012 131.972 133.479C132.488 132.946 133.105 132.519 133.787 132.224C134.468 131.929 135.201 131.772 135.943 131.76C136.686 131.748 137.423 131.883 138.114 132.157C138.804 132.43 139.434 132.837 139.967 133.354C140.5 133.871 140.925 134.489 141.22 135.17L146.101 146.445C146.333 146.983 146.342 147.592 146.126 148.137C145.911 148.682 145.487 149.119 144.95 149.353L138.636 152.086C138.369 152.202 138.083 152.265 137.792 152.269C137.502 152.274 137.213 152.221 136.943 152.113H136.943Z" fill="#0054A9"/>
<path d="M147.828 145.571C147.665 145.789 147.519 146.019 147.393 146.26L123.155 148.814L119.666 144.03L111.758 148.352L118.611 159.961L148.337 152.381C149.087 153.112 150.042 153.598 151.074 153.773C152.107 153.949 153.169 153.805 154.118 153.363C155.067 152.92 155.859 152.199 156.389 151.295C156.918 150.391 157.16 149.348 157.082 148.303C157.003 147.259 156.609 146.263 155.951 145.448C155.293 144.633 154.403 144.037 153.398 143.741C152.394 143.444 151.323 143.461 150.328 143.788C149.332 144.115 148.461 144.737 147.828 145.571V145.571Z" fill="#A0616A"/>
<path d="M113.845 152.605C113.575 152.499 113.328 152.34 113.12 152.137C112.911 151.935 112.744 151.694 112.63 151.427L107.749 140.152C107.454 139.47 107.295 138.738 107.283 137.995C107.271 137.253 107.405 136.515 107.678 135.825C107.951 135.134 108.358 134.504 108.874 133.971C109.391 133.437 110.007 133.011 110.689 132.716C111.37 132.421 112.103 132.263 112.846 132.252C113.588 132.24 114.326 132.375 115.016 132.649C115.706 132.922 116.336 133.329 116.869 133.846C117.402 134.363 117.828 134.98 118.122 135.662L123.003 146.937C123.235 147.475 123.244 148.084 123.029 148.629C122.813 149.174 122.39 149.611 121.852 149.845L115.538 152.578C115.272 152.694 114.985 152.756 114.694 152.761C114.404 152.766 114.115 152.713 113.845 152.605H113.845Z" fill="#0054A9"/>
<path d="M123.305 124.083C129.971 124.083 135.375 118.679 135.375 112.013C135.375 105.346 129.971 99.9421 123.305 99.9421C116.638 99.9421 111.234 105.346 111.234 112.013C111.234 118.679 116.638 124.083 123.305 124.083Z" fill="#A0616A"/>
<path d="M114.676 120.297C114.624 120.145 114.607 119.984 114.627 119.825C114.648 119.666 114.704 119.514 114.792 119.38C114.88 119.247 114.998 119.135 115.136 119.053C115.273 118.972 115.428 118.924 115.588 118.911C115.915 118.929 116.235 119.013 116.528 119.158C116.822 119.303 117.083 119.505 117.296 119.754C117.733 120.258 118.242 120.694 118.805 121.05C119.389 121.344 120.181 121.302 120.514 120.741C120.827 120.214 120.613 119.509 120.423 118.897C119.942 117.339 119.672 115.724 119.622 114.095C119.568 112.277 119.824 110.379 120.831 108.961C122.13 107.13 124.454 106.435 126.652 106.486C128.851 106.536 131.014 107.215 133.192 107.644C133.944 107.792 134.828 107.868 135.331 107.285C135.865 106.665 135.669 105.662 135.442 104.826C134.851 102.655 134.225 100.41 132.854 98.657C131.371 96.8352 129.253 95.6428 126.927 95.32C124.693 95.0433 122.426 95.3008 120.311 96.0711C116.865 97.1571 113.833 99.2693 111.621 102.125C109.34 105.162 108.354 108.979 108.879 112.74C109.392 116.017 111.129 118.977 113.738 121.024L114.676 120.297Z" fill="#2F2E41"/>
<path d="M68.5878 149.355C69.195 142.816 70.8719 136.422 73.5517 130.426C74.2986 128.758 75.1206 127.126 76.0178 125.531C76.0628 125.448 76.0737 125.35 76.048 125.259C76.0224 125.167 75.9624 125.09 75.8806 125.042C75.7987 124.994 75.7016 124.98 75.6095 125.002C75.5174 125.025 75.4377 125.082 75.3871 125.162C72.1242 130.972 69.8384 137.278 68.6209 143.829C68.2823 145.658 68.0277 147.5 67.8573 149.355C67.814 149.823 68.5448 149.82 68.5878 149.355Z" fill="#3F3D56"/>
<path d="M77.7868 126.703C80.3421 126.703 82.4135 124.631 82.4135 122.076C82.4135 119.521 80.3421 117.449 77.7868 117.449C75.2316 117.449 73.1602 119.521 73.1602 122.076C73.1602 124.631 75.2316 126.703 77.7868 126.703Z" fill="#0054A9"/>
<path d="M69.0601 149.478C69.454 145.236 70.5419 141.087 72.2804 137.198C72.7649 136.115 73.2982 135.057 73.8803 134.022C73.9095 133.968 73.9165 133.905 73.8999 133.845C73.8832 133.786 73.8443 133.736 73.7912 133.705C73.7381 133.674 73.6751 133.665 73.6154 133.679C73.5556 133.694 73.5039 133.731 73.471 133.783C71.3543 137.552 69.8713 141.643 69.0815 145.893C68.8618 147.079 68.6967 148.274 68.5862 149.478C68.5581 149.782 69.0322 149.78 69.0601 149.478Z" fill="#3F3D56"/>
<path d="M75.0279 134.782C76.6856 134.782 78.0294 133.439 78.0294 131.781C78.0294 130.123 76.6856 128.779 75.0279 128.779C73.3702 128.779 72.0264 130.123 72.0264 131.781C72.0264 133.439 73.3702 134.782 75.0279 134.782Z" fill="#0054A9"/>
<path d="M68.4618 149.195C66.1632 145.608 64.4694 141.668 63.4479 137.532C63.1642 136.38 62.9336 135.217 62.7561 134.043C62.7458 133.983 62.7124 133.929 62.6629 133.892C62.6134 133.856 62.5517 133.84 62.4907 133.848C62.4298 133.856 62.3744 133.888 62.3363 133.936C62.2981 133.984 62.2802 134.045 62.2863 134.107C62.9353 138.38 64.2823 142.518 66.2734 146.355C66.8301 147.425 67.435 148.469 68.0881 149.486C68.2527 149.743 68.6253 149.45 68.4618 149.195Z" fill="#3F3D56"/>
<path d="M62.2828 134.572C63.9405 134.572 65.2843 133.228 65.2843 131.57C65.2843 129.912 63.9405 128.569 62.2828 128.569C60.6251 128.569 59.2812 129.912 59.2812 131.57C59.2812 133.228 60.6251 134.572 62.2828 134.572Z" fill="#0054A9"/>
<path d="M59.248 151.851V145.953C59.2487 145.367 59.4819 144.805 59.8965 144.39C60.3111 143.976 60.8732 143.742 61.4596 143.742H75.22C75.8064 143.742 76.3685 143.976 76.7831 144.39C77.1977 144.805 77.4309 145.367 77.4315 145.953V151.851C77.4309 152.437 77.1977 152.999 76.7831 153.414C76.3685 153.828 75.8064 154.061 75.22 154.062H61.4596C60.8732 154.061 60.3111 153.828 59.8965 153.414C59.4819 152.999 59.2487 152.437 59.248 151.851Z" fill="#CCCCCC"/>
<path d="M182.605 150.145H143.781C142.831 150.145 142.061 150.915 142.061 151.865C142.061 152.815 142.831 153.585 143.781 153.585H182.605C183.555 153.585 184.325 152.815 184.325 151.865C184.325 150.915 183.555 150.145 182.605 150.145Z" fill="#CCCCCC"/>
<path d="M208.651 153.585H164.912C164.065 153.584 163.253 153.247 162.654 152.648C162.056 152.049 161.719 151.237 161.718 150.39V126.309C161.719 125.462 162.056 124.651 162.654 124.052C163.253 123.453 164.065 123.116 164.912 123.115H208.651C209.498 123.116 210.31 123.453 210.909 124.052C211.507 124.651 211.844 125.462 211.845 126.309V150.39C211.844 151.237 211.507 152.049 210.909 152.648C210.31 153.247 209.498 153.584 208.651 153.585Z" fill="#CCCCCC"/>
<path d="M186.782 141.298C188.41 141.298 189.73 139.978 189.73 138.35C189.73 136.721 188.41 135.401 186.782 135.401C185.153 135.401 183.833 136.721 183.833 138.35C183.833 139.978 185.153 141.298 186.782 141.298Z" fill="white"/>
<path d="M319.964 186.02C319.964 182.22 305.662 179.14 288.02 179.14C270.378 179.14 256.076 182.22 256.076 186.02C256.076 188.455 261.956 190.593 270.82 191.816V229.513C270.82 230.36 271.156 231.173 271.755 231.772C272.354 232.371 273.167 232.707 274.014 232.707C274.861 232.707 275.674 232.371 276.273 231.772C276.872 231.173 277.208 230.36 277.208 229.513V192.495C280.586 192.757 284.225 192.9 288.02 192.9C291.816 192.9 295.455 192.757 298.832 192.495V229.513C298.832 230.36 299.168 231.173 299.768 231.772C300.367 232.371 301.179 232.707 302.026 232.707C302.874 232.707 303.686 232.371 304.285 231.772C304.884 231.173 305.221 230.36 305.221 229.513V191.816C314.084 190.593 319.964 188.455 319.964 186.02Z" fill="#CCCCCC"/>
<path d="M291.552 123.045C299.152 123.045 305.313 116.884 305.313 109.285C305.313 101.685 299.152 95.5242 291.552 95.5242C283.953 95.5242 277.792 101.685 277.792 109.285C277.792 116.884 283.953 123.045 291.552 123.045Z" fill="#2F2E41"/>
<path d="M257.308 227.018H251.283L248.417 203.779H257.309L257.308 227.018Z" fill="#FFB8B8"/>
<path d="M246.979 225.297H258.599V232.613H239.663C239.663 231.652 239.852 230.701 240.22 229.813C240.588 228.925 241.127 228.119 241.806 227.439C242.485 226.76 243.292 226.221 244.179 225.854C245.067 225.486 246.018 225.297 246.979 225.297Z" fill="#2F2E41"/>
<path d="M247.903 223.656L242.154 221.852L246.377 198.82L254.861 201.482L247.903 223.656Z" fill="#FFB8B8"/>
<path d="M238.563 218.921L249.65 222.4L247.459 229.38L229.392 223.71C229.68 222.794 230.146 221.943 230.762 221.206C231.379 220.469 232.134 219.861 232.986 219.416C233.838 218.971 234.768 218.699 235.725 218.614C236.682 218.529 237.647 218.633 238.563 218.921Z" fill="#2F2E41"/>
<path d="M249.862 214.383C249.598 214.383 249.337 214.336 249.09 214.243L244.657 212.581C244.16 212.392 243.746 212.031 243.493 211.564C243.239 211.096 243.161 210.553 243.274 210.033C244.39 205.016 248.194 187.933 250.276 178.77C252.746 167.901 288.777 165.882 290.31 165.801L290.436 165.794L294.489 170.888C295.954 175.595 295.49 179.267 293.109 181.802C286.164 189.197 265.428 184.608 262.955 184.027L251.933 212.959C251.772 213.378 251.489 213.739 251.119 213.993C250.749 214.247 250.311 214.383 249.862 214.383Z" fill="#2F2E41"/>
<path d="M256.251 217.823C255.987 217.823 255.725 217.776 255.478 217.683L251.046 216.021C250.548 215.832 250.135 215.472 249.881 215.004C249.627 214.536 249.55 213.993 249.663 213.473C250.779 208.456 254.582 191.373 256.665 182.21C259.135 171.342 295.166 169.322 296.699 169.241L296.825 169.235L300.878 174.328C302.342 179.036 301.878 182.708 299.498 185.242C292.553 192.636 271.816 188.048 269.343 187.468L258.322 216.399C258.161 216.818 257.877 217.179 257.508 217.433C257.138 217.687 256.7 217.823 256.251 217.823Z" fill="#2F2E41"/>
<path d="M243.427 147.045C243.59 147.263 243.736 147.494 243.862 147.734L268.1 150.288L271.59 145.504L279.497 149.826L272.644 161.435L242.918 153.855C242.168 154.587 241.213 155.072 240.181 155.247C239.148 155.423 238.086 155.279 237.137 154.837C236.188 154.394 235.396 153.673 234.867 152.769C234.337 151.865 234.095 150.822 234.174 149.777C234.252 148.733 234.646 147.737 235.304 146.922C235.962 146.107 236.852 145.512 237.857 145.215C238.861 144.918 239.932 144.935 240.928 145.262C241.923 145.589 242.795 146.211 243.427 147.045Z" fill="#FFB8B8"/>
<path d="M299.753 176.278C299.402 176.276 299.057 176.192 298.745 176.031C293.899 173.567 284.461 169.299 275.709 168.406C275.41 168.376 275.119 168.285 274.858 168.137C274.596 167.988 274.367 167.787 274.188 167.546C274.005 167.302 273.874 167.023 273.803 166.726C273.733 166.429 273.724 166.121 273.778 165.82C274.568 161.449 276.379 150.317 276.146 141.395C276.077 138.652 276.944 135.967 278.604 133.781C280.263 131.596 282.617 130.041 285.278 129.37C286.88 128.948 288.507 128.627 290.15 128.41C292.038 128.171 293.955 128.377 295.749 129.013C297.543 129.648 299.163 130.694 300.479 132.068C301.796 133.442 302.772 135.106 303.331 136.925C303.889 138.744 304.013 140.669 303.694 142.545C302.133 151.791 300.56 164.704 301.927 173.719C301.99 174.123 301.94 174.536 301.782 174.913C301.624 175.29 301.365 175.617 301.033 175.856C300.662 176.128 300.213 176.276 299.753 176.278Z" fill="#0054A9"/>
<path d="M276.595 152.761C276.293 152.761 275.994 152.698 275.717 152.578L269.403 149.845C268.866 149.611 268.442 149.174 268.227 148.629C268.011 148.084 268.02 147.475 268.252 146.937L273.133 135.662C273.428 134.98 273.853 134.363 274.386 133.846C274.919 133.329 275.549 132.922 276.239 132.649C276.93 132.375 277.667 132.24 278.41 132.252C279.152 132.263 279.885 132.421 280.566 132.716C281.248 133.011 281.865 133.437 282.381 133.971C282.898 134.504 283.304 135.134 283.577 135.825C283.85 136.515 283.985 137.253 283.972 137.995C283.96 138.738 283.802 139.47 283.506 140.152L278.625 151.427C278.454 151.823 278.17 152.16 277.81 152.397C277.449 152.634 277.027 152.761 276.595 152.761Z" fill="#0054A9"/>
<path d="M291.049 124.574C297.715 124.574 303.119 119.17 303.119 112.504C303.119 105.838 297.715 100.434 291.049 100.434C284.383 100.434 278.979 105.838 278.979 112.504C278.979 119.17 284.383 124.574 291.049 124.574Z" fill="#FFB8B8"/>
<path d="M278.761 106.574C284.478 110.064 290.924 112.188 297.596 112.78L295.611 110.401C297.056 110.935 298.577 111.238 300.117 111.296C301.656 111.272 303.268 110.68 304.141 109.413C304.53 108.783 304.761 108.069 304.815 107.33C304.868 106.592 304.743 105.851 304.448 105.172C303.843 103.817 302.901 102.639 301.712 101.751C299.605 100.084 297.118 98.9647 294.474 98.4921C291.829 98.0194 289.108 98.2084 286.554 99.0422C284.802 99.5658 283.233 100.572 282.027 101.946C280.882 103.358 278.679 104.616 279.265 106.336L278.761 106.574Z" fill="#2F2E41"/>
<path d="M293.078 96.8328C289.271 92.9722 284.664 89.9931 279.582 88.1051C276.319 86.8964 272.768 86.1497 269.357 86.8361C265.946 87.5225 262.72 89.8821 261.769 93.2287C260.991 95.9652 261.794 98.9117 263.002 101.488C264.209 104.064 265.821 106.453 266.798 109.125C267.794 111.851 268.094 114.783 267.67 117.655C267.245 120.527 266.111 123.247 264.368 125.569C262.626 127.891 260.332 129.741 257.693 130.951C255.054 132.161 252.155 132.693 249.259 132.499C252.61 132.948 255.699 134.523 258.975 135.362C262.251 136.2 266.117 136.143 268.551 133.796C271.127 131.313 271.179 127.276 271.054 123.701L270.499 107.756C270.404 105.045 270.324 102.248 271.301 99.7179C272.279 97.188 274.602 94.9726 277.314 94.9957C279.369 95.0131 281.189 96.2583 282.837 97.4863C284.486 98.7143 286.23 100.024 288.278 100.207C290.325 100.39 292.663 98.8746 292.51 96.8248" fill="#2F2E41"/>
<path d="M236.972 138.156L264.764 138.812L268.791 168.522L243.124 169.098L236.972 138.156Z" fill="#E6E6E6"/>
<path d="M266.525 146.063C266.688 146.28 266.833 146.511 266.96 146.751L291.198 149.305L294.687 144.521L302.595 148.843L295.742 160.452L266.016 152.872C265.266 153.604 264.311 154.089 263.278 154.264C262.246 154.44 261.184 154.297 260.235 153.854C259.286 153.411 258.494 152.69 257.964 151.786C257.435 150.882 257.193 149.839 257.271 148.794C257.349 147.75 257.744 146.754 258.402 145.939C259.059 145.124 259.95 144.529 260.954 144.232C261.959 143.936 263.03 143.952 264.025 144.279C265.02 144.606 265.892 145.228 266.525 146.062V146.063Z" fill="#FFB8B8"/>
<path d="M299.694 153.252C299.392 153.252 299.093 153.19 298.816 153.069L292.502 150.336C291.964 150.102 291.541 149.665 291.325 149.12C291.11 148.575 291.119 147.966 291.351 147.428L296.232 136.153C296.526 135.471 296.952 134.854 297.485 134.337C298.018 133.82 298.648 133.413 299.338 133.14C300.028 132.866 300.766 132.731 301.508 132.743C302.251 132.754 302.984 132.912 303.665 133.207C304.347 133.502 304.963 133.928 305.48 134.462C305.996 134.995 306.403 135.625 306.676 136.316C306.949 137.006 307.083 137.744 307.071 138.486C307.059 139.229 306.9 139.962 306.605 140.643L301.724 151.918C301.552 152.314 301.269 152.651 300.908 152.888C300.548 153.125 300.126 153.252 299.694 153.252Z" fill="#0054A9"/>
<path d="M242.561 153.093H46.9659C46.1187 153.093 45.3062 153.43 44.7071 154.029C44.108 154.628 43.7715 155.44 43.7715 156.288C43.7715 157.135 44.108 157.947 44.7071 158.546C45.3062 159.146 46.1187 159.482 46.9659 159.482H52.6175V229.022C52.6175 229.869 52.9541 230.681 53.5531 231.28C54.1522 231.879 54.9647 232.216 55.8119 232.216C56.6591 232.216 57.4716 231.879 58.0707 231.28C58.6697 230.681 59.0063 229.869 59.0063 229.022V165.62L94.8185 230.529C95.243 231.261 95.9405 231.795 96.758 232.013C97.5755 232.231 98.4462 232.116 99.1789 231.693C99.9116 231.27 100.447 230.573 100.666 229.756C100.886 228.939 100.773 228.069 100.351 227.335L62.9151 159.482H233.961V159.523L196.548 227.335C196.124 228.069 196.009 228.94 196.229 229.759C196.448 230.577 196.983 231.275 197.717 231.698C198.451 232.122 199.322 232.237 200.141 232.018C200.959 231.798 201.657 231.263 202.08 230.529L233.961 172.746V229.022C233.961 229.869 234.298 230.681 234.897 231.28C235.496 231.879 236.308 232.216 237.155 232.216C238.003 232.216 238.815 231.879 239.414 231.28C240.013 230.681 240.35 229.869 240.35 229.022V161.166L241.279 159.482H242.561C243.408 159.482 244.221 159.146 244.82 158.546C245.419 157.947 245.756 157.135 245.756 156.288C245.756 155.44 245.419 154.628 244.82 154.029C244.221 153.43 243.408 153.093 242.561 153.093Z" fill="#3F3D56"/>
<path d="M363.415 232.937H0.583464C0.428565 232.936 0.280166 232.874 0.170794 232.765C0.061422 232.655 0 232.506 0 232.352C0 232.197 0.061422 232.048 0.170794 231.938C0.280166 231.829 0.428565 231.767 0.583464 231.766H363.415C363.57 231.766 363.719 231.828 363.829 231.938C363.938 232.047 364 232.196 364 232.352C364 232.507 363.938 232.656 363.829 232.765C363.719 232.875 363.57 232.937 363.415 232.937Z" fill="#3F3D56"/>
</svg>
