<svg width="358" height="248" viewBox="0 0 358 248" fill="none" xmlns="http://www.w3.org/2000/svg">
<path d="M315.442 214.469C315.442 214.469 360.857 193.562 344.902 179.064C328.948 164.566 315.442 214.469 315.442 214.469Z" fill="#E6E6E6"/>
<path d="M316.234 219.347C316.234 219.347 337.108 150.761 306.37 154.041C275.632 157.321 316.234 219.347 316.234 219.347Z" fill="#E6E6E6"/>
<path d="M331.452 213.265L330.576 224.738L330.562 224.936C330.563 226.727 330.472 228.518 330.291 230.3C329.102 242.003 323.991 247.336 318.018 247.336C312.045 247.336 307.157 242.003 305.968 230.3C305.787 228.518 305.696 226.727 305.697 224.936L305.69 224.776L305.686 224.738L304.807 213.265H331.452Z" fill="#E6E6E6"/>
<path d="M305.686 224.738L305.689 224.776L305.696 224.936C305.695 226.727 305.786 228.518 305.967 230.3H330.29C330.472 228.518 330.562 226.727 330.561 224.936L330.575 224.738H305.686Z" fill="white"/>
<path d="M19.2346 221.486C19.2346 221.486 54.3955 205.299 42.0435 194.075C29.6915 182.85 19.2346 221.486 19.2346 221.486Z" fill="#E6E6E6"/>
<path d="M19.8481 225.262C19.8481 225.262 36.0093 172.162 12.2112 174.701C-11.5868 177.241 19.8481 225.262 19.8481 225.262Z" fill="#E6E6E6"/>
<path d="M31.6309 220.553L30.9525 229.436L30.9418 229.589C30.9424 230.976 30.8724 232.362 30.7318 233.742C29.8113 242.803 25.8545 246.932 21.2301 246.932C16.6058 246.932 12.8213 242.803 11.9007 233.742C11.7602 232.362 11.6901 230.976 11.6908 229.589L11.6854 229.465L11.6827 229.436L11.0017 220.553H31.6309Z" fill="#E6E6E6"/>
<path d="M11.6823 229.435L11.685 229.465L11.6904 229.589C11.6897 230.976 11.7598 232.362 11.9003 233.742H30.7314C30.872 232.362 30.942 230.976 30.9414 229.589L30.9521 229.435H11.6823Z" fill="white"/>
<path d="M238.682 73.852V58.248H241.108V73.852C241.804 74.1336 242.38 74.6484 242.738 75.3083C243.096 75.9682 243.214 76.7321 243.07 77.469C242.927 78.2059 242.532 78.87 241.952 79.3475C241.373 79.825 240.646 80.0861 239.895 80.0861C239.144 80.0861 238.417 79.825 237.837 79.3475C237.258 78.87 236.863 78.2059 236.719 77.469C236.576 76.7321 236.693 75.9682 237.051 75.3083C237.409 74.6484 237.986 74.1336 238.682 73.852Z" fill="#E6E6E6"/>
<path d="M233.02 231.325H249.6V29.941H256.07V231.325H272.65C274.615 231.325 276.561 231.712 278.376 232.463C280.191 233.215 281.841 234.318 283.23 235.707C284.619 237.096 285.721 238.746 286.473 240.561C287.225 242.376 287.612 244.322 287.612 246.287V246.287H218.058V246.287C218.058 244.322 218.445 242.376 219.197 240.561C219.949 238.746 221.051 237.096 222.44 235.707C223.83 234.318 225.479 233.215 227.295 232.463C229.11 231.712 231.056 231.325 233.02 231.325Z" fill="#E6E6E6"/>
<path d="M287.578 59.8655H218.091L222.34 6.75353C222.496 4.92212 223.331 3.21513 224.681 1.96838C226.032 0.721628 227.8 0.0253741 229.638 0.0166016H276.031C277.869 0.0253737 279.638 0.721625 280.988 1.96837C282.339 3.21512 283.174 4.9221 283.329 6.75351L287.578 59.8655Z" fill="#0054A9"/>
<path d="M190.828 153.084C191.481 152.975 192.15 152.998 192.795 153.15C193.44 153.301 194.048 153.58 194.585 153.969C195.121 154.358 195.575 154.85 195.92 155.415C196.265 155.981 196.494 156.61 196.593 157.265L198.55 170.104L191.894 171.869L187.016 159.907C186.733 159.212 186.61 158.462 186.655 157.713C186.701 156.964 186.915 156.234 187.281 155.579C187.647 154.924 188.156 154.359 188.77 153.927C189.384 153.495 190.087 153.207 190.828 153.084Z" fill="#A0616A"/>
<path d="M190.952 170.08C187.258 184.76 188.848 198.187 202.603 208.729C219.102 204.181 230.075 193.208 236.77 177.261C237.186 176.269 237.397 175.204 237.39 174.128C237.384 173.053 237.159 171.99 236.73 171.004C236.301 170.018 235.676 169.129 234.894 168.391C234.112 167.653 233.188 167.081 232.179 166.71C230.663 166.152 229.013 166.069 227.448 166.473C225.884 166.876 224.479 167.746 223.421 168.967L207.233 187.651L199.639 168.811L190.952 170.08Z" fill="#0054A9"/>
<path d="M106.42 247.098C121.485 246.298 130.843 241.126 133.109 230.519L130.683 226.07L102.904 238.725C102.203 239.045 101.612 239.566 101.208 240.222C100.803 240.877 100.603 241.639 100.632 242.409C100.661 243.179 100.919 243.923 101.372 244.546C101.825 245.17 102.454 245.644 103.177 245.909L106.42 247.098Z" fill="#E6E6E6"/>
<path d="M118.059 247.205C125.886 246.968 133.414 247.041 140.546 247.524C141.798 247.61 143.032 247.198 143.982 246.38C144.932 245.561 145.52 244.4 145.62 243.15L146.048 237.798L152.114 228.092L146.857 222.835C138.023 231.634 128.334 239.025 116.826 243.418C116.457 243.672 116.179 244.038 116.035 244.462C115.89 244.887 115.887 245.347 116.026 245.773C116.165 246.199 116.438 246.569 116.804 246.827C117.171 247.085 117.611 247.218 118.059 247.205Z" fill="#E6E6E6"/>
<path d="M160.606 209.086C170.601 226.97 180.431 239.027 193.361 245.481C209.269 250.731 220.896 243.775 229.958 229.507L203.673 212.119L199.831 215.961L165.015 189.466C164.164 188.661 163.03 188.224 161.859 188.25C160.688 188.276 159.575 188.763 158.761 189.605L129.064 226.07L132.704 232.136L160.606 209.086Z" fill="#2F2E41"/>
<path d="M151.711 230.114L165.46 209.086L162.225 203.021L144.028 222.027L151.711 230.114Z" fill="#2F2E41"/>
<path d="M230.97 162.986C223.376 162.986 217.221 156.831 217.221 149.237C217.221 141.644 223.376 135.488 230.97 135.488C238.563 135.488 244.719 141.644 244.719 149.237C244.719 156.831 238.563 162.986 230.97 162.986Z" fill="#A0616A"/>
<path d="M227.33 174.714L242.696 169.457C240.422 165.843 239.426 161.572 239.866 157.325H227.33C228.043 163.495 228.149 169.347 227.33 174.714Z" fill="#A0616A"/>
<path d="M194.575 211.512C196.878 212.458 197.047 215.525 199.225 216.567C209.755 221.605 220.896 225.693 228.543 232.945C246.414 220.809 262.978 183.118 241.483 166.626C234.146 170.919 227.592 173.992 227.734 166.626L194.575 211.512Z" fill="#0054A9"/>
<path opacity="0.2" d="M203.875 195.337L211.356 192.709L226.116 204.233L232.733 180.414C233.192 178.762 233.935 179.599 235.003 180.747C236.116 179.717 237.5 179.026 238.993 178.757C240.485 178.488 242.023 178.651 243.426 179.227C244.829 179.803 246.038 180.769 246.91 182.009C247.782 183.25 248.281 184.714 248.349 186.229C249.136 203.507 243.926 218.124 230.969 229.305C214.022 225.677 206.83 214.227 203.875 199.381L204.676 198.847C204.381 197.699 204.114 196.53 203.875 195.337Z" fill="black"/>
<path d="M229.119 131.151C224.584 132.187 219.422 133.655 219.132 135.02C214.467 136.195 210.946 139.011 210.227 143.304C210.167 143.675 210.189 144.055 210.291 144.417C210.394 144.778 210.575 145.113 210.82 145.397C211.066 145.681 211.372 145.908 211.715 146.062C212.058 146.215 212.43 146.292 212.806 146.286C215.343 146.253 219.152 146.01 221.667 144.96C228.973 149.667 230.199 161.911 227.009 170.245L232.029 169.785L237.224 154.579L238.55 169.187L250.008 167.672L248.532 149.044C248.079 144.654 246.584 140.435 244.174 136.738C243.923 136.366 243.649 136.011 243.354 135.675C241.611 133.706 239.367 132.246 236.861 131.449C234.354 130.652 231.679 130.549 229.119 131.151Z" fill="#2F2E41"/>
<path d="M203.27 177.31L190.686 192.104L171.811 169.828L184.565 154.354L203.27 177.31Z" fill="#3F3D56"/>
<path d="M175.043 170.338L190.007 158.095C189.157 156.054 185.076 156.734 185.076 156.734L173.362 168.61C172.954 169.023 172.604 169.49 172.322 169.998L175.043 170.338Z" fill="#F2F2F2"/>
<path d="M174.364 169.488L191.368 156.224L210.243 184.792L192.473 196.78C190.773 197.46 189.073 196.27 189.073 196.27L171.728 169.743L174.364 169.488Z" fill="#3F3D56"/>
<path d="M189.245 160.364L189.406 160.588L178.522 168.409L178.362 168.185L189.245 160.364Z" fill="#0054A9"/>
<path d="M178.219 171.112L192.503 192.708L192.273 192.86L177.989 171.264L178.219 171.112Z" fill="#0054A9"/>
<path d="M205.569 184.849L205.732 185.071L194.172 193.577L194.009 193.355L205.569 184.849Z" fill="#0054A9"/>
<path d="M191.312 160.737L206.105 181.992L205.879 182.15L191.085 160.894L191.312 160.737Z" fill="#0054A9"/>
<path d="M186.741 156.566L186.855 156.691L173.4 169.04L173.285 168.915L186.741 156.566Z" fill="#B3B3B3"/>
<path d="M187.862 156.672L187.975 156.799L173.912 169.214L173.799 169.087L187.862 156.672Z" fill="#B3B3B3"/>
<path d="M188.742 156.919L188.851 157.05L174.252 169.218L174.143 169.088L188.742 156.919Z" fill="#B3B3B3"/>
<path d="M196.479 181.653C197.023 181.275 197.637 181.008 198.284 180.869C198.932 180.73 199.601 180.72 200.253 180.842C200.904 180.963 201.525 181.213 202.079 181.576C202.633 181.94 203.109 182.41 203.48 182.959L210.751 193.72L205.494 198.168L195.96 189.451C195.406 188.945 194.973 188.32 194.694 187.623C194.414 186.927 194.294 186.176 194.344 185.427C194.394 184.678 194.612 183.95 194.981 183.297C195.351 182.643 195.863 182.082 196.479 181.653Z" fill="#A0616A"/>
<path d="M203.875 196.955C206.83 211.801 214.022 223.251 230.969 226.879C243.926 215.698 249.136 201.081 248.349 183.803C248.3 182.728 248.034 181.675 247.566 180.707C247.099 179.738 246.441 178.874 245.63 178.167C244.82 177.46 243.875 176.925 242.852 176.593C241.829 176.262 240.749 176.141 239.678 176.238C238.069 176.384 236.543 177.017 235.302 178.052C234.062 179.087 233.165 180.475 232.733 182.032L226.116 205.851L211.18 192.085L203.875 196.955Z" fill="#0054A9"/>
<path d="M0.159698 247.56H357.052V246.677H0L0.159698 247.56Z" fill="#3F3D56"/>
<path d="M170.514 37.0205C170.729 37.0207 170.934 37.106 171.086 37.2576C171.238 37.4093 171.323 37.6148 171.323 37.8293V100.913C171.323 101.128 171.238 101.333 171.086 101.485C170.934 101.637 170.729 101.722 170.514 101.722H117.944C117.73 101.722 117.524 101.637 117.373 101.485C117.221 101.333 117.136 101.128 117.136 100.913V37.8293C117.136 37.6149 117.221 37.4093 117.373 37.2577C117.524 37.106 117.73 37.0208 117.944 37.0205H170.514Z" fill="#E6E6E6"/>
<path d="M165.055 95.4541H123.403V43.2885H165.055V95.4541Z" fill="white"/>
<path d="M82.9918 53.6003C83.1198 53.6005 83.2425 53.6514 83.333 53.7419C83.4235 53.8324 83.4745 53.9552 83.4746 54.0832V85.4683C83.4745 85.5963 83.4235 85.719 83.333 85.8095C83.2425 85.9 83.1198 85.9509 82.9918 85.9511H45.3297C45.2017 85.9509 45.0789 85.9 44.9884 85.8095C44.8979 85.719 44.847 85.5963 44.8469 85.4683V54.0832C44.847 53.9552 44.8979 53.8325 44.9884 53.742C45.0789 53.6514 45.2017 53.6005 45.3297 53.6004L82.9918 53.6003Z" fill="#E6E6E6"/>
<path d="M79.7324 57.3424V82.209H48.5888V57.3424H79.7324Z" fill="white"/>
<path d="M136.874 41.4688H151.583C151.939 41.4702 152.288 41.3776 152.596 41.2005C152.904 41.0234 153.16 40.7679 153.338 40.4601C153.516 40.1523 153.609 39.8029 153.608 39.4475C153.608 39.092 153.513 38.743 153.334 38.4359L145.98 25.6978C145.974 25.6873 145.968 25.6768 145.961 25.6664C145.801 25.3954 145.578 25.1663 145.312 24.9978C145.046 24.8292 144.744 24.726 144.43 24.6965L144.42 24.6955C144.357 24.6898 144.293 24.6868 144.229 24.6868C143.873 24.6847 143.524 24.7772 143.216 24.9549C142.908 25.1326 142.654 25.389 142.478 25.6978L135.123 38.4359C134.946 38.7433 134.853 39.0919 134.853 39.4468C134.853 39.8017 134.946 40.1504 135.123 40.4577C135.301 40.7651 135.556 41.0203 135.864 41.1978C136.171 41.3753 136.52 41.4687 136.874 41.4688ZM151.989 39.4449C151.988 39.5166 151.969 39.5869 151.933 39.649C151.898 39.711 151.848 39.7624 151.786 39.798C151.724 39.8336 151.654 39.852 151.583 39.8512H136.874C136.803 39.852 136.733 39.8336 136.672 39.798C136.61 39.7625 136.559 39.711 136.524 39.649C136.488 39.587 136.469 39.5167 136.469 39.4451C136.469 39.3746 136.488 39.3055 136.524 39.2448L143.879 26.5065C143.914 26.4451 143.965 26.394 144.027 26.3585C144.088 26.323 144.158 26.3043 144.229 26.3043C144.3 26.3043 144.37 26.323 144.431 26.3585C144.493 26.394 144.544 26.4451 144.579 26.5065L151.933 39.2446C151.969 39.3053 151.989 39.3744 151.989 39.4449Z" fill="#E6E6E6"/>
<path d="M60.1744 54.6112H68.149C68.3418 54.612 68.5312 54.5618 68.6983 54.4658C68.8654 54.3698 69.0042 54.2313 69.1005 54.0644C69.1969 53.8975 69.2474 53.7081 69.2471 53.5154C69.2467 53.3226 69.1954 53.1334 69.0984 52.9669L65.1111 46.0607L65.1011 46.0437C65.014 45.8968 64.8934 45.7726 64.7491 45.6812C64.6048 45.5898 64.441 45.5338 64.2709 45.5178L64.2651 45.5173C64.2311 45.5142 64.1965 45.5126 64.1617 45.5126C63.9691 45.5114 63.7796 45.5616 63.6127 45.6579C63.4459 45.7543 63.3077 45.8933 63.2124 46.0607L59.2251 52.9669C59.1289 53.1336 59.0783 53.3226 59.0783 53.515C59.0783 53.7074 59.1289 53.8965 59.2251 54.0631C59.3213 54.2297 59.4597 54.3681 59.6263 54.4643C59.793 54.5606 59.982 54.6112 60.1744 54.6112ZM68.3691 53.514C68.3688 53.5528 68.3584 53.591 68.3389 53.6246C68.32 53.6582 68.2924 53.6861 68.259 53.7054C68.2256 53.7247 68.1876 53.7347 68.149 53.7343H60.1744C60.1359 53.7347 60.0979 53.7247 60.0645 53.7054C60.0311 53.6862 60.0034 53.6582 59.9845 53.6246C59.9651 53.591 59.9547 53.5529 59.9543 53.5141C59.9546 53.4758 59.965 53.4384 59.9845 53.4055L63.9718 46.4992C63.9911 46.4659 64.0187 46.4382 64.0521 46.4189C64.0854 46.3997 64.1232 46.3896 64.1617 46.3896C64.2002 46.3896 64.238 46.3997 64.2713 46.4189C64.3047 46.4382 64.3324 46.4659 64.3516 46.4992L68.3389 53.4054C68.3585 53.4383 68.3689 53.4757 68.3691 53.514Z" fill="#E6E6E6"/>
<path d="M64.1606 47.5956C63.7974 47.5956 63.5029 47.3011 63.5029 46.9379C63.5029 46.5746 63.7974 46.2802 64.1606 46.2802C64.5239 46.2802 64.8184 46.5746 64.8184 46.9379C64.8184 47.3011 64.5239 47.5956 64.1606 47.5956Z" fill="#E6E6E6"/>
<path d="M164.578 75.5912C163.997 74.2569 163.15 73.055 162.089 72.0589C161.028 71.0628 159.775 70.2933 158.406 69.7975C156.983 69.2482 155.459 69.0129 153.936 69.1076C152.414 69.2023 150.93 69.6249 149.586 70.3463C146.43 72.0211 143.907 74.6542 140.703 76.2571C137.586 77.801 134.157 78.6088 130.68 78.6183C126.742 78.649 122.866 77.6429 119.44 75.701C119.307 75.6169 119.212 75.4845 119.175 75.3316C119.137 75.1787 119.161 75.0172 119.24 74.8813C119.32 74.7454 119.449 74.6457 119.6 74.6032C119.752 74.5607 119.914 74.5787 120.053 74.6534C123.157 76.3932 126.644 77.3378 130.202 77.4031C133.76 77.4684 137.28 76.6523 140.446 75.0276C143.661 73.3417 146.209 70.6196 149.484 69.04C150.875 68.3652 152.385 67.9731 153.928 67.8865C155.472 67.7999 157.017 68.0205 158.474 68.5354C160.094 69.0788 161.58 69.9601 162.834 71.1209C164.088 72.2816 165.081 73.6954 165.748 75.2688C166.042 75.9914 164.869 76.3059 164.578 75.5913V75.5912Z" fill="#E6E6E6"/>
<path d="M165.537 86.9312C158.804 85.4282 151.821 85.4524 145.099 87.0021C139.128 88.3869 132.963 90.8781 126.807 89.0201C124.056 88.19 121.536 86.5298 120.123 83.9747C119.745 83.2909 120.792 82.6783 121.17 83.3623C123.831 88.1733 130.064 88.985 134.986 88.1956C138.276 87.6682 141.446 86.6106 144.684 85.8537C151.644 84.2218 158.884 84.1902 165.859 85.7614C166.621 85.9315 166.298 87.1013 165.537 86.9312Z" fill="#E6E6E6"/>
<path d="M165.974 59.8137C159.519 58.7158 152.908 58.951 146.547 60.5048C140.604 61.9608 134.796 65.287 128.512 64.7126C125.603 64.4466 122.723 63.3768 120.747 61.1513C120.23 60.5693 121.085 59.7082 121.605 60.2935C123.31 62.2133 125.765 63.2083 128.285 63.4771C131.189 63.7869 134.043 63.1852 136.807 62.3303C139.867 61.384 142.839 60.1852 145.95 59.4031C152.605 57.732 159.536 57.4734 166.297 58.6439C167.065 58.775 166.739 59.9443 165.974 59.8137Z" fill="#E6E6E6"/>
<path d="M74.3098 56.9326C71.5206 59.7888 69.5968 63.376 68.7608 67.2796C68.1178 70.3849 68.1903 73.5958 68.9728 76.6689C69.7552 79.7421 71.2271 82.5967 73.2768 85.0164C73.7795 85.6082 72.9254 86.4704 72.419 85.8742C69.6266 82.5843 67.8435 78.558 67.2839 74.2792C66.8761 70.9763 67.219 67.6239 68.287 64.4719C69.3549 61.32 71.1205 58.4496 73.452 56.0748C73.9995 55.5164 74.857 56.3745 74.3098 56.9326Z" fill="#E6E6E6"/>
<path d="M56.1078 54.344C59.8257 57.0708 61.9071 61.4722 62.2 66.0247C62.5048 70.7614 60.6983 75.336 57.7892 79.0137C56.0919 81.1313 54.0644 82.9615 51.7847 84.4339C51.1295 84.8627 50.521 83.8127 51.1724 83.3864C54.8865 80.9563 58.0646 77.5041 59.7524 73.3614C60.5751 71.3935 61.0016 69.2828 61.0077 67.1499C61.0137 65.017 60.5991 62.9039 59.7875 60.9314C58.8787 58.7338 57.3964 56.8205 55.4955 55.3915C54.8724 54.9345 55.4769 53.8813 56.1078 54.344Z" fill="#E6E6E6"/>
<path d="M141.399 66.5407C138.272 66.5407 135.738 64.006 135.738 60.8793C135.738 57.7526 138.272 55.2179 141.399 55.2179C144.526 55.2179 147.061 57.7526 147.061 60.8793C147.061 64.006 144.526 66.5407 141.399 66.5407Z" fill="#E6E6E6"/>
</svg>
