<svg width="45" height="41" viewBox="0 0 45 41" fill="none" xmlns="http://www.w3.org/2000/svg">
<circle cx="17" cy="17" r="17" fill="#00CCFF" fill-opacity="0.13"/>
<path d="M43.2042 25.886L44.9671 21.2513C45.0418 21.0543 44.9866 20.831 44.8291 20.693L42.9851 19.0781C43.1455 17.6347 43.1083 16.176 42.8744 14.7431L44.6485 13.0169C44.7977 12.8717 44.8416 12.6477 44.7589 12.4557L42.7955 7.90226C42.7121 7.70792 42.5167 7.58813 42.3082 7.60408L39.8514 7.78735C38.9769 6.63403 37.9323 5.62459 36.7546 4.79418L36.8268 2.30361C36.8332 2.0917 36.7068 1.89866 36.5118 1.82249L31.9441 0.0334253C31.75 -0.0424213 31.5296 0.0135684 31.3935 0.1734L29.802 2.04515C28.3795 1.88206 26.9416 1.91982 25.5294 2.15713L23.8279 0.357319C23.6848 0.205952 23.4641 0.16103 23.2748 0.245014L18.7873 2.23721C18.5957 2.32249 18.478 2.52074 18.4934 2.732L18.674 5.22484C17.5377 6.11189 16.5429 7.17179 15.7248 8.36678L13.27 8.29354C13.0608 8.28605 12.8702 8.41463 12.7958 8.6132L11.0329 13.2483C10.9582 13.4452 11.0134 13.6686 11.1709 13.8066L13.0152 15.4218C12.8548 16.8648 12.892 18.3238 13.1259 19.7565L11.3518 21.4827C11.2027 21.6279 11.1587 21.8518 11.2415 22.0439L13.2048 26.5973C13.2882 26.7923 13.4839 26.9121 13.6925 26.8955L16.1492 26.7122C17.0238 27.8655 18.0683 28.875 19.246 29.705L19.1738 32.1959C19.1677 32.4079 19.2938 32.6006 19.4889 32.6771L22.9957 34.0504V36.9036C22.9973 38.0436 23.9074 38.9671 25.0309 38.9684H27.5072V40.5C27.5072 40.7764 27.7276 41 28 41C28.272 41 28.4928 40.7764 28.4928 40.5V38.9687H30.9688C32.0923 38.9674 33.0027 38.0436 33.004 36.9036V34.1302L37.2124 32.262C37.4036 32.1771 37.5217 31.9788 37.5063 31.7676L37.3257 29.2744C38.462 28.3873 39.4568 27.3274 40.2749 26.1324L42.7297 26.2057C42.9392 26.2135 43.1301 26.0849 43.2042 25.886ZM32.0185 30.1585V31.3252H30.409V24.7366C30.4096 24.1764 30.8568 23.7226 31.4089 23.722C32.5052 23.721 33.3938 22.8193 33.3948 21.707V21.4384C34.252 21.2106 34.8509 20.4261 34.8545 19.5266C34.858 18.6275 34.2651 17.8382 33.4098 17.6035C32.5542 17.3684 31.6502 17.7467 31.2062 18.525C30.7625 19.3037 30.8899 20.2874 31.5171 20.9228C31.7634 21.1728 32.0717 21.3509 32.4092 21.4384V21.7073C32.4086 22.2675 31.9611 22.7213 31.4089 22.722C30.3127 22.7233 29.4247 23.6246 29.4234 24.7369V31.3252H28.5265V16.6822C29.4841 16.4306 30.108 15.496 29.9829 14.5003C29.8578 13.5045 29.0231 12.7584 28.0337 12.7584C27.0446 12.7584 26.2096 13.5045 26.0844 14.5003C25.9596 15.496 26.5833 16.4306 27.5409 16.6822V31.3252H26.6443V24.7366C26.643 23.6246 25.7546 22.7233 24.6584 22.722C24.1063 22.7213 23.6591 22.2672 23.6585 21.707V21.4384C23.996 21.3509 24.3039 21.1728 24.5506 20.9231C25.1833 20.2854 25.3138 19.2955 24.8682 18.5117C24.423 17.7278 23.5131 17.3466 22.6524 17.5829C21.7917 17.8193 21.1956 18.6139 21.2004 19.5188C21.2052 20.4235 21.8096 21.2115 22.6729 21.4384V21.7073C22.6739 22.8196 23.5625 23.7213 24.6588 23.7223C25.2109 23.7229 25.6581 24.1767 25.6587 24.7369V31.3252H23.9812V30.1585C23.9863 28.0104 23.106 25.9576 21.5533 24.4974C18.6589 21.8007 17.6917 17.5784 19.1174 13.8629C20.5434 10.1474 24.0697 7.70044 27.9994 7.70011C28.0292 7.70011 28.0594 7.70011 28.0889 7.70044C31.7737 7.73559 35.1085 9.92212 36.6539 13.3167C38.1992 16.7112 37.6779 20.7054 35.3151 23.5745C35.0604 23.8834 34.7871 24.1761 34.4967 24.4505C32.9283 25.9235 32.031 27.9899 32.0185 30.1585ZM32.2139 20.2154C31.834 19.83 31.834 19.2047 32.2139 18.8193C32.594 18.4335 33.21 18.4335 33.5901 18.8193C33.97 19.2047 33.97 19.83 33.5898 20.2154C33.4082 20.4023 33.1606 20.5074 32.902 20.5074C32.6434 20.5078 32.3958 20.4026 32.2139 20.2158V20.2154ZM27.3459 15.4596C26.9657 15.0742 26.9657 14.4488 27.3459 14.0634C27.7257 13.6777 28.342 13.6777 28.7218 14.0634C29.102 14.4488 29.102 15.0742 28.7218 15.4596C28.3417 15.8447 27.726 15.8447 27.3459 15.4599V15.4596ZM22.4776 20.2158C22.0977 19.8304 22.0977 19.2053 22.4776 18.8196C22.8577 18.4342 23.4737 18.4342 23.8535 18.8196C24.2337 19.2053 24.2337 19.8304 23.8535 20.2158C23.6719 20.4026 23.4243 20.5078 23.1657 20.5078C22.9071 20.5078 22.6591 20.4026 22.4776 20.2158ZM30.9688 37.9687H25.0312C24.4518 37.9678 23.9822 37.4915 23.9815 36.9036V36.7308H28.2996C28.5717 36.7308 28.7924 36.5068 28.7924 36.2308C28.7924 35.9544 28.5717 35.7308 28.2996 35.7308H23.9815V34.4928H25.2616C25.5336 34.4928 25.7543 34.2689 25.7543 33.9928C25.7543 33.7165 25.5336 33.4928 25.2616 33.4928H23.9812V32.3252H32.0185V33.4925H28.0725C27.8005 33.4925 27.5797 33.7161 27.5797 33.9925C27.5797 34.2685 27.8005 34.4925 28.0725 34.4925H32.0185V35.7305H30.8677C30.5957 35.7305 30.375 35.9544 30.375 36.2305C30.375 36.5065 30.5957 36.7305 30.8677 36.7305H32.0185V36.9033C32.0178 37.4912 31.5485 37.9678 30.9688 37.9687ZM40.0343 25.125C39.8646 25.1201 39.7042 25.2041 39.6098 25.3476C38.776 26.6175 37.7312 27.7311 36.5217 28.6377C36.3857 28.7399 36.3109 28.9052 36.3234 29.0765L36.498 31.4883L33.0043 33.039V30.151C33.0178 28.2623 33.8012 26.4635 35.1688 25.1819C37.376 23.0966 38.5945 20.1503 38.5146 17.0911C38.3885 12.2408 35.054 8.08716 30.3981 6.98103C25.7421 5.87491 20.9367 8.09464 18.7016 12.384C16.4665 16.6734 17.3645 21.9531 20.887 25.2343C22.2366 26.5048 23.0011 28.2903 22.9957 30.1585V32.9782L20.1693 31.8714L20.2393 29.4606C20.2441 29.2881 20.1613 29.1253 20.0198 29.0296C18.768 28.1839 17.6708 27.1237 16.7774 25.8964C16.677 25.7581 16.5137 25.6819 16.3449 25.6949L13.968 25.8724L12.2822 21.9628L13.9972 20.2939C14.1166 20.1777 14.1705 20.0084 14.141 19.843C13.8689 18.3378 13.8298 16.7991 14.0245 15.2818C14.046 15.1148 13.9834 14.9485 13.858 14.8385L12.0775 13.2796L13.5895 9.30363L15.9657 9.37459C16.1358 9.38078 16.2965 9.29647 16.3902 9.15226C17.2236 7.88208 18.2685 6.76879 19.478 5.86189C19.614 5.76 19.6891 5.59431 19.6766 5.42341L19.502 3.01162L23.355 1.30133L24.9998 3.04157C25.1143 3.16299 25.2811 3.21768 25.4441 3.1874C26.9275 2.91169 28.4443 2.87197 29.9403 3.06957C30.1045 3.09072 30.2685 3.02725 30.3766 2.89997L31.9129 1.09332L35.8313 2.62783L35.7614 5.03865C35.7566 5.21085 35.8393 5.37361 35.9808 5.46931C37.2323 6.31502 38.3295 7.37557 39.2233 8.60278C39.3237 8.74113 39.487 8.81698 39.6557 8.80396L42.0323 8.62687L43.7181 12.5364L42.0028 14.2053C41.8831 14.3215 41.8292 14.4911 41.859 14.6562C42.1308 16.1614 42.1699 17.7001 41.9752 19.2177C41.954 19.3844 42.0166 19.5507 42.142 19.6608L43.9222 21.2197L42.4099 25.1956L40.0343 25.125Z" fill="#0054A9"/>
</svg>
