<svg width="47" height="46" viewBox="0 0 47 46" fill="none" xmlns="http://www.w3.org/2000/svg">
<circle cx="17" cy="21" r="17" fill="#00CCFF" fill-opacity="0.13"/>
<path d="M30.8765 43.6082H23.0162C22.6733 43.6084 22.334 43.5391 22.0187 43.4046C21.7034 43.27 21.4186 43.0731 21.1814 42.8255C20.9443 42.5779 20.7598 42.2849 20.6389 41.9641C20.5181 41.6432 20.4635 41.3013 20.4784 40.9588V35.6724C20.4784 35.4981 20.5476 35.331 20.6709 35.2077C20.7941 35.0845 20.9612 35.0153 21.1355 35.0153C21.3098 35.0153 21.4769 35.0845 21.6002 35.2077C21.7234 35.331 21.7926 35.4981 21.7926 35.6724V40.9588C21.7785 41.1284 21.7996 41.299 21.8546 41.4601C21.9096 41.6211 21.9973 41.769 22.1122 41.8946C22.2271 42.0201 22.3667 42.1205 22.5223 42.1895C22.6778 42.2584 22.846 42.2945 23.0162 42.2953H30.8765C31.2638 42.3059 31.642 42.1767 31.9419 41.9312C32.2417 41.6858 32.4432 41.3406 32.5094 40.9588V35.6724C32.5094 35.4981 32.5786 35.331 32.7018 35.2077C32.8251 35.0845 32.9922 35.0153 33.1665 35.0153C33.3408 35.0153 33.5079 35.0845 33.6311 35.2077C33.7544 35.331 33.8236 35.4981 33.8236 35.6724V40.9588C33.7637 41.6933 33.425 42.377 32.877 42.8697C32.329 43.3624 31.6132 43.6266 30.8765 43.6082Z" fill="#0054A9"/>
<path d="M32.6093 36.3294H21.6935C21.3851 36.3276 21.0871 36.2179 20.8512 36.0192C20.6153 35.8205 20.4565 35.5455 20.4023 35.2419C19.8514 32.66 18.6011 30.2792 16.7882 28.3601C15.0471 26.3693 13.9163 23.9192 13.531 21.3027C13.1456 18.6863 13.522 16.0142 14.6151 13.606C15.7083 11.1978 17.4719 9.1554 19.6951 7.72303C21.9183 6.29066 24.507 5.52893 27.1517 5.52893C29.7964 5.52893 32.3851 6.29066 34.6083 7.72303C36.8316 9.1554 38.5952 11.1978 39.6883 13.606C40.7814 16.0142 41.1578 18.6863 40.7725 21.3027C40.3871 23.9192 39.2563 26.3693 37.5153 28.3601C35.7017 30.279 34.4507 32.6598 33.8992 35.2419C33.8451 35.5453 33.6864 35.8202 33.4508 36.0188C33.2152 36.2174 32.9175 36.3273 32.6093 36.3294ZM27.1429 6.84904C24.752 6.8498 22.4119 7.53908 20.4023 8.83446C18.3928 10.1299 16.7988 11.9765 15.8109 14.1538C14.823 16.331 14.4831 18.7467 14.8316 21.112C15.1802 23.4774 16.2025 25.6923 17.7765 27.492C19.7477 29.5884 21.1034 32.1872 21.6948 35.0034L32.6027 35.0152C33.1964 32.1952 34.5542 29.5928 36.5276 27.4927C38.0562 25.745 39.0655 23.6047 39.4416 21.3135C39.8176 19.0223 39.5454 16.6717 38.6556 14.5271C37.7659 12.3825 36.2941 10.5295 34.4065 9.17748C32.519 7.82544 30.2909 7.02825 27.9741 6.87598C27.6964 6.85846 27.4193 6.84948 27.1429 6.84904Z" fill="#0054A9"/>
<path d="M27.1507 46C26.3582 45.9988 25.5986 45.6834 25.0384 45.1229C24.4781 44.5624 24.163 43.8026 24.1622 43.0102C24.1602 42.8298 24.2271 42.6555 24.3492 42.5228C24.4713 42.3901 24.6394 42.3089 24.8193 42.2959H29.4847C29.659 42.2959 29.8261 42.3651 29.9494 42.4884C30.0726 42.6116 30.1418 42.7787 30.1418 42.953C30.1473 43.35 30.0741 43.7441 29.9264 44.1126C29.7787 44.4811 29.5595 44.8167 29.2814 45.1C29.0032 45.3833 28.6718 45.6087 28.3061 45.7632C27.9404 45.9176 27.5477 45.9981 27.1507 46ZM25.5874 43.6101C25.7087 43.9265 25.9232 44.1986 26.2024 44.3906C26.4816 44.5826 26.8125 44.6853 27.1513 44.6853C27.4902 44.6853 27.821 44.5826 28.1003 44.3906C28.3795 44.1986 28.5939 43.9265 28.7152 43.6101H25.5874Z" fill="#0054A9"/>
<path d="M20.2312 39.2233C20.0626 39.2233 19.9005 39.1585 19.7783 39.0423C19.6561 38.9261 19.5833 38.7674 19.5749 38.599C19.5664 38.4307 19.623 38.2655 19.733 38.1377C19.8429 38.0098 19.9978 37.9292 20.1655 37.9123L33.9036 36.5048C33.9909 36.4933 34.0796 36.4994 34.1644 36.5228C34.2493 36.5462 34.3285 36.5864 34.3976 36.641C34.4666 36.6957 34.5239 36.7636 34.5661 36.8408C34.6084 36.918 34.6347 37.0029 34.6435 37.0905C34.6523 37.1781 34.6434 37.2665 34.6174 37.3506C34.5914 37.4347 34.5487 37.5127 34.492 37.58C34.4352 37.6472 34.3655 37.7024 34.287 37.7422C34.2085 37.7821 34.1229 37.8057 34.0351 37.8118L20.2969 39.2193C20.2751 39.2219 20.2532 39.2232 20.2312 39.2233Z" fill="#0054A9"/>
<path d="M20.3326 41.9233C20.1583 41.932 19.9877 41.8711 19.8583 41.7541C19.7289 41.637 19.6513 41.4733 19.6426 41.2991C19.6339 41.1248 19.6948 40.9542 19.8118 40.8248C19.9289 40.6954 20.0926 40.6178 20.2669 40.6091L33.9038 39.2121C33.991 39.2006 34.0797 39.2067 34.1646 39.2301C34.2494 39.2535 34.3287 39.2937 34.3977 39.3483C34.4667 39.4029 34.524 39.4709 34.5663 39.5481C34.6085 39.6253 34.6349 39.7102 34.6437 39.7978C34.6525 39.8854 34.6436 39.9738 34.6176 40.0579C34.5915 40.142 34.5489 40.22 34.4921 40.2872C34.4354 40.3545 34.3657 40.4097 34.2872 40.4495C34.2087 40.4893 34.123 40.513 34.0352 40.5191L20.3996 41.92C20.3773 41.9224 20.355 41.9235 20.3326 41.9233Z" fill="#0054A9"/>
<path d="M27.0994 4.00835C26.9251 4.00835 26.758 3.93912 26.6347 3.81589C26.5115 3.69265 26.4423 3.52552 26.4423 3.35124V0.657106C26.4423 0.482831 26.5115 0.315693 26.6347 0.192462C26.758 0.0692306 26.9251 0 27.0994 0C27.2736 0 27.4408 0.0692306 27.564 0.192462C27.6872 0.315693 27.7565 0.482831 27.7565 0.657106V3.35124C27.7565 3.52552 27.6872 3.69265 27.564 3.81589C27.4408 3.93912 27.2736 4.00835 27.0994 4.00835Z" fill="#0054A9"/>
<path d="M19.2068 6.15113C19.0913 6.15136 18.9777 6.1211 18.8776 6.06342C18.7774 6.00573 18.6943 5.92266 18.6365 5.82258L17.2914 3.49116C17.2056 3.34032 17.183 3.16168 17.2285 2.99422C17.2739 2.82676 17.3838 2.68408 17.5341 2.59732C17.6843 2.51056 17.8628 2.48675 18.0306 2.53111C18.1983 2.57546 18.3417 2.68436 18.4295 2.83406L19.7752 5.16547C19.8329 5.26531 19.8632 5.37856 19.8633 5.49385C19.8633 5.60914 19.833 5.72241 19.7754 5.82228C19.7178 5.92216 19.635 6.00512 19.5352 6.06284C19.4354 6.12056 19.3221 6.15101 19.2068 6.15113Z" fill="#0054A9"/>
<path d="M13.4408 11.9534C13.3254 11.9537 13.2121 11.9233 13.1123 11.8654L10.7822 10.5189C10.7047 10.4773 10.6364 10.4205 10.5813 10.3519C10.5262 10.2833 10.4855 10.2044 10.4614 10.1198C10.4374 10.0352 10.4306 9.94657 10.4415 9.85928C10.4523 9.772 10.4806 9.68777 10.5246 9.61161C10.5686 9.53544 10.6274 9.46889 10.6976 9.41589C10.7678 9.36289 10.848 9.32452 10.9333 9.30306C11.0186 9.2816 11.1073 9.27748 11.1942 9.29096C11.2811 9.30443 11.3645 9.33522 11.4393 9.3815L13.77 10.7273C13.8953 10.7996 13.9932 10.9112 14.0485 11.0449C14.1039 11.1785 14.1136 11.3267 14.0762 11.4664C14.0387 11.6061 13.9562 11.7296 13.8415 11.8176C13.7267 11.9057 13.5861 11.9534 13.4415 11.9534H13.4408Z" fill="#0054A9"/>
<path d="M11.3512 19.8604H8.65711C8.48283 19.8604 8.31569 19.7911 8.19246 19.6679C8.06923 19.5447 8 19.3775 8 19.2032C8 19.029 8.06923 18.8618 8.19246 18.7386C8.31569 18.6154 8.48283 18.5461 8.65711 18.5461H11.3512C11.5255 18.5461 11.6927 18.6154 11.8159 18.7386C11.9391 18.8618 12.0083 19.029 12.0083 19.2032C12.0083 19.3775 11.9391 19.5447 11.8159 19.6679C11.6927 19.7911 11.5255 19.8604 11.3512 19.8604Z" fill="#0054A9"/>
<path d="M11.1632 29.0992C11.0186 29.0992 10.878 29.0515 10.7632 28.9634C10.6485 28.8754 10.566 28.7519 10.5286 28.6122C10.4911 28.4725 10.5008 28.3243 10.5562 28.1907C10.6115 28.057 10.7094 27.9454 10.8347 27.8731L13.1661 26.5273C13.2409 26.4842 13.3234 26.4562 13.409 26.4449C13.4946 26.4337 13.5816 26.4394 13.6649 26.4618C13.7483 26.4841 13.8265 26.5227 13.895 26.5753C13.9634 26.6278 14.0209 26.6934 14.064 26.7682C14.1072 26.8429 14.1352 26.9255 14.1464 27.0111C14.1577 27.0966 14.152 27.1836 14.1296 27.267C14.1072 27.3504 14.0687 27.4285 14.0161 27.497C13.9635 27.5655 13.898 27.6229 13.8232 27.6661L11.4918 29.0118C11.3918 29.0693 11.2785 29.0994 11.1632 29.0992Z" fill="#0054A9"/>
<path d="M35.0958 6.15113C34.9805 6.15101 34.8672 6.12056 34.7674 6.06284C34.6676 6.00512 34.5848 5.92216 34.5272 5.82228C34.4696 5.72241 34.4393 5.60914 34.4393 5.49385C34.4394 5.37857 34.4697 5.26531 34.5274 5.16547L35.8705 2.83406C35.9582 2.68436 36.1017 2.57546 36.2694 2.53111C36.4372 2.48675 36.6157 2.51056 36.7659 2.59732C36.9162 2.68408 37.026 2.82676 37.0715 2.99422C37.117 3.16168 37.0944 3.34032 37.0086 3.49116L35.6628 5.82258C35.6053 5.92218 35.5227 6.00494 35.4232 6.0626C35.3237 6.12025 35.2108 6.15078 35.0958 6.15113Z" fill="#0054A9"/>
<path d="M40.8644 11.9534C40.7198 11.9534 40.5792 11.9057 40.4644 11.8176C40.3497 11.7296 40.2672 11.6061 40.2297 11.4664C40.1923 11.3267 40.202 11.1785 40.2573 11.0449C40.3127 10.9112 40.4106 10.7996 40.5359 10.7273L42.8666 9.3815C42.9414 9.33522 43.0247 9.30443 43.1117 9.29096C43.1986 9.27748 43.2873 9.2816 43.3726 9.30306C43.4579 9.32452 43.5381 9.36289 43.6083 9.41589C43.6785 9.46889 43.7373 9.53544 43.7813 9.61161C43.8253 9.68777 43.8536 9.772 43.8644 9.85928C43.8753 9.94657 43.8685 10.0352 43.8445 10.1198C43.8204 10.2044 43.7797 10.2833 43.7246 10.3519C43.6695 10.4205 43.6012 10.4773 43.5237 10.5189L41.193 11.8654C41.0932 11.9233 40.9798 11.9537 40.8644 11.9534Z" fill="#0054A9"/>
<path d="M45.6429 19.8604H42.9488C42.7745 19.8604 42.6074 19.7911 42.4841 19.6679C42.3609 19.5447 42.2917 19.3775 42.2917 19.2032C42.2917 19.029 42.3609 18.8618 42.4841 18.7386C42.6074 18.6154 42.7745 18.5461 42.9488 18.5461H45.6429C45.8172 18.5461 45.9843 18.6154 46.1076 18.7386C46.2308 18.8618 46.3 19.029 46.3 19.2032C46.3 19.3775 46.2308 19.5447 46.1076 19.6679C45.9843 19.7911 45.8172 19.8604 45.6429 19.8604Z" fill="#0054A9"/>
<path d="M43.1393 29.0992C43.0241 29.0992 42.9108 29.0691 42.8108 29.0118L40.4807 27.6661C40.4059 27.6229 40.3404 27.5655 40.2878 27.497C40.2352 27.4285 40.1967 27.3504 40.1743 27.267C40.1519 27.1836 40.1462 27.0966 40.1575 27.0111C40.1687 26.9255 40.1967 26.8429 40.2399 26.7682C40.283 26.6934 40.3404 26.6278 40.4089 26.5753C40.4774 26.5227 40.5556 26.4841 40.6389 26.4618C40.7223 26.4394 40.8093 26.4337 40.8949 26.4449C40.9805 26.4562 41.063 26.4842 41.1378 26.5273L43.4679 27.8731C43.5931 27.9454 43.691 28.057 43.7464 28.1907C43.8017 28.3243 43.8115 28.4725 43.774 28.6122C43.7366 28.7519 43.6541 28.8754 43.5393 28.9634C43.4246 29.0515 43.284 29.0992 43.1393 29.0992Z" fill="#0054A9"/>
<path d="M24.3192 36.3295C24.171 36.3294 24.0271 36.2791 23.911 36.1869C23.795 36.0947 23.7135 35.9659 23.6798 35.8216L20.4942 22.1531C20.4673 22.0375 20.4722 21.9167 20.5085 21.8037C20.5447 21.6907 20.6109 21.5895 20.7 21.5111C20.7891 21.4327 20.8978 21.3798 21.0145 21.3582C21.1312 21.3365 21.2516 21.3469 21.3629 21.3882L24.3409 22.4941L26.8109 21.0012C26.9135 20.9392 27.0311 20.9064 27.151 20.9064C27.2709 20.9064 27.3885 20.9392 27.4911 21.0012L29.9618 22.4941L32.9371 21.3882C33.0484 21.3469 33.1688 21.3365 33.2856 21.3582C33.4023 21.3798 33.511 21.4327 33.6001 21.5111C33.6891 21.5895 33.7553 21.6907 33.7916 21.8037C33.8278 21.9167 33.8327 22.0375 33.8058 22.1531L30.6228 35.8209C30.5833 35.9907 30.4779 36.1377 30.3299 36.2298C30.1819 36.3218 30.0034 36.3513 29.8336 36.3118C29.6639 36.2722 29.5168 36.1668 29.4248 36.0188C29.3327 35.8708 29.3032 35.6923 29.3428 35.5226L32.2485 23.0448L30.1221 23.8333C30.0293 23.8675 29.9299 23.8803 29.8315 23.871C29.733 23.8617 29.6378 23.8304 29.5531 23.7794L27.1507 22.3318L24.7496 23.7827C24.6649 23.834 24.5698 23.8655 24.4712 23.8748C24.3727 23.8841 24.2733 23.8711 24.1806 23.8366L22.0535 23.0481L24.9625 35.5232C25.0019 35.693 24.9722 35.8714 24.88 36.0193C24.7879 36.1672 24.6407 36.2724 24.471 36.3118C24.4212 36.3233 24.3703 36.3293 24.3192 36.3295Z" fill="#0054A9"/>
</svg>
