<svg width="69" height="38" viewBox="0 0 69 38" fill="none" xmlns="http://www.w3.org/2000/svg">
<circle cx="18.3281" cy="18.3281" r="18.3281" fill="#00CCFF" fill-opacity="0.13"/>
<path d="M67.1959 6.8828H62.1046C61.1098 6.8828 60.3004 7.69213 60.3004 8.68698V9.48852H57.6361C56.7692 9.48852 55.9306 9.23299 55.2109 8.74963L52.5187 6.94103C49.339 4.80509 45.144 4.88437 42.0471 7.1277C39.2288 5.08652 35.4418 4.82299 32.3699 6.46355C31.9844 6.66939 31.8388 7.14875 32.0447 7.53421C32.2505 7.91966 32.7298 8.06516 33.1153 7.85943C35.5056 6.58284 38.4199 6.70024 40.6978 8.12497L33.5832 13.395C33.0157 13.8155 32.6859 14.4615 32.678 15.1677C32.6702 15.8739 32.9857 16.5271 33.5437 16.9599C35.1932 18.2393 37.4547 18.4416 39.3051 17.4755L44.5599 14.7319C44.8391 15.4214 45.3255 16.4058 46.1122 17.3903C46.6259 18.0333 47.3109 18.7243 48.1986 19.327C48.2006 19.3284 55.713 24.4841 55.713 24.4841C56.2662 24.8468 56.4173 25.657 56.0319 26.1948C55.6692 26.748 54.8588 26.899 54.3213 26.5138L44.4793 19.7655C44.1191 19.5184 43.6265 19.6103 43.3794 19.9706C43.1323 20.331 43.2241 20.8234 43.5845 21.0705L53.2925 27.7271C53.8459 28.0898 53.9971 28.9001 53.6117 29.438C53.228 29.9976 52.4608 30.1407 51.9011 29.7569L42.1929 23.1002C41.8326 22.8531 41.34 22.945 41.0929 23.3053C40.8458 23.6657 40.9376 24.1581 41.298 24.4052L49.9886 30.3642C50.5419 30.7269 50.693 31.5372 50.3078 32.075C49.9451 32.6281 49.1348 32.7792 48.5971 32.3939C48.5971 32.3939 39.8398 26.394 39.8054 26.3771C39.7581 25.5361 39.3375 24.7248 38.5906 24.2126C37.5273 23.4835 36.1361 23.5874 35.1929 24.3776C34.9826 23.9679 34.6727 23.6142 34.2821 23.3465C33.0529 22.4657 31.2007 22.811 30.3716 24.0757L29.1702 25.8277C28.9768 26.0975 28.8427 26.3971 28.7643 26.7094C27.7897 26.2506 26.7238 26.0102 25.6398 26.0102H23.7934V11.0709H26.4578C27.6401 11.0709 28.7839 10.7224 29.7652 10.0631L30.5307 9.54885C30.8934 9.30522 30.9899 8.81364 30.7462 8.45093C30.5025 8.08811 30.011 7.99167 29.6483 8.2353L28.8828 8.74952C28.1632 9.23299 27.3247 9.48842 26.4577 9.48842H23.7934V8.68688C23.7934 7.69203 22.9841 6.8827 21.9892 6.8827H16.8979C15.9031 6.8828 15.0938 7.69213 15.0938 8.68698V18.7066C15.0938 19.1436 15.448 19.4978 15.885 19.4978C16.3219 19.4978 16.6762 19.1436 16.6762 18.7066V8.68698C16.6762 8.56474 16.7757 8.46514 16.898 8.46514H21.9893C22.1116 8.46514 22.2112 8.56464 22.2112 8.68698V28.4875C22.2112 28.6097 22.1117 28.7093 21.9893 28.7093H16.8979C16.7757 28.7093 16.6761 28.6098 16.6761 28.4875V21.8713C16.6761 21.4344 16.3218 21.0801 15.8849 21.0801C15.4479 21.0801 15.0938 21.4344 15.0938 21.8713V28.4875C15.0938 29.4823 15.9031 30.2916 16.8979 30.2916H21.9892C22.9841 30.2916 23.7934 29.4823 23.7934 28.4875V27.5921H25.6398C26.7001 27.5921 27.7387 27.8847 28.6432 28.4381L28.9528 28.6276C29.1588 29.0706 29.4776 29.4614 29.8994 29.7378C30.551 30.1813 31.3096 30.322 32.0517 30.1716C32.1769 30.9285 32.6018 31.5908 33.2341 32.0243C33.8858 32.4678 34.6443 32.6085 35.3864 32.4581C35.5115 33.215 35.9365 33.8774 36.5688 34.3109C37.2209 34.7546 37.9799 34.8953 38.7224 34.7444C38.8449 35.4709 39.2494 36.1489 39.9034 36.5974C41.1524 37.4578 42.8893 37.1629 43.7817 35.9129L44.1216 36.146C45.3565 37.0279 47.2013 36.6806 48.0321 35.4167C48.3089 35.0131 48.4717 34.5549 48.514 34.0805C49.6545 34.4087 50.9106 33.9904 51.6127 32.9694C51.9195 32.5218 52.0785 32.0161 52.1014 31.5102C53.1697 31.7114 54.3106 31.2364 54.9168 30.3323C55.2946 29.7811 55.461 29.1284 55.3963 28.4711C56.313 27.8973 57.3724 27.5915 58.4539 27.5919H60.3003V28.4872C60.3003 29.4821 61.1097 30.2914 62.1045 30.2914H67.1958C68.1907 30.2914 69 29.4821 69 28.4872V8.68698C69.0001 7.69213 68.1908 6.8828 67.1959 6.8828ZM32.5049 28.1138C32.1212 28.6734 31.3538 28.8166 30.7942 28.4328C30.2346 28.0492 30.0915 27.2817 30.4752 26.7221L31.6766 24.9701C32.04 24.4172 32.8471 24.2653 33.3873 24.6512C33.9468 25.0348 34.09 25.8023 33.7062 26.3617L32.5049 28.1138ZM35.8396 30.4004C35.4559 30.96 34.6885 31.1031 34.1289 30.7193C33.5757 30.3565 33.4247 29.5464 33.81 29.0086L35.9852 25.8363C36.3486 25.2834 37.1557 25.1315 37.6959 25.5172C38.2555 25.9009 38.3986 26.6683 38.0148 27.2279L35.8396 30.4004ZM39.1743 32.6869C38.7906 33.2465 38.0233 33.3897 37.4636 33.0059C36.9105 32.6432 36.7595 31.8329 37.1447 31.2952L38.7063 29.0177C39.0508 28.4937 39.7934 28.3307 40.33 28.6435L40.503 28.7621C40.9845 29.1492 41.1003 29.9008 40.736 30.4093L39.1743 32.6869ZM40.7982 35.2924C40.2386 34.9087 40.0956 34.1413 40.4793 33.5817L42.0389 31.3073C42.4024 30.7545 43.2092 30.6025 43.7494 30.9882L43.7497 30.9884C44.3029 31.3512 44.4538 32.1612 44.0685 32.699L42.5089 34.9735C42.1253 35.533 41.3579 35.6762 40.7982 35.2924ZM46.7271 34.522C46.3644 35.0752 45.5542 35.2263 45.0164 34.8409L44.6777 34.6087L45.3735 33.5938C45.6188 33.2363 45.7745 32.8359 45.8364 32.4194L46.4081 32.8113C46.9615 33.1742 47.1124 33.9842 46.7271 34.522ZM67.4178 28.4875C67.4178 28.6097 67.3183 28.7093 67.1959 28.7093H62.1046C61.9824 28.7093 61.8828 28.6098 61.8828 28.4875V17.1984C61.8828 16.7615 61.5285 16.4072 61.0916 16.4072C60.6546 16.4072 60.3003 16.7614 60.3003 17.1984V26.0097H58.4539C58.2276 26.0097 58.0021 26.0204 57.7779 26.0411C57.9989 24.965 57.5258 23.7914 56.6076 23.1787L53.3815 20.9666C53.551 20.9737 53.7224 20.9786 53.898 20.9786C54.3349 20.9786 54.6892 20.6243 54.6892 20.1874C54.6892 19.7504 54.3349 19.3961 53.898 19.3961C52.0666 19.3961 50.4809 18.9495 49.1561 18.0693L49.1337 18.0539C49.1313 18.0523 49.1286 18.0514 49.1261 18.0499C48.4837 17.6186 47.9022 17.0859 47.3861 16.4492C46.1762 14.9565 45.7795 13.428 45.7762 13.4148C45.7178 13.1792 45.5546 12.9834 45.3333 12.8836C45.112 12.7839 44.8571 12.7912 44.6419 12.9035L38.5724 16.0725C37.2687 16.753 35.6753 16.6107 34.5133 15.7092C34.35 15.5826 34.2577 15.3915 34.26 15.1849C34.2622 14.9783 34.3589 14.7892 34.5249 14.6663L42.9097 8.45535C45.4771 6.55357 48.9841 6.47282 51.6362 8.25447L54.3284 10.0631C55.3098 10.7224 56.4535 11.0709 57.6359 11.0709H60.3002V14.0336C60.3002 14.4705 60.6545 14.8248 61.0915 14.8248C61.5284 14.8248 61.8827 14.4706 61.8827 14.0336V8.68688C61.8827 8.56464 61.9822 8.46504 62.1045 8.46504H67.1958C67.3181 8.46504 67.4177 8.56453 67.4177 8.68688V28.4875H67.4178Z" fill="#0054A9"/>
<path d="M20.2347 26.1354V24.8327C20.2347 24.3958 19.8805 24.0415 19.4434 24.0415C19.0064 24.0415 18.6522 24.3957 18.6522 24.8327V26.1354C18.6522 26.5724 19.0064 26.9267 19.4434 26.9267C19.8805 26.9267 20.2347 26.5724 20.2347 26.1354Z" fill="#0054A9"/>
<path d="M64.6502 24.0415C64.2133 24.0415 63.859 24.3957 63.859 24.8327V26.1354C63.859 26.5724 64.2133 26.9267 64.6502 26.9267C65.0872 26.9267 65.4415 26.5724 65.4415 26.1354V24.8327C65.4415 24.3957 65.0873 24.0415 64.6502 24.0415Z" fill="#0054A9"/>
</svg>
