<svg width="430" height="396" viewBox="0 0 430 396" fill="none" xmlns="http://www.w3.org/2000/svg">
<path d="M197.069 217.506C196.993 217.506 196.944 217.504 196.927 217.503L187.751 217.504V216.151H196.961C197.174 216.158 201.524 216.281 205.533 211.417C211.506 204.169 216.412 186.224 205.859 141.9C191.668 82.3007 203.504 29.6481 209.251 9.77698C209.534 8.79388 209.584 7.75839 209.399 6.75234C209.213 5.7463 208.795 4.79726 208.18 3.9802C207.564 3.16314 206.767 2.50045 205.851 2.04451C204.935 1.58856 203.926 1.35185 202.903 1.35306H65.8544C64.8125 1.35446 63.7856 1.60151 62.857 2.07417C61.9284 2.54682 61.1244 3.23177 60.5101 4.0734C58.0755 7.42235 54.7345 13.856 52.6438 25.4891L51.3122 25.25C53.4481 13.3641 56.8979 6.74119 59.4157 3.27794C60.1556 2.26382 61.1243 1.43848 62.243 0.868934C63.3618 0.299388 64.599 0.00168511 65.8544 3.68169e-06H202.903C204.136 -0.00118264 205.352 0.284339 206.455 0.834011C207.559 1.38368 208.52 2.18244 209.261 3.16719C210.003 4.15193 210.506 5.29568 210.729 6.50807C210.953 7.72046 210.892 8.96827 210.551 10.1529C204.833 29.9209 193.059 82.3004 207.175 141.587C217.877 186.534 212.732 204.868 206.532 212.333C202.442 217.256 197.936 217.506 197.069 217.506Z" fill="#E6E6E6"/>
<path d="M172.376 242.199C172.299 242.199 172.251 242.197 172.234 242.196L163.057 242.197V240.844H172.267C172.482 240.851 176.831 240.975 180.839 236.111C186.813 228.862 191.718 210.917 181.165 166.593C166.975 106.994 178.81 54.3414 184.557 34.4703C184.84 33.4872 184.891 32.4518 184.705 31.4457C184.519 30.4397 184.102 29.4906 183.486 28.6736C182.871 27.8565 182.073 27.1938 181.158 26.7379C180.242 26.2819 179.232 26.0452 178.209 26.0464H41.161C40.1191 26.0478 39.0922 26.2949 38.1636 26.7675C37.235 27.2402 36.431 27.9251 35.8167 28.7668C33.3821 32.1157 30.0411 38.5494 27.9505 50.1825L26.6187 49.9433C28.7547 38.0575 32.2045 31.4346 34.7223 27.9713C35.4622 26.9572 36.4309 26.1318 37.5496 25.5623C38.6684 24.9927 39.9057 24.695 41.161 24.6934H178.209C179.442 24.6922 180.658 24.9777 181.762 25.5274C182.866 26.077 183.826 26.8758 184.568 27.8605C185.31 28.8453 185.812 29.989 186.036 31.2014C186.26 32.4138 186.199 33.6616 185.857 34.8463C180.14 54.6143 168.366 106.994 182.482 166.28C193.183 211.227 188.038 229.561 181.838 237.026C177.749 241.95 173.243 242.199 172.376 242.199Z" fill="#CCCCCC"/>
<path d="M147.682 266.893C147.606 266.893 147.558 266.891 147.541 266.89L12.6048 266.891C11.3057 266.892 10.026 266.575 8.87766 265.968C7.72937 265.36 6.74747 264.48 6.01792 263.405C5.28837 262.33 4.83339 261.093 4.69279 259.802C4.5522 258.51 4.73028 257.204 5.21144 255.997C10.1074 243.765 16.6995 214.418 5.84164 155.303C-6.97955 85.4985 4.49883 60.271 10.0289 52.6647C10.7689 51.6505 11.7376 50.8252 12.8563 50.2556C13.9751 49.6861 15.2124 49.3884 16.4678 49.3867H153.516C154.749 49.3855 155.965 49.6711 157.069 50.2207C158.172 50.7704 159.133 51.5692 159.875 52.5539C160.616 53.5387 161.119 54.6824 161.343 55.8948C161.566 57.1072 161.505 58.355 161.164 59.5396C155.446 79.3076 143.672 131.687 157.788 190.974C168.49 235.921 163.345 254.254 157.145 261.72C153.056 266.643 148.55 266.893 147.682 266.893ZM16.4678 50.7398C15.4259 50.7412 14.3989 50.9882 13.4703 51.4609C12.5417 51.9335 11.7376 52.6185 11.1233 53.4601C5.6958 60.9254 -5.55415 85.7693 7.17238 155.058C17.5449 211.531 12.5143 241.393 6.46753 256.5C6.06 257.497 5.90704 258.579 6.02244 259.65C6.13784 260.72 6.51797 261.745 7.12853 262.632C7.73394 263.528 8.54983 264.261 9.50462 264.767C10.4594 265.274 11.5239 265.538 12.6048 265.538H147.574C147.787 265.548 152.138 265.668 156.146 260.804C162.12 253.555 167.025 235.61 156.472 191.287C142.282 131.687 154.117 79.0348 159.864 59.1637C160.147 58.1806 160.198 57.1451 160.012 56.1391C159.826 55.133 159.409 54.184 158.793 53.3669C158.177 52.5499 157.38 51.8872 156.464 51.4312C155.548 50.9753 154.539 50.7386 153.516 50.7398H16.4678Z" fill="#3F3D56"/>
<path d="M130.205 110.274H22.6373C21.2019 110.274 19.8252 109.704 18.8102 108.689C17.7952 107.674 17.225 106.298 17.225 104.862C17.225 103.427 17.7952 102.05 18.8102 101.035C19.8252 100.02 21.2019 99.45 22.6373 99.45H130.205C131.641 99.45 133.018 100.02 134.033 101.035C135.048 102.05 135.618 103.427 135.618 104.862C135.618 106.298 135.048 107.674 134.033 108.689C133.018 109.704 131.641 110.274 130.205 110.274Z" fill="#0054A9"/>
<path d="M130.205 133.276H22.6373C21.2019 133.276 19.8252 132.706 18.8102 131.691C17.7952 130.676 17.225 129.3 17.225 127.864C17.225 126.429 17.7952 125.052 18.8102 124.037C19.8252 123.022 21.2019 122.452 22.6373 122.452H130.205C131.641 122.452 133.018 123.022 134.033 124.037C135.048 125.052 135.618 126.429 135.618 127.864C135.618 129.3 135.048 130.676 134.033 131.691C133.018 132.706 131.641 133.276 130.205 133.276Z" fill="#CCCCCC"/>
<path d="M130.205 156.279H22.6373C21.2019 156.279 19.8252 155.708 18.8102 154.693C17.7952 153.678 17.225 152.302 17.225 150.866C17.225 149.431 17.7952 148.054 18.8102 147.039C19.8252 146.024 21.2019 145.454 22.6373 145.454H130.205C131.641 145.454 133.018 146.024 134.033 147.039C135.048 148.054 135.618 149.431 135.618 150.866C135.618 152.302 135.048 153.678 134.033 154.693C133.018 155.708 131.641 156.279 130.205 156.279Z" fill="#CCCCCC"/>
<path d="M138.324 179.28H30.7557C29.3203 179.28 27.9436 178.71 26.9286 177.695C25.9137 176.68 25.3434 175.303 25.3434 173.868C25.3434 172.433 25.9137 171.056 26.9286 170.041C27.9436 169.026 29.3203 168.456 30.7557 168.456H138.324C139.759 168.456 141.136 169.026 142.151 170.041C143.166 171.056 143.736 172.433 143.736 173.868C143.736 175.303 143.166 176.68 142.151 177.695C141.136 178.71 139.759 179.28 138.324 179.28Z" fill="#CCCCCC"/>
<path d="M138.324 202.282H30.7557C29.3203 202.282 27.9436 201.712 26.9286 200.697C25.9137 199.682 25.3434 198.305 25.3434 196.87C25.3434 195.435 25.9137 194.058 26.9286 193.043C27.9436 192.028 29.3203 191.458 30.7557 191.458H138.324C139.759 191.458 141.136 192.028 142.151 193.043C143.166 194.058 143.736 195.435 143.736 196.87C143.736 198.305 143.166 199.682 142.151 200.697C141.136 201.712 139.759 202.282 138.324 202.282Z" fill="#CCCCCC"/>
<path d="M73.377 87.2722H22.6373C21.2019 87.2722 19.8252 86.702 18.8102 85.687C17.7952 84.672 17.225 83.2954 17.225 81.86C17.225 80.4246 17.7952 79.0479 18.8102 78.033C19.8252 77.018 21.2019 76.4478 22.6373 76.4478H73.377C74.8124 76.4478 76.189 77.018 77.204 78.033C78.219 79.0479 78.7892 80.4246 78.7892 81.86C78.7892 83.2954 78.219 84.672 77.204 85.687C76.189 86.702 74.8124 87.2722 73.377 87.2722Z" fill="#0054A9"/>
<path d="M66.8254 239.371C67.9174 234.747 73.0481 233.231 77.2428 233.401C79.893 233.579 82.5219 233.995 85.0979 234.643C87.7933 235.246 90.4624 235.961 93.1181 236.718C97.9881 238.107 102.808 239.786 107.758 240.872C111.879 241.776 116.358 242.306 120.467 241.058C124.418 239.859 127.769 236.914 128.844 232.842C129.857 229.005 128.466 224.81 124.748 223.056C121.358 221.457 117.075 222.271 115.394 225.887C113.5 229.964 115.393 234.41 118.393 237.361C120.098 238.962 121.966 240.381 123.966 241.594C125.996 242.977 128.255 243.989 130.639 244.583C134.553 245.419 139.215 244.187 141.233 240.448C141.682 239.601 141.952 238.672 142.026 237.717C142.146 236.417 140.115 236.425 139.997 237.717C139.654 241.44 135.294 243.184 132.034 242.775C129.833 242.411 127.731 241.595 125.86 240.379C124.055 239.327 122.344 238.119 120.747 236.771C117.981 234.378 115.389 230.44 117.246 226.705C118.759 223.664 122.701 223.694 125.099 225.656C128.003 228.031 127.485 232.341 125.57 235.162C123.449 238.285 119.605 239.594 115.981 239.735C112.043 239.889 108.138 238.985 104.374 237.916C99.6972 236.588 95.0673 235.102 90.3682 233.852C87.7005 233.142 85.0122 232.501 82.2964 232.003C79.7284 231.437 77.0907 231.254 74.4692 231.461C70.2342 231.95 65.9111 234.415 64.8683 238.831C64.5684 240.101 66.5249 240.643 66.8254 239.371L66.8254 239.371Z" fill="#3F3D56"/>
<path d="M274.181 354.123C274.298 367.444 275.274 380.744 277.103 393.94C277.167 394.403 277.236 394.867 277.301 395.33L402.054 394.633C402.42 394.173 402.781 393.707 403.13 393.236C404.295 391.676 405.387 390.072 406.389 388.412C411.205 380.418 413.41 371.057 411.201 364.599L411.161 364.499C410.684 363.085 409.932 361.779 408.949 360.656C403.911 354.985 393.725 355.93 384.481 360.508C392.772 351.432 399.374 339.98 399.876 329.757C400.368 319.787 395.154 312.664 389.499 306.611C389.314 306.41 389.128 306.216 388.942 306.021C388.852 305.921 388.757 305.827 388.667 305.727C384.255 301.114 379.112 296.566 371.666 297.116C363.501 297.721 354.448 304.56 348.101 312.53C341.753 320.494 337.535 329.541 333.259 338.371C328.978 347.195 324.347 356.245 317.477 363.788C326.782 352.019 334.283 338.628 337.055 325.605C339.826 312.582 337.387 300.074 329.094 293.94C326.577 292.136 323.664 290.96 320.599 290.512C320.241 290.453 319.878 290.405 319.509 290.362C311.832 289.489 302.667 292.144 294.868 298.49C286.28 305.478 280.326 315.837 277.364 325.67C274.401 335.504 274.086 344.971 274.181 354.123Z" fill="#E8E8E8"/>
<path d="M355.802 394.891L358.188 394.878C358.945 394.404 359.706 393.936 360.471 393.474C360.944 393.175 361.423 392.888 361.902 392.594C369.815 387.762 377.777 383.126 385.789 378.688C393.794 374.246 401.838 370.008 409.923 365.975C410.138 365.882 410.313 365.717 410.418 365.508C410.523 365.299 410.551 365.06 410.498 364.832C410.49 364.803 410.476 364.774 410.458 364.749C410.346 364.537 410.094 364.449 409.726 364.63C408.734 365.127 407.737 365.624 406.745 366.133C398.638 370.235 390.566 374.541 382.528 379.052C374.496 383.562 366.51 388.27 358.57 393.177C358.403 393.279 358.236 393.386 358.069 393.487C357.311 393.955 356.56 394.423 355.802 394.891Z" fill="white"/>
<path d="M325.044 395.063L326.519 395.055C326.852 394.589 327.179 394.124 327.512 393.658C335.329 382.696 343.144 371.735 350.957 360.773C363.753 342.827 376.545 324.881 389.333 306.935C389.409 306.839 389.465 306.728 389.499 306.61C389.608 306.213 389.317 305.98 388.942 306.021C388.785 306.044 388.634 306.1 388.499 306.185C388.365 306.271 388.25 306.384 388.163 306.517C380.989 316.581 373.817 326.642 366.647 336.698C353.917 354.554 341.19 372.409 328.465 390.261C327.655 391.394 326.846 392.533 326.036 393.666C325.704 394.132 325.371 394.597 325.044 395.063Z" fill="white"/>
<path d="M292.181 386.496C292.256 388.983 292.421 391.429 292.636 393.853C292.677 394.316 292.719 394.78 292.761 395.243L294.308 395.235C294.261 394.771 294.214 394.308 294.172 393.844C293.845 390.343 293.613 386.801 293.582 383.164C293.54 373.08 294.523 363.017 296.515 353.132C298.632 342.487 301.671 332.048 305.599 321.931C309.721 311.26 314.692 300.937 320.462 291.06C320.571 290.899 320.619 290.705 320.599 290.512C320.535 290.071 319.948 289.94 319.509 290.362C319.422 290.444 319.347 290.539 319.287 290.642C318.573 291.87 317.872 293.101 317.184 294.336C311.626 304.268 306.869 314.627 302.958 325.315C299.233 335.465 296.399 345.92 294.489 356.563C292.7 366.436 291.927 376.466 292.181 386.496Z" fill="white"/>
<path d="M141.398 239.852C141.141 239.638 140.954 239.353 140.859 239.033C140.764 238.713 140.766 238.372 140.864 238.053C140.963 237.734 141.153 237.451 141.412 237.241C141.671 237.03 141.987 236.9 142.319 236.869C146.009 236.512 149.733 236.894 153.274 237.991L189.344 249.131C189.811 249.275 190.244 249.51 190.621 249.822C190.997 250.134 191.308 250.517 191.536 250.949C191.764 251.381 191.905 251.854 191.95 252.34C191.996 252.827 191.945 253.317 191.801 253.784C191.657 254.251 191.422 254.685 191.11 255.061C190.798 255.437 190.415 255.748 189.983 255.976C189.551 256.205 189.078 256.346 188.592 256.391C188.105 256.436 187.615 256.386 187.148 256.241L151.078 245.102C147.535 244.012 144.244 242.227 141.398 239.852Z" fill="#3F3D56"/>
<path d="M289.251 286.126C288.271 285.715 287.394 285.094 286.68 284.308C285.966 283.521 285.433 282.587 285.119 281.572C284.805 280.557 284.718 279.485 284.862 278.433C285.007 277.38 285.381 276.372 285.958 275.48L279.776 243.147L295.533 241.919L296.484 273.544C297.919 274.612 298.912 276.17 299.276 277.921C299.639 279.673 299.348 281.497 298.456 283.048C297.565 284.599 296.135 285.769 294.439 286.336C292.742 286.903 290.896 286.829 289.251 286.126Z" fill="#E4897B"/>
<path d="M278.803 269.439L262.754 194.694C262.095 191.624 262.682 188.418 264.387 185.782C266.092 183.145 268.774 181.293 271.844 180.634C274.914 179.975 278.12 180.562 280.757 182.267C283.394 183.972 285.245 186.654 285.904 189.724L301.954 264.468C302.122 265.257 301.971 266.081 301.533 266.759C301.095 267.437 300.406 267.914 299.617 268.084L282.419 271.776C282.028 271.861 281.624 271.867 281.231 271.795C280.838 271.723 280.462 271.574 280.127 271.357C279.791 271.14 279.501 270.859 279.274 270.53C279.047 270.201 278.887 269.83 278.803 269.439Z" fill="#0054A9"/>
<path d="M252.461 387.018H244.167L240.221 355.026L252.463 355.027L252.461 387.018Z" fill="#E4897B"/>
<path d="M238.242 384.648H254.238V394.719H228.171C228.171 393.397 228.431 392.087 228.937 390.865C229.444 389.643 230.185 388.533 231.121 387.598C232.056 386.663 233.166 385.921 234.388 385.415C235.61 384.908 236.92 384.648 238.242 384.648Z" fill="#2F2E41"/>
<path d="M280.198 386.342H271.905L267.958 354.35L280.2 354.351L280.198 386.342Z" fill="#E4897B"/>
<path d="M265.98 383.971H281.976V394.043H255.909C255.909 392.72 256.169 391.41 256.675 390.188C257.181 388.967 257.923 387.856 258.858 386.921C259.794 385.986 260.904 385.244 262.126 384.738C263.348 384.232 264.657 383.971 265.98 383.971Z" fill="#2F2E41"/>
<path d="M242.523 381.051C242.212 380.796 241.956 380.481 241.768 380.125C241.58 379.769 241.465 379.38 241.43 378.979L231.788 272.913C231.75 272.501 231.797 272.086 231.925 271.693C232.054 271.3 232.261 270.938 232.534 270.627C232.807 270.317 233.14 270.065 233.513 269.888C233.887 269.71 234.292 269.611 234.705 269.595L283.064 267.782C283.482 267.766 283.899 267.837 284.289 267.99C284.679 268.143 285.033 268.375 285.329 268.671C285.626 268.967 285.858 269.321 286.011 269.71C286.164 270.1 286.235 270.517 286.22 270.936L282.355 376.594C282.326 377.333 282.03 378.037 281.521 378.575C281.012 379.112 280.325 379.446 279.588 379.514L269.837 380.401C269.433 380.437 269.025 380.393 268.638 380.27C268.251 380.147 267.893 379.948 267.584 379.684C267.276 379.42 267.023 379.097 266.841 378.735C266.659 378.372 266.551 377.976 266.524 377.571L262.049 310.448C262.046 310.319 262.017 310.192 261.964 310.074C261.912 309.956 261.836 309.85 261.742 309.762C261.647 309.674 261.537 309.606 261.416 309.561C261.295 309.516 261.166 309.496 261.037 309.501H261.033C260.904 309.496 260.775 309.517 260.653 309.562C260.532 309.608 260.421 309.677 260.327 309.766C260.233 309.855 260.158 309.962 260.106 310.08C260.054 310.199 260.025 310.326 260.023 310.456L256.019 378.032C255.979 378.755 255.681 379.44 255.179 379.963C254.677 380.486 254.004 380.811 253.283 380.88L244.765 381.733C244.365 381.774 243.96 381.735 243.575 381.618C243.19 381.5 242.833 381.308 242.523 381.051H242.523Z" fill="#2F2E41"/>
<path d="M261.125 164.751C270.302 164.751 277.741 157.311 277.741 148.135C277.741 138.958 270.302 131.518 261.125 131.518C251.948 131.518 244.508 138.958 244.508 148.135C244.508 157.311 251.948 164.751 261.125 164.751Z" fill="#E4897B"/>
<path d="M229.126 273.631C228.83 273.295 228.613 272.897 228.49 272.467C228.367 272.036 228.341 271.584 228.414 271.142C231.482 252.496 229.753 225.088 227.762 205.379C227.242 200.151 228.109 194.878 230.276 190.091C232.442 185.305 235.832 181.174 240.103 178.114L248.78 170.676C249.357 170.187 250.093 169.927 250.849 169.944L272.407 170.559C273.184 170.581 273.924 170.9 274.473 171.451L277.804 178.828L277.838 178.853C281.808 181.771 284.993 185.627 287.108 190.077C289.223 194.526 290.202 199.431 289.958 204.352L286.785 269.932C286.745 270.695 286.42 271.414 285.876 271.95C285.332 272.486 284.608 272.799 283.844 272.828L231.517 274.666C231.483 274.667 231.449 274.668 231.416 274.668C230.982 274.668 230.554 274.576 230.159 274.397C229.764 274.218 229.412 273.957 229.126 273.631Z" fill="#0054A9"/>
<path d="M166.361 246.265C166.335 245.203 166.542 244.148 166.967 243.174C167.393 242.201 168.027 241.333 168.825 240.631C169.622 239.929 170.564 239.41 171.584 239.112C172.604 238.813 173.676 238.742 174.727 238.903L201.696 220.029L209.267 233.903L180.8 247.715C180.413 249.461 179.399 251.005 177.949 252.053C176.5 253.102 174.717 253.582 172.937 253.404C171.157 253.225 169.504 252.399 168.292 251.084C167.08 249.768 166.393 248.054 166.361 246.265L166.361 246.265Z" fill="#E4897B"/>
<path d="M189.057 249.546C188.662 249.486 188.282 249.349 187.94 249.141C187.598 248.934 187.3 248.661 187.065 248.338L176.657 234.158C176.18 233.507 175.981 232.693 176.103 231.895C176.225 231.097 176.659 230.38 177.309 229.902L238.938 184.667C241.469 182.809 244.635 182.033 247.738 182.509C249.275 182.745 250.75 183.281 252.08 184.087C253.41 184.893 254.567 185.952 255.487 187.206C256.407 188.459 257.072 189.882 257.442 191.392C257.812 192.902 257.881 194.47 257.646 196.007C257.41 197.543 256.874 199.019 256.068 200.348C255.262 201.678 254.202 202.836 252.948 203.756L191.32 248.991C190.8 249.374 190.171 249.581 189.525 249.581C189.369 249.581 189.212 249.569 189.057 249.546Z" fill="#0054A9"/>
<path d="M261.975 162.927C264.179 160.225 263.938 156.109 262.169 153.105C260.401 150.1 257.398 148.031 254.309 146.415C251.22 144.798 247.938 143.527 245.031 141.603C242.124 139.678 242.251 131.531 241.476 128.131L243.323 128.746C242.613 127.839 242.386 125.156 241.676 124.248C243.762 124.455 245.366 126.435 247.452 126.641L246.249 123.41C253.403 122.969 257.85 127.94 265.004 127.499C268.549 127.281 272.398 127.142 275.312 129.172C277.844 130.936 279.126 133.989 279.967 136.959C281.773 143.334 282.053 150.475 278.934 156.321C275.815 162.167 268.626 166.106 262.346 163.995L261.975 162.927Z" fill="#2F2E41"/>
<path d="M170.748 395.093H428.505C428.685 395.093 428.857 395.022 428.984 394.895C429.111 394.768 429.182 394.596 429.182 394.417C429.182 394.237 429.111 394.065 428.984 393.938C428.857 393.812 428.685 393.74 428.505 393.74H170.748C170.568 393.74 170.396 393.812 170.269 393.938C170.142 394.065 170.071 394.237 170.071 394.417C170.071 394.596 170.142 394.768 170.269 394.895C170.396 395.022 170.568 395.093 170.748 395.093Z" fill="#3F3D56"/>
</svg>
