<svg width="335" height="289" viewBox="0 0 335 289" fill="none" xmlns="http://www.w3.org/2000/svg">
<path d="M182.405 80.315C199.399 80.315 213.176 66.5387 213.176 49.5448C213.176 32.5509 199.399 18.7747 182.405 18.7747C165.412 18.7747 151.635 32.5509 151.635 49.5448C151.635 66.5387 165.412 80.315 182.405 80.315Z" fill="#E4897B"/>
<path d="M159.439 64.9302C159.439 64.9302 165.237 108.633 156.318 113.538C147.399 118.443 209.385 118.889 209.385 118.889C209.385 118.889 195.561 80.9842 201.804 69.3896L159.439 64.9302Z" fill="#E4897B"/>
<path d="M254.648 119.111L249.493 142.585L238.592 192.249L238.266 194.969L234.504 226.456L232.002 247.374L230.324 261.425C220.123 266.668 212.729 270.288 212.729 270.288C212.729 270.288 212.093 267.099 211.068 263.019C203.908 265.166 190.661 268.727 179.434 269.438C183.522 273.995 185.401 278.276 182.853 281.435C175.162 290.958 143.411 271.007 132.305 263.568C132.047 265.349 131.949 267.15 132.012 268.949L123.514 262.413L124.355 247.374L125.774 221.929L127.556 190.019C126.994 188.653 126.523 187.251 126.146 185.822C123.543 176.566 120.384 158.084 117.961 142.585C116.011 130.111 114.547 119.571 114.237 117.328C114.195 117.035 114.175 116.885 114.175 116.885L161.219 96.0967C164.563 103.85 180.175 106.181 180.175 106.181C193.108 105.29 203.247 98.4692 203.247 98.4692L254.648 119.111Z" fill="#0054A9"/>
<path d="M216.298 261.371C216.298 261.371 214.306 262.053 211.068 263.019C203.908 265.166 190.661 268.727 179.434 269.438C169.768 270.057 161.6 268.568 160.106 262.262C159.466 259.55 160.374 257.32 162.353 255.487C168.262 250.01 183.694 248.048 195.933 247.374C199.389 247.186 202.586 247.098 205.247 247.064C209.766 247.006 212.729 247.098 212.729 247.098L212.8 247.374L216.298 261.371Z" fill="#A0616A"/>
<path d="M156.808 20.4393L151.054 18.136C151.054 18.136 163.084 4.89214 179.821 6.04383L175.113 0.861401C175.113 0.861401 186.62 -3.74511 197.08 8.34705C202.579 14.7036 208.941 22.1755 212.908 30.5924H219.069L216.498 36.2546L225.498 41.9168L216.26 40.8997C216.81 44.0004 216.895 47.1659 216.511 50.2915C216.114 53.4181 214.519 56.2684 212.061 58.2409C212.061 58.2409 204.926 43.472 204.926 41.1687V46.9269C204.926 46.9269 199.172 41.7445 199.172 38.2896L196.034 42.3204L194.465 35.9863L175.113 42.3204L178.251 37.138L166.222 38.8655L170.929 32.5314C170.929 32.5314 157.331 40.0171 156.808 46.3511C156.285 52.6851 152.304 58.6869 152.304 58.6869C152.304 58.6869 141.64 29.0765 156.808 20.4393Z" fill="#2F2E41"/>
<path d="M288.094 227.03C284.959 230.427 277.193 235.545 267.778 241.085C264.276 243.144 260.548 245.265 256.744 247.374C247.668 252.408 238.166 257.395 230.324 261.425C220.123 266.668 212.729 270.288 212.729 270.288C212.729 270.288 212.093 267.099 211.068 263.019C209.695 257.559 207.628 250.5 205.473 247.374C205.398 247.265 205.323 247.165 205.247 247.064C204.62 246.24 203.988 245.759 203.364 245.759L234.504 226.456L247.961 218.113L238.266 194.969L226.106 165.938L233.446 142.585L240.823 119.111H254.648C254.648 119.111 259.226 129.103 265.08 143.037C265.954 145.121 266.858 147.292 267.778 149.535C279.821 178.826 294.835 219.728 288.094 227.03Z" fill="#0054A9"/>
<path d="M182.853 281.434C175.162 290.958 143.411 271.007 132.305 263.567C129.887 261.948 128.448 260.923 128.448 260.923L138.607 247.374L141.825 243.085C141.825 243.085 144.704 244.612 148.959 247.098C149.114 247.19 149.269 247.282 149.428 247.374C153.098 249.529 157.705 252.345 162.353 255.487C168.768 259.826 175.254 264.776 179.434 269.438C183.522 273.995 185.401 278.275 182.853 281.434Z" fill="#A0616A"/>
<path d="M148.959 247.098C147.824 247.093 146.69 247.186 145.57 247.374C135.95 249.027 133.113 257.734 132.306 263.567C132.047 265.349 131.949 267.15 132.013 268.949L123.514 262.413L120.418 260.032C112.965 257.433 106.325 252.818 100.567 247.374C95.5722 242.568 91.0917 237.254 87.1981 231.519C83.3199 225.867 79.8627 219.937 76.8543 213.778C76.0149 212.059 75.5637 210.177 75.5326 208.264C75.5015 206.351 75.8913 204.455 76.6744 202.71L87.1981 179.257L102.58 144.978C102.693 144.162 102.817 143.365 102.952 142.585C106.003 125.094 114.175 117.328 114.175 117.328H120.418L124.594 142.585L129.782 173.964L126.146 185.822L117.744 213.209L125.774 221.929L148.959 247.098Z" fill="#0054A9"/>
<path d="M158.432 166.396L163.769 172.622C165.752 172.244 167.823 171.8 169.956 171.301L168.423 166.396L172.171 170.768C194.765 165.211 222.771 154.407 222.771 154.407C222.771 154.407 192.536 156.624 169.961 151.692C159.973 149.51 149.696 154.461 145.597 163.828C143.215 169.272 143.589 173.988 152.038 173.988C154.893 173.94 157.741 173.672 160.555 173.187L158.432 166.396Z" fill="#FAFAFA"/>
<path d="M277.695 276.33V278.87C277.697 279.567 277.568 280.258 277.315 280.907C277.202 281.197 277.066 281.477 276.909 281.744C276.41 282.581 275.702 283.274 274.855 283.756C274.008 284.237 273.05 284.49 272.076 284.489H85.223C84.2487 284.49 83.2909 284.237 82.4437 283.756C81.5964 283.274 80.8888 282.581 80.3901 281.744C80.2323 281.477 80.0966 281.197 79.9842 280.907C79.7311 280.258 79.602 279.567 79.6034 278.87V276.33C79.6032 275.592 79.7484 274.861 80.0308 274.179C80.3131 273.497 80.727 272.877 81.2489 272.356C81.7708 271.834 82.3904 271.42 83.0722 271.137C83.7541 270.855 84.485 270.71 85.223 270.71H95.9936V269.526C95.9935 269.495 95.9995 269.465 96.0113 269.436C96.0231 269.408 96.0403 269.382 96.0621 269.36C96.0839 269.338 96.1097 269.321 96.1382 269.309C96.1666 269.297 96.1971 269.291 96.2279 269.292H101.847C101.878 269.291 101.909 269.297 101.937 269.309C101.966 269.321 101.992 269.338 102.013 269.36C102.035 269.382 102.052 269.408 102.064 269.436C102.076 269.465 102.082 269.495 102.082 269.526V270.71H105.592V269.526C105.592 269.495 105.598 269.465 105.61 269.436C105.622 269.408 105.639 269.382 105.661 269.36C105.683 269.338 105.709 269.321 105.737 269.309C105.766 269.297 105.796 269.291 105.827 269.292H111.446C111.477 269.291 111.508 269.297 111.536 269.309C111.565 269.321 111.59 269.338 111.612 269.36C111.634 269.382 111.651 269.408 111.663 269.436C111.675 269.465 111.681 269.495 111.681 269.526V270.71H115.196V269.526C115.196 269.495 115.202 269.465 115.213 269.436C115.225 269.408 115.242 269.382 115.264 269.36C115.286 269.338 115.312 269.321 115.34 269.309C115.369 269.297 115.399 269.291 115.43 269.292H121.05C121.08 269.291 121.111 269.297 121.139 269.309C121.168 269.321 121.194 269.338 121.215 269.36C121.237 269.382 121.254 269.408 121.266 269.436C121.278 269.465 121.284 269.495 121.284 269.526V270.71H124.795V269.526C124.794 269.495 124.801 269.465 124.812 269.436C124.824 269.408 124.841 269.382 124.863 269.36C124.885 269.338 124.911 269.321 124.939 269.309C124.968 269.297 124.998 269.291 125.029 269.292H130.648C130.679 269.291 130.71 269.297 130.738 269.309C130.767 269.321 130.792 269.338 130.814 269.36C130.836 269.382 130.853 269.408 130.865 269.436C130.877 269.465 130.883 269.495 130.883 269.526V270.71H134.393V269.526C134.393 269.495 134.399 269.465 134.411 269.436C134.423 269.408 134.44 269.382 134.462 269.36C134.484 269.338 134.51 269.321 134.538 269.309C134.566 269.297 134.597 269.291 134.628 269.292H140.247C140.278 269.291 140.309 269.297 140.337 269.309C140.366 269.321 140.391 269.338 140.413 269.36C140.435 269.382 140.452 269.408 140.464 269.436C140.476 269.465 140.482 269.495 140.482 269.526V270.71H143.997V269.526C143.997 269.495 144.003 269.465 144.014 269.436C144.026 269.408 144.043 269.382 144.065 269.36C144.087 269.338 144.113 269.321 144.141 269.309C144.17 269.297 144.2 269.291 144.231 269.292H149.851C149.881 269.291 149.912 269.297 149.94 269.309C149.969 269.321 149.995 269.338 150.016 269.36C150.038 269.382 150.055 269.408 150.067 269.436C150.079 269.465 150.085 269.495 150.085 269.526V270.71H153.596V269.526C153.595 269.495 153.601 269.465 153.613 269.436C153.625 269.408 153.642 269.382 153.664 269.36C153.686 269.338 153.712 269.321 153.74 269.309C153.769 269.297 153.799 269.291 153.83 269.292H197.849C197.88 269.291 197.911 269.297 197.939 269.309C197.968 269.321 197.993 269.338 198.015 269.36C198.037 269.382 198.054 269.408 198.066 269.436C198.078 269.465 198.084 269.495 198.084 269.526V270.71H201.599V269.526C201.598 269.495 201.604 269.465 201.616 269.436C201.628 269.408 201.645 269.382 201.667 269.36C201.689 269.338 201.715 269.321 201.743 269.309C201.772 269.297 201.802 269.291 201.833 269.292H207.452C207.514 269.292 207.574 269.317 207.618 269.361C207.661 269.405 207.686 269.464 207.687 269.526V270.71H211.197V269.526C211.197 269.495 211.203 269.465 211.215 269.436C211.227 269.408 211.244 269.382 211.266 269.36C211.288 269.338 211.314 269.321 211.342 269.309C211.371 269.297 211.401 269.291 211.432 269.292H217.051C217.082 269.291 217.113 269.297 217.141 269.309C217.17 269.321 217.195 269.338 217.217 269.36C217.239 269.382 217.256 269.408 217.268 269.436C217.28 269.465 217.286 269.495 217.286 269.526V270.71H220.796V269.526C220.796 269.495 220.802 269.465 220.814 269.436C220.826 269.408 220.843 269.382 220.865 269.36C220.887 269.338 220.913 269.321 220.941 269.309C220.969 269.297 221 269.291 221.031 269.292H226.65C226.681 269.291 226.712 269.297 226.74 269.309C226.769 269.321 226.794 269.338 226.816 269.36C226.838 269.382 226.855 269.408 226.867 269.436C226.879 269.465 226.885 269.495 226.885 269.526V270.71H230.4V269.526C230.399 269.495 230.406 269.465 230.417 269.436C230.429 269.408 230.446 269.382 230.468 269.36C230.49 269.338 230.516 269.321 230.544 269.309C230.573 269.297 230.603 269.291 230.634 269.292H236.253C236.315 269.292 236.374 269.317 236.417 269.361C236.46 269.405 236.484 269.464 236.484 269.526V270.71H239.998V269.526C239.998 269.495 240.004 269.465 240.016 269.436C240.028 269.408 240.045 269.382 240.067 269.36C240.089 269.338 240.115 269.321 240.143 269.309C240.172 269.297 240.202 269.291 240.233 269.292H245.852C245.883 269.291 245.914 269.297 245.942 269.309C245.971 269.321 245.996 269.338 246.018 269.36C246.04 269.382 246.057 269.408 246.069 269.436C246.081 269.465 246.087 269.495 246.087 269.526V270.71H249.597V269.526C249.597 269.495 249.603 269.465 249.615 269.436C249.627 269.408 249.644 269.382 249.666 269.36C249.688 269.338 249.714 269.321 249.742 269.309C249.77 269.297 249.801 269.291 249.832 269.292H255.451C255.482 269.291 255.513 269.297 255.541 269.309C255.57 269.321 255.595 269.338 255.617 269.36C255.639 269.382 255.656 269.408 255.668 269.436C255.68 269.465 255.686 269.495 255.686 269.526V270.71H272.076C272.814 270.71 273.545 270.855 274.227 271.137C274.908 271.42 275.528 271.834 276.05 272.356C276.572 272.877 276.986 273.497 277.268 274.179C277.55 274.861 277.696 275.592 277.695 276.33Z" fill="#3F3D56"/>
<path d="M332.029 280.907H25.3156V281.744H332.029V280.907Z" fill="#3F3D56"/>
<path d="M262.65 169.365H193.004V167.929H161.424V169.365H91.4915C90.2421 169.365 89.0438 169.861 88.1603 170.745C87.2769 171.628 86.7805 172.826 86.7805 174.076V269.442C86.7805 270.692 87.2768 271.89 88.1603 272.774C89.0438 273.657 90.2421 274.153 91.4915 274.153H262.65C263.9 274.153 265.098 273.657 265.981 272.774C266.865 271.89 267.361 270.692 267.361 269.442V174.076C267.361 173.457 267.239 172.845 267.003 172.273C266.766 171.702 266.419 171.182 265.981 170.745C265.544 170.307 265.025 169.96 264.453 169.724C263.882 169.487 263.269 169.365 262.65 169.365Z" fill="#3F3D56"/>
<path d="M45.3777 276.68H33.6615V288.396H45.3777V276.68Z" fill="#D0CDE1"/>
<path d="M38.266 267.474V281.701H52.4928V267.474H38.266ZM51.8736 281.082H38.8811V268.094H51.8736V281.082Z" fill="#3F3D56"/>
<path d="M316.525 276.68H304.808V288.396H316.525V276.68Z" fill="#D0CDE1"/>
<path d="M309.413 267.474V281.701H323.64V267.474H309.413ZM323.02 281.082H310.028V268.094H323.02V281.082Z" fill="#3F3D56"/>
<path d="M39.5758 96.2878C57.911 96.2878 72.7747 81.4241 72.7747 63.0888C72.7747 44.7536 57.911 29.8899 39.5758 29.8899C21.2405 29.8899 6.37683 44.7536 6.37683 63.0888C6.37683 81.4241 21.2405 96.2878 39.5758 96.2878Z" fill="#D8D8D8"/>
<path d="M51.1451 23.6376C48.1391 23.2553 45.0968 23.2553 42.0908 23.6376C35.394 24.5168 29.0899 27.2988 23.9267 31.6534C18.7635 36.0079 14.9578 41.7522 12.9613 48.2047C12.0533 51.1453 11.5391 54.1933 11.4321 57.2691C11.4171 57.6966 11.407 58.1292 11.407 58.5618C11.4163 67.8975 15.129 76.8481 21.7303 83.4494C28.3317 90.0508 37.2823 93.7635 46.618 93.7728C47.3675 93.7728 48.1169 93.7477 48.8564 93.7024C50.5921 93.5935 52.3173 93.3547 54.0173 92.9881C62.1358 91.2423 69.3761 86.6837 74.4595 80.1174C79.5429 73.5511 82.1424 65.3997 81.7988 57.1028C81.4551 48.8058 78.1905 40.8972 72.5816 34.7738C66.9726 28.6504 59.3801 24.7061 51.1451 23.6376H51.1451ZM57.639 90.9459H57.6339C54.7982 91.9136 51.8466 92.5005 48.8563 92.6913C48.1169 92.7416 47.3674 92.7668 46.6179 92.7668C37.5496 92.7557 28.8559 89.1484 22.4436 82.7361C16.0314 76.3239 12.4241 67.6301 12.413 58.5618C12.413 58.1292 12.423 57.6966 12.4381 57.2691C12.7839 48.4315 16.5349 40.0703 22.9058 33.9357C29.2767 27.801 37.7736 24.3686 46.6179 24.3569C54.7215 24.3573 62.5618 27.2347 68.7419 32.4763C74.922 37.7179 79.0406 44.9833 80.3638 52.9782C81.687 60.973 80.1289 69.178 75.9672 76.1313C71.8054 83.0846 65.3103 88.3345 57.6389 90.9459H57.639Z" fill="#3F3D56"/>
<path d="M47.1209 26.3689H46.1149V33.4111H47.1209V26.3689Z" fill="#3F3D56"/>
<path d="M24.2099 35.4424L23.4985 36.1538L28.4781 41.1334L29.1895 40.422L24.2099 35.4424Z" fill="#3F3D56"/>
<path d="M14.425 58.0589V59.0649H21.4672V58.0589H14.425Z" fill="#3F3D56"/>
<path d="M23.4985 80.97L24.2098 81.6814L29.1894 76.7018L28.478 75.9904L23.4985 80.97Z" fill="#3F3D56"/>
<path d="M64.0464 40.4219L64.7578 41.1333L69.7374 36.1537L69.026 35.4423L64.0464 40.4219Z" fill="#3F3D56"/>
<path d="M71.7687 58.0589V59.0649H78.8109V58.0589H71.7687Z" fill="#3F3D56"/>
<path d="M64.7579 75.99L64.0465 76.7014L69.0261 81.681L69.7375 80.9696L64.7579 75.99Z" fill="#3F3D56"/>
<path d="M47.1209 83.7124H46.1149V90.7546H47.1209V83.7124Z" fill="#3F3D56"/>
<path d="M48.127 56.5496C47.6916 56.2231 47.1621 56.0466 46.6179 56.0466C46.0737 56.0466 45.5442 56.2231 45.1089 56.5496C44.8108 56.776 44.5654 57.0643 44.3896 57.3947C44.1667 57.8201 44.0704 58.3004 44.1118 58.7789C44.1532 59.2573 44.3308 59.7139 44.6235 60.0947C44.9161 60.4754 45.3117 60.7645 45.7634 60.9276C46.2151 61.0907 46.704 61.1211 47.1724 61.0152C47.6409 60.9093 48.0692 60.6715 48.4067 60.3299C48.7443 59.9883 48.977 59.5572 49.0774 59.0876C49.1778 58.618 49.1417 58.1294 48.9732 57.6797C48.8048 57.2299 48.5112 56.8378 48.127 56.5496H48.127ZM46.6179 60.0707C46.2181 60.0696 45.8349 59.9102 45.5522 59.6275C45.2694 59.3447 45.11 58.9616 45.1089 58.5617C45.1108 58.2565 45.2036 57.9588 45.3755 57.7066C45.5229 57.4931 45.7228 57.3213 45.9561 57.2077C46.1893 57.0942 46.4479 57.0427 46.7068 57.0583C46.9657 57.0739 47.2163 57.1561 47.4341 57.2969C47.652 57.4376 47.8299 57.6322 47.9506 57.8618C48.0713 58.0915 48.1306 58.3483 48.123 58.6076C48.1153 58.8669 48.0409 59.1198 47.9069 59.3419C47.7729 59.5641 47.5839 59.7478 47.3581 59.8755C47.1322 60.0032 46.8773 60.0704 46.6179 60.0707V60.0707Z" fill="#3F3D56"/>
<path d="M51.1451 14.7996H42.0908V23.8538H51.1451V14.7996Z" fill="#3F3D56"/>
<path d="M46.618 16.3083C53.2854 16.3083 58.6903 14.3941 58.6903 12.0327C58.6903 9.67134 53.2854 7.75708 46.618 7.75708C39.9506 7.75708 34.5457 9.67134 34.5457 12.0327C34.5457 14.3941 39.9506 16.3083 46.618 16.3083Z" fill="#3F3D56"/>
<path d="M48.1271 39.4473H45.109V56.5497H48.1271V39.4473Z" fill="#3F3D56"/>
<path d="M94.5666 92.24H0V93.246H94.5666V92.24Z" fill="#3F3D56"/>
<path d="M63.0138 250.959C63.4042 264.328 55.5927 269.227 45.7896 269.514C45.5619 269.52 45.3352 269.524 45.1095 269.526C44.6549 269.529 44.2047 269.522 43.7589 269.503C34.8929 269.135 27.875 264.429 27.5119 251.996C27.1361 239.129 43.1066 222.411 44.3048 221.174L44.3069 221.173C44.3525 221.126 44.3758 221.103 44.3758 221.103C44.3758 221.103 62.6234 237.591 63.0138 250.959Z" fill="#D0CDE1"/>
<path d="M45.0838 267.488L51.3111 258.227L45.0965 268.484L45.1095 269.526C44.6549 269.53 44.2047 269.522 43.7589 269.503L44.0678 256.108L44.0593 256.005L44.0707 255.985L44.1003 254.719L37.2806 244.818L44.0922 253.772L44.1164 254.04L44.3497 243.919L38.4594 233.654L44.3665 242.141L44.3048 221.175L44.3049 221.105L44.3069 221.173L44.698 237.698L50.0663 230.986L44.7155 239.122L44.8327 248.174L49.7727 239.339L44.8508 249.505L44.9161 254.539L52.1001 242.232L44.9379 256.295L45.0838 267.488Z" fill="#3F3D56"/>
<path d="M334.161 250.959C334.551 264.328 326.74 269.227 316.937 269.514C316.709 269.52 316.482 269.524 316.256 269.526C315.802 269.529 315.352 269.522 314.906 269.503C306.04 269.135 299.022 264.429 298.659 251.996C298.283 239.129 314.254 222.411 315.452 221.174L315.454 221.173C315.499 221.126 315.523 221.103 315.523 221.103C315.523 221.103 333.77 237.591 334.161 250.959Z" fill="#D0CDE1"/>
<path d="M316.231 267.488L322.458 258.227L316.243 268.484L316.256 269.526C315.802 269.53 315.352 269.522 314.906 269.503L315.215 256.108L315.206 256.005L315.218 255.985L315.247 254.719L308.427 244.818L315.239 253.772L315.263 254.04L315.497 243.919L309.606 233.654L315.513 242.141L315.452 221.175L315.452 221.105L315.454 221.173L315.845 237.698L321.213 230.986L315.862 239.122L315.98 248.174L320.92 239.339L315.998 249.505L316.063 254.539L323.247 242.232L316.085 256.295L316.231 267.488Z" fill="#3F3D56"/>
</svg>
