<svg width="42" height="27" viewBox="0 0 42 27" fill="none" xmlns="http://www.w3.org/2000/svg">
<path d="M36.1732 11.6853C37.398 10.8247 38.2091 9.39296 38.2091 7.77919C38.2091 5.13923 36.0739 3.00409 33.434 3.00409C30.794 3.00409 28.6589 5.13923 28.6589 7.77919C28.6589 9.39296 29.4616 10.8247 30.6947 11.6853C29.6437 12.0495 28.6837 12.6122 27.8727 13.3405C26.7554 12.3888 25.4396 11.6605 23.9996 11.2302C25.7458 10.1709 26.921 8.24263 26.921 6.04956C26.921 2.70616 24.2148 0 20.8714 0C17.528 0 14.8218 2.71444 14.8218 6.04956C14.8218 8.24263 15.9887 10.1709 17.7432 11.2302C16.3197 11.6605 15.0205 12.3805 13.9115 13.3157C13.1005 12.6039 12.1571 12.0495 11.1226 11.6936C12.3474 10.8329 13.1584 9.40123 13.1584 7.78746C13.1584 5.14751 11.0233 3.01237 8.38332 3.01237C5.74336 3.01237 3.60822 5.14751 3.60822 7.78746C3.60822 9.40123 4.41096 10.8329 5.64405 11.6936C2.35858 12.8274 0 15.9473 0 19.6135V20.1597C0 20.1762 0.0165515 20.1928 0.0331029 20.1928H10.1543C10.0964 20.648 10.0633 21.1197 10.0633 21.5914V22.1541C10.0633 24.5872 12.0329 26.5568 14.466 26.5568H27.2934C29.7264 26.5568 31.6961 24.5872 31.6961 22.1541V21.5914C31.6961 21.1197 31.663 20.648 31.605 20.1928H41.7924C41.809 20.1928 41.8256 20.1762 41.8256 20.1597V19.6135C41.809 15.9391 39.4587 12.8191 36.1732 11.6853ZM29.983 7.77091C29.983 5.86749 31.5305 4.31993 33.434 4.31993C35.3374 4.31993 36.8849 5.86749 36.8849 7.77091C36.8849 9.6495 35.3705 11.1805 33.5002 11.2219C33.4753 11.2219 33.4588 11.2219 33.434 11.2219C33.4091 11.2219 33.3926 11.2219 33.3678 11.2219C31.4892 11.1888 29.983 9.65778 29.983 7.77091ZM16.1294 6.04956C16.1294 3.44271 18.248 1.32412 20.8548 1.32412C23.4617 1.32412 25.5803 3.44271 25.5803 6.04956C25.5803 8.56538 23.6024 10.626 21.1279 10.7667C21.0369 10.7667 20.9459 10.7667 20.8548 10.7667C20.7638 10.7667 20.6728 10.7667 20.5817 10.7667C18.1073 10.626 16.1294 8.56538 16.1294 6.04956ZM4.90751 7.77091C4.90751 5.86749 6.45507 4.31993 8.35849 4.31993C10.2619 4.31993 11.8095 5.86749 11.8095 7.77091C11.8095 9.6495 10.295 11.1805 8.4247 11.2219C8.39987 11.2219 8.38332 11.2219 8.35849 11.2219C8.33366 11.2219 8.31711 11.2219 8.29228 11.2219C6.42197 11.1888 4.90751 9.65778 4.90751 7.77091ZM10.386 18.8604H1.34067C1.71308 15.3349 4.69234 12.5708 8.30884 12.546C8.32539 12.546 8.34194 12.546 8.35849 12.546C8.37504 12.546 8.39159 12.546 8.40814 12.546C10.1295 12.5543 11.7019 13.1915 12.9184 14.226C11.7267 15.517 10.8412 17.1059 10.386 18.8604ZM30.3554 22.1541C30.3554 23.8507 28.9733 25.2327 27.2768 25.2327H14.4494C12.7529 25.2327 11.3709 23.8507 11.3709 22.1541V21.5914C11.3709 16.4522 15.4756 12.2481 20.5817 12.0991C20.6728 12.1074 20.7721 12.1074 20.8631 12.1074C20.9542 12.1074 21.0535 12.1074 21.1445 12.0991C26.2506 12.2481 30.3554 16.4522 30.3554 21.5914V22.1541ZM31.3402 18.8604C30.885 17.1142 30.0161 15.5501 28.8327 14.2591C30.0575 13.1998 31.6464 12.5626 33.3843 12.546C33.4009 12.546 33.4174 12.546 33.434 12.546C33.4505 12.546 33.4671 12.546 33.4836 12.546C37.1001 12.5708 40.0794 15.3349 40.4518 18.8604H31.3402Z" fill="#0054A9"/>
</svg>
